<svg xmlns="http://www.w3.org/2000/svg" width="14" height="12" viewBox="0 0 14 12">
    <path fill="#919191" fill-rule="evenodd" d="M7 10.2c-1.849 0-3.348-1.478-3.348-3.3 0-1.822 1.5-3.3 3.348-3.3 1.849 0 3.348 1.478 3.348 3.3 0 1.822-1.5 3.3-3.348 3.3M12.783 3h-1.327c-.29 0-.54-.202-.597-.482L10.446.482C10.389.202 10.139 0 9.849 0H4.151c-.29 0-.54.202-.597.482l-.413 2.036c-.057.28-.306.482-.596.482H1.217C.545 3 0 3.538 0 4.2v6.6c0 .662.545 1.2 1.217 1.2h11.566c.672 0 1.217-.538 1.217-1.2V4.2c0-.662-.545-1.2-1.217-1.2"/>
</svg>
