<svg xmlns="http://www.w3.org/2000/svg" width="12" height="14" viewBox="0 0 12 14">
    <path fill="#919191" fill-rule="evenodd" d="M4.9 12l.284-1.82c-.548-.3-.893-.822-.893-1.454 0-.952.773-1.698 1.724-1.698.95 0 1.724.733 1.724 1.684 0 .636-.35 1.173-.9 1.473L7.097 12H4.9zm-.522-9.62c.403-.448.934-.666 1.622-.666.72 0 1.268.225 1.677.685.797.894.955 2.528.942 3.601H3.392c-.001-1.082.178-2.724.986-3.62zM11.143 6h-.81c.014-1.233-.161-3.372-1.37-4.736C8.217.425 7.222 0 6 0 4.815 0 3.84.415 3.104 1.232 1.877 2.595 1.68 4.762 1.679 6H.857C.386 6 0 6.385 0 6.857v6c0 .47.386.857.857.857h10.286c.471 0 .857-.386.857-.857v-6c0-.472-.386-.857-.857-.857z"/>
</svg>
