<svg xmlns="http://www.w3.org/2000/svg" width="40" height="40" viewBox="0 0 40 40">
    <g fill-rule="evenodd">
        <path d="M31.709 12.418h-23c-.393 0-.708-.317-.708-.709 0-.392.316-.709.708-.709h23c.391 0 .707.317.707.709 0 .392-.316.709-.707.709M31.709 28.418h-23c-.393 0-.708-.317-.708-.709 0-.392.316-.709.708-.709h23c.391 0 .707.317.707.709 0 .392-.316.709-.707.709M31.709 20.418h-23c-.393 0-.708-.317-.708-.709 0-.392.316-.709.708-.709h23c.391 0 .707.317.707.709 0 .392-.316.709-.707.709"/>
    </g>
</svg>
