<svg width="271" height="165" viewBox="0 0 271 165" fill="none" xmlns="http://www.w3.org/2000/svg">
<path fill-rule="evenodd" clip-rule="evenodd" d="M15.9956 155.4H145.836C153.644 155.4 159.974 149.121 159.974 141.374V51.026C159.974 43.2792 153.644 37 145.836 37H15.9956C8.18671 37 1.85718 43.2792 1.85718 51.026V141.374C1.85718 149.121 8.18671 155.4 15.9956 155.4Z" fill="white"/>
<path fill-rule="evenodd" clip-rule="evenodd" d="M15.9956 155.4H145.836C153.644 155.4 159.974 149.121 159.974 141.374V51.026C159.974 43.2792 153.644 37 145.836 37H15.9956C8.18671 37 1.85718 43.2792 1.85718 51.026V141.374C1.85718 149.121 8.18671 155.4 15.9956 155.4Z" stroke="black" stroke-width="0.708"/>
<path fill-rule="evenodd" clip-rule="evenodd" d="M16.6516 46.7129C16.6516 47.9891 15.616 49.0249 14.3395 49.0249C13.0639 49.0249 12.0283 47.9891 12.0283 46.7129C12.0283 45.4357 13.0639 44.3999 14.3395 44.3999C15.616 44.3999 16.6516 45.4357 16.6516 46.7129Z" fill="#DB7294"/>
<path fill-rule="evenodd" clip-rule="evenodd" d="M16.6516 46.7129C16.6516 47.9891 15.616 49.0249 14.3395 49.0249C13.0639 49.0249 12.0283 47.9891 12.0283 46.7129C12.0283 45.4357 13.0639 44.3999 14.3395 44.3999C15.616 44.3999 16.6516 45.4357 16.6516 46.7129Z" stroke="black" stroke-width="0.708"/>
<path fill-rule="evenodd" clip-rule="evenodd" d="M27.7476 46.7129C27.7476 47.9891 26.712 49.0249 25.4364 49.0249C24.1598 49.0249 23.1243 47.9891 23.1243 46.7129C23.1243 45.4357 24.1598 44.3999 25.4364 44.3999C26.712 44.3999 27.7476 45.4357 27.7476 46.7129Z" fill="#EEDA36"/>
<path fill-rule="evenodd" clip-rule="evenodd" d="M27.7476 46.7129C27.7476 47.9891 26.712 49.0249 25.4364 49.0249C24.1598 49.0249 23.1243 47.9891 23.1243 46.7129C23.1243 45.4357 24.1598 44.3999 25.4364 44.3999C26.712 44.3999 27.7476 45.4357 27.7476 46.7129Z" stroke="black" stroke-width="0.708"/>
<path fill-rule="evenodd" clip-rule="evenodd" d="M37.9189 46.7129C37.9189 47.9891 36.8843 49.0249 35.6078 49.0249C34.3312 49.0249 33.2957 47.9891 33.2957 46.7129C33.2957 45.4357 34.3312 44.3999 35.6078 44.3999C36.8843 44.3999 37.9189 45.4357 37.9189 46.7129Z" fill="#672ED6"/>
<path fill-rule="evenodd" clip-rule="evenodd" d="M37.9189 46.7129C37.9189 47.9891 36.8843 49.0249 35.6078 49.0249C34.3312 49.0249 33.2957 47.9891 33.2957 46.7129C33.2957 45.4357 34.3312 44.3999 35.6078 44.3999C36.8843 44.3999 37.9189 45.4357 37.9189 46.7129Z" stroke="black" stroke-width="0.708"/>
<path d="M1.87842 57.0205H159.657" stroke="black" stroke-width="0.708"/>
<mask id="mask0" mask-type="alpha" maskUnits="userSpaceOnUse" x="0" y="0" width="271" height="185">
<path fill-rule="evenodd" clip-rule="evenodd" d="M0.932617 185H270.008V0H0.932617V185Z" fill="white"/>
</mask>
<g mask="url(#mask0)">
<path fill-rule="evenodd" clip-rule="evenodd" d="M121.138 125.8H150.727V107.3H121.138V125.8Z" stroke="#9E88E5" stroke-width="0.708"/>
<path d="M123.912 111.463H145.179" stroke="#9E88E5" stroke-width="0.708"/>
<path d="M123.912 115.162H145.179" stroke="#9E88E5" stroke-width="0.708"/>
<path d="M123.912 117.938H145.179" stroke="#9E88E5" stroke-width="0.708"/>
<path fill-rule="evenodd" clip-rule="evenodd" d="M86.4639 87.4125V65.675C74.463 65.675 64.7339 75.4075 64.7339 87.4125C64.7339 99.4176 74.463 109.15 86.4639 109.15C98.4648 109.15 108.193 99.4176 108.193 87.4125C108.193 85.8391 108.018 84.307 107.7 82.828L86.4639 87.4125Z" fill="#DB7294"/>
<path fill-rule="evenodd" clip-rule="evenodd" d="M110.042 79.6887C107.935 70.0944 99.2183 62.8999 88.7749 62.8999V84.1749L110.042 79.6887Z" fill="#E4B0C8"/>
<path fill-rule="evenodd" clip-rule="evenodd" d="M46.2668 67.525H20.3232C19.3165 67.525 18.501 66.6975 18.501 65.675C18.501 64.6535 19.3165 63.825 20.3232 63.825H46.2668C47.2735 63.825 48.09 64.6535 48.09 65.675C48.09 66.6975 47.2735 67.525 46.2668 67.525Z" stroke="#9E88E5" stroke-width="0.708"/>
<path d="M20.3503 69.8375H45.3161" stroke="#9E88E5" stroke-width="0.708"/>
<path d="M20.3503 73.5375H45.3161" stroke="#9E88E5" stroke-width="0.708"/>
<path d="M20.3503 76.3126H45.3161" stroke="#9E88E5" stroke-width="0.708"/>
<path d="M49.0146 66.6001H58.1119L71.2064 79.5501" stroke="#9E88E5" stroke-width="0.708"/>
<path fill-rule="evenodd" clip-rule="evenodd" d="M148.903 69.375H122.961C121.954 69.375 121.138 68.5465 121.138 67.525C121.138 66.5036 121.954 65.675 122.961 65.675H148.903C149.91 65.675 150.727 66.5036 150.727 67.525C150.727 68.5465 149.91 69.375 148.903 69.375Z" stroke="#9E88E5" stroke-width="0.708"/>
<path d="M122.063 72.6124H147.028" stroke="#9E88E5" stroke-width="0.708"/>
<path d="M122.063 75.3875H147.028" stroke="#9E88E5" stroke-width="0.708"/>
<path d="M122.063 79.0875H147.028" stroke="#9E88E5" stroke-width="0.708"/>
<path d="M122.063 82.7875H147.028" stroke="#9E88E5" stroke-width="0.708"/>
<path d="M122.063 85.5626H147.028" stroke="#9E88E5" stroke-width="0.708"/>
<path d="M122.063 89.2625H147.028" stroke="#9E88E5" stroke-width="0.708"/>
<path d="M100.796 75.85L110.109 68.45H118.364" stroke="#9E88E5" stroke-width="0.708"/>
<path d="M21.2749 96.2V138.75H86.0009" stroke="#9E88E5" stroke-width="0.708"/>
<path fill-rule="evenodd" clip-rule="evenodd" d="M21.7374 96.2H19.4258L20.5821 93.8868L21.7374 91.575L22.8938 93.8868L24.0491 96.2H21.7374Z" fill="#9E88E5"/>
<path fill-rule="evenodd" clip-rule="evenodd" d="M85.0764 138.288V135.975L87.3881 137.132L89.6997 138.288L87.3881 139.444L85.0764 140.6V138.288Z" fill="#9E88E5"/>
<path d="M16.6516 135.05L31.9791 121.136L44.5931 134.799L60.4989 105.45L72.1311 134.087" stroke="#EEDA36" stroke-width="0.708"/>
<path d="M12.0283 114.7C12.0283 114.7 12.7186 113.95 13.8776 112.85" stroke="#DB7294" stroke-width="0.708"/>
<path d="M16.6516 110.607C20.7792 107.536 26.7448 104.372 30.5361 107.991C36.8108 113.98 35.3281 118.586 47.93 115.899C59.7784 113.373 74.3304 116.868 78.6037 136.9" stroke="#DB7294" stroke-width="0.708" stroke-dasharray="2.73 2.73"/>
<path d="M78.9292 138.75C79.0291 139.352 79.1206 139.968 79.2029 140.6" stroke="#DB7294" stroke-width="0.708"/>
<path fill-rule="evenodd" clip-rule="evenodd" d="M209.905 90.6499C209.905 90.6499 248.586 105.757 269.083 171.091L242.885 184.075L223.494 134.614L209.905 90.6499Z" fill="#3240FF"/>
<path fill-rule="evenodd" clip-rule="evenodd" d="M209.905 90.6499C209.905 90.6499 248.586 105.757 269.083 171.091L242.885 184.075L223.494 134.614L209.905 90.6499Z" stroke="black" stroke-width="0.708"/>
<path fill-rule="evenodd" clip-rule="evenodd" d="M94.6269 103.827C94.6269 103.827 88.0289 99.5663 88.8448 97.5324C89.6617 95.4986 91.5814 96.6397 91.5814 96.6397C91.5814 96.6397 89.6135 95.4249 90.5267 94.0848C91.4389 92.7446 92.6737 93.2405 92.6737 93.2405C92.6737 93.2405 91.2808 91.1856 92.6224 90.4223C93.965 89.6591 95.9842 90.1465 95.9842 90.1465C95.9842 90.1465 95.2102 88.4359 95.2479 87.8348C95.2856 87.2315 96.1549 85.8999 98.9679 86.5568C101.779 87.2147 107.801 90.5771 109.828 91.6151C111.855 92.6541 114.146 95.0627 114.211 94.2837C114.277 93.5047 115.148 88.5338 117.066 87.0821C118.986 85.6314 119.752 85.3977 120.093 88.1579C120.434 90.9182 120.343 98.6041 124.06 104.267C127.775 109.93 129.047 113.704 132.974 118.293C136.901 122.882 138.706 125.194 138.706 125.194L121.002 139.675C121.002 139.675 103.827 113.692 103.702 113.518C103.576 113.343 98.0013 106.466 94.6269 103.827Z" fill="white"/>
<path d="M91.2071 95.3015C91.2071 95.3015 89.0222 92.147 93.113 92.5327C97.2028 92.9174 102.748 96.273 105.419 98.05" stroke="black" stroke-width="0.708"/>
<path d="M109.773 107.704C109.773 107.704 108.273 103.082 114.813 101.167C114.813 101.167 112.32 91.3568 117.04 87.0022C121.76 82.6466 119.191 93.863 122.349 100.693C125.507 107.525 129.082 114.118 132.442 117.713C135.802 121.307 138.706 125.229 138.706 125.229L120.857 139.675C120.857 139.675 114.758 130.332 105.351 115.833C95.9429 101.333 87.6382 101.013 88.9028 97.4502C90.4566 93.0694 101.544 103.384 101.544 103.384" stroke="black" stroke-width="0.708"/>
<path d="M92.3502 92.7406C92.3502 92.7406 90.2084 90.4207 92.9288 89.8087C93.3794 89.708 93.9432 89.7005 94.5915 89.7742C97.8631 90.1473 103.301 92.5718 107.268 95.2751" stroke="black" stroke-width="0.708"/>
<path d="M114.665 94.3499C114.665 94.3499 106.718 87.2406 97.6472 86.0643C94.3681 85.6387 94.5031 88.773 97.725 90.0787" stroke="black" stroke-width="0.708"/>
<path fill-rule="evenodd" clip-rule="evenodd" d="M151.276 133.937C148.796 132.255 146.262 130.058 143.837 127.681C135.954 119.957 129.217 110.336 129.217 110.336L109.843 127.059C109.843 127.059 130.974 160.111 143.662 164.241C156.351 168.373 185.357 135.125 185.357 135.125L187.64 91.3872C187.64 91.3872 182.183 94.3405 177.807 98.3224C170.621 104.863 158.067 116.549 143.837 127.681" fill="#3240FF"/>
<path d="M151.276 133.937C148.796 132.255 146.262 130.058 143.837 127.681C135.954 119.957 129.217 110.336 129.217 110.336L109.843 127.059C109.843 127.059 130.974 160.111 143.662 164.241C156.351 168.373 185.357 135.125 185.357 135.125L187.64 91.3872C187.64 91.3872 182.183 94.3405 177.807 98.3224C170.621 104.863 158.067 116.549 143.837 127.681" stroke="black" stroke-width="0.708"/>
<path fill-rule="evenodd" clip-rule="evenodd" d="M135.008 118.321C131.197 113.716 128.639 110.075 128.639 110.075L109.117 126.871C109.117 126.871 111.592 130.728 115.358 135.975L135.008 118.321Z" fill="white"/>
<path fill-rule="evenodd" clip-rule="evenodd" d="M135.008 118.321C131.197 113.716 128.639 110.075 128.639 110.075L109.117 126.871C109.117 126.871 111.592 130.728 115.358 135.975L135.008 118.321Z" stroke="black" stroke-width="0.708"/>
<path fill-rule="evenodd" clip-rule="evenodd" d="M131.309 117.013C131.309 117.779 130.689 118.4 129.922 118.4C129.156 118.4 128.535 117.779 128.535 117.013C128.535 116.246 129.156 115.625 129.922 115.625C130.689 115.625 131.309 116.246 131.309 117.013Z" fill="white"/>
<path fill-rule="evenodd" clip-rule="evenodd" d="M131.309 117.013C131.309 117.779 130.689 118.4 129.922 118.4C129.156 118.4 128.535 117.779 128.535 117.013C128.535 116.246 129.156 115.625 129.922 115.625C130.689 115.625 131.309 116.246 131.309 117.013Z" stroke="black" stroke-width="0.708"/>
<path fill-rule="evenodd" clip-rule="evenodd" d="M241.343 174.825C241.345 174.461 241.343 167.026 241.343 166.662C241.343 123.66 223.127 88.8 200.658 88.8C178.189 88.8 159.975 123.66 159.975 166.662C159.975 167.026 159.972 174.461 159.975 174.825H241.343Z" fill="#3240FF"/>
<path fill-rule="evenodd" clip-rule="evenodd" d="M241.343 174.825C241.345 174.461 241.343 167.026 241.343 166.662C241.343 123.66 223.127 88.8 200.658 88.8C178.189 88.8 159.975 123.66 159.975 166.662C159.975 167.026 159.972 174.461 159.975 174.825H241.343Z" stroke="black" stroke-width="0.708"/>
<path d="M200.196 108.225V174.825" stroke="black" stroke-width="0.708"/>
<path fill-rule="evenodd" clip-rule="evenodd" d="M200.198 109.15L215.453 94.8463C210.758 90.9552 205.606 88.8 200.198 88.8C194.97 88.8 189.508 91.1917 184.939 94.8421L200.198 109.15Z" fill="white"/>
<path fill-rule="evenodd" clip-rule="evenodd" d="M200.198 109.15L215.453 94.8463C210.758 90.9552 205.606 88.8 200.198 88.8C194.97 88.8 189.508 91.1917 184.939 94.8421L200.198 109.15Z" stroke="black" stroke-width="0.708"/>
<path d="M165.819 125.687C162.11 137.384 159.975 151.101 159.975 165.767C159.975 166.131 159.972 173.537 159.975 173.9H241.343C241.345 173.537 241.343 166.131 241.343 165.767C241.343 150.76 239.108 136.746 235.237 124.875" stroke="black" stroke-width="0.708"/>
<path d="M215.453 93.425C210.75 89.8498 205.588 87.875 200.171 87.875C194.774 87.875 189.628 89.8362 184.939 93.3862" stroke="black" stroke-width="0.708"/>
<path fill-rule="evenodd" clip-rule="evenodd" d="M217.131 98.2489L208.374 85.2096C206.659 82.6565 203.437 81.7052 200.658 82.7308C197.88 81.7052 194.657 82.6565 192.943 85.2096L184.186 98.2489C182.186 101.228 183 105.251 186.004 107.236L187.257 108.062C190.261 110.047 194.319 109.24 196.32 106.26L200.658 99.7984L204.999 106.26C206.999 109.24 211.056 110.047 214.06 108.062L215.312 107.236C218.317 105.251 219.132 101.228 217.131 98.2489Z" fill="#FEFEFF"/>
<path fill-rule="evenodd" clip-rule="evenodd" d="M217.131 98.2489L208.374 85.2096C206.659 82.6565 203.437 81.7052 200.658 82.7308C197.88 81.7052 194.657 82.6565 192.943 85.2096L184.186 98.2489C182.186 101.228 183 105.251 186.004 107.236L187.257 108.062C190.261 110.047 194.319 109.24 196.32 106.26L200.658 99.7984L204.999 106.26C206.999 109.24 211.056 110.047 214.06 108.062L215.312 107.236C218.317 105.251 219.132 101.228 217.131 98.2489Z" stroke="black" stroke-width="0.708"/>
<path fill-rule="evenodd" clip-rule="evenodd" d="M201.583 96.6624C201.583 97.4289 200.962 98.0499 200.196 98.0499C199.43 98.0499 198.809 97.4289 198.809 96.6624C198.809 95.8959 199.43 95.2749 200.196 95.2749C200.962 95.2749 201.583 95.8959 201.583 96.6624Z" fill="#FEFEFF"/>
<path fill-rule="evenodd" clip-rule="evenodd" d="M201.583 96.6624C201.583 97.4289 200.962 98.0499 200.196 98.0499C199.43 98.0499 198.809 97.4289 198.809 96.6624C198.809 95.8959 199.43 95.2749 200.196 95.2749C200.962 95.2749 201.583 95.8959 201.583 96.6624Z" stroke="black" stroke-width="0.708"/>
<path fill-rule="evenodd" clip-rule="evenodd" d="M218.227 64.7499C218.227 68.3258 215.123 71.2249 211.293 71.2249C207.463 71.2249 204.357 68.3258 204.357 64.7499C204.357 61.173 207.463 58.2749 211.293 58.2749C215.123 58.2749 218.227 61.173 218.227 64.7499Z" stroke="black" stroke-width="1.416"/>
<path fill-rule="evenodd" clip-rule="evenodd" d="M187.049 45.325H195.678C201.416 45.325 206.11 50.5955 206.11 57.0381V70.2306C206.11 70.6028 206.091 70.9698 206.06 71.3325C206.153 71.7215 206.206 72.1251 206.206 72.5414V80.5724V81.0201V89.0511C206.206 91.9658 203.789 94.35 200.835 94.35H197.411C194.457 94.35 192.039 91.9658 192.039 89.0511V81.9438H187.049C181.313 81.9438 176.617 76.6733 176.617 70.2306V57.0381C176.617 50.5955 181.313 45.325 187.049 45.325Z" fill="white"/>
<path fill-rule="evenodd" clip-rule="evenodd" d="M187.049 45.325H195.678C201.416 45.325 206.11 50.5955 206.11 57.0381V70.2306C206.11 70.6028 206.091 70.9698 206.06 71.3325C206.153 71.7215 206.206 72.1251 206.206 72.5414V80.5724V81.0201V89.0511C206.206 91.9658 203.789 94.35 200.835 94.35H197.411C194.457 94.35 192.039 91.9658 192.039 89.0511V81.9438H187.049C181.313 81.9438 176.617 76.6733 176.617 70.2306V57.0381C176.617 50.5955 181.313 45.325 187.049 45.325Z" stroke="black" stroke-width="0.708"/>
<path fill-rule="evenodd" clip-rule="evenodd" d="M204.319 65.2121L202.744 54.8784C202.744 54.8784 174.064 58.462 164.768 44.574C155.471 30.6859 165.242 25.1877 169.968 25.973C174.695 26.7583 180.223 33.5136 180.223 33.5136C180.223 33.5136 175.823 27.5436 180.223 26.601C184.622 25.6585 189.484 30.2141 192.017 34.927C192.017 34.927 210.92 33.1697 217.311 44.574C223.702 55.9771 218.523 64.0682 206.834 75.8499L206.053 69.2603L204.319 65.2121Z" fill="black"/>
<path fill-rule="evenodd" clip-rule="evenodd" d="M235.795 32.3756C235.795 39.0162 230.414 44.4001 223.775 44.4001C217.136 44.4001 211.754 39.0162 211.754 32.3756C211.754 25.734 217.136 20.3501 223.775 20.3501C230.414 20.3501 235.795 25.734 235.795 32.3756Z" fill="black"/>
<path fill-rule="evenodd" clip-rule="evenodd" d="M201.583 68.4495C201.583 71.0038 199.514 73.075 196.96 73.075C194.407 73.075 192.337 71.0038 192.337 68.4495C192.337 65.8951 194.407 63.825 196.96 63.825C199.514 63.825 201.583 65.8951 201.583 68.4495Z" fill="#E4B0C8"/>
<path fill-rule="evenodd" clip-rule="evenodd" d="M178.429 63.825C178.131 63.825 177.84 63.8635 177.563 63.9292V68.9711C177.563 69.7241 177.482 70.4573 177.636 71.1676C177.841 71.202 178.214 71.225 178.429 71.225C180.492 71.225 182.165 69.5676 182.165 67.5244C182.165 65.4812 180.492 63.825 178.429 63.825Z" fill="#E4B0C8"/>
<path fill-rule="evenodd" clip-rule="evenodd" d="M192.337 61.05C192.337 62.072 191.509 62.9 190.488 62.9C189.466 62.9 188.638 62.072 188.638 61.05C188.638 60.0279 189.466 59.2 190.488 59.2C191.509 59.2 192.337 60.0279 192.337 61.05Z" fill="#141414"/>
<path fill-rule="evenodd" clip-rule="evenodd" d="M181.241 60.5875C181.241 61.3533 180.619 61.975 179.854 61.975C179.088 61.975 178.467 61.3533 178.467 60.5875C178.467 59.8206 179.088 59.2 179.854 59.2C180.619 59.2 181.241 59.8206 181.241 60.5875Z" fill="#141414"/>
<path fill-rule="evenodd" clip-rule="evenodd" d="M183.09 67.3963C183.09 67.3963 183.883 70.1038 185.558 70.2889C187.234 70.4751 188.547 68.2984 188.638 66.6001L183.09 67.3963Z" fill="#F7F6F6"/>
<path fill-rule="evenodd" clip-rule="evenodd" d="M183.121 68.0906C183.419 69.0611 183.952 70.0118 184.68 70.6378C185.953 71.7298 187.622 71.198 188.578 69.8725C189.134 69.103 189.496 68.1806 189.562 67.1881C189.58 66.8992 189.307 66.5662 189.043 66.6029L184.296 67.2583C184.071 67.2886 183.846 67.32 183.621 67.3504C183.343 67.3891 183.102 67.5912 183.102 67.9357C183.102 68.2215 183.341 68.5586 183.621 68.5199C185.204 68.301 186.786 68.0833 188.369 67.8655C188.594 67.8341 188.818 67.8027 189.043 67.7723C188.87 67.5776 188.697 67.3829 188.524 67.1881C188.448 68.3272 187.685 69.7061 186.626 70.0191C185.622 70.3154 184.899 69.4391 184.442 68.5366C184.341 68.3356 184.256 68.1272 184.168 67.9189C184.129 67.8257 184.208 68.0414 184.173 67.9304C184.164 67.9042 184.155 67.8791 184.147 67.854C184.138 67.8299 184.13 67.8048 184.122 67.7797C183.905 67.073 182.902 67.3766 183.121 68.0906Z" fill="#141414"/>
<path fill-rule="evenodd" clip-rule="evenodd" d="M200.659 59.6626C200.659 63.4939 197.76 66.6001 194.187 66.6001C190.612 66.6001 187.713 63.4939 187.713 59.6626C187.713 55.8313 190.612 52.7251 194.187 52.7251C197.76 52.7251 200.659 55.8313 200.659 59.6626Z" stroke="#672ED6" stroke-width="0.708"/>
<path fill-rule="evenodd" clip-rule="evenodd" d="M184.015 59.2001C184.015 62.7768 181.738 65.6751 178.928 65.6751C176.119 65.6751 173.844 62.7768 173.844 59.2001C173.844 55.6234 176.119 52.7251 178.928 52.7251C181.738 52.7251 184.015 55.6234 184.015 59.2001Z" stroke="#672ED6" stroke-width="0.708"/>
<path fill-rule="evenodd" clip-rule="evenodd" d="M185.864 59.2V64.75L182.166 62.9774L185.864 59.2Z" fill="#D96980"/>
<path d="M183.09 61.4725C183.09 61.4725 185.77 60.5688 187.713 61.8601" stroke="#672ED6" stroke-width="0.708"/>
<path fill-rule="evenodd" clip-rule="evenodd" d="M218.227 64.7499C218.227 68.3258 215.123 71.2249 211.293 71.2249C207.463 71.2249 204.357 68.3258 204.357 64.7499C204.357 61.173 207.463 58.2749 211.293 58.2749C215.123 58.2749 218.227 61.173 218.227 64.7499Z" fill="white"/>
<path fill-rule="evenodd" clip-rule="evenodd" d="M206.658 66.9218C206.649 66.8009 206.654 66.6783 206.662 66.5566C206.666 66.5005 206.671 66.4445 206.677 66.3884L206.688 66.2947C206.708 66.1318 206.66 66.4471 206.684 66.3157C206.714 66.1589 206.747 66.0048 206.793 65.8515C206.816 65.7718 206.843 65.6921 206.872 65.6142C206.889 65.5704 206.907 65.5257 206.926 65.482C206.934 65.4618 206.944 65.4417 206.953 65.4215C206.997 65.3217 206.954 65.4355 206.929 65.4688C207.051 65.3007 207.128 65.1124 207.26 64.9468C207.272 64.9311 207.285 64.9162 207.297 64.9004C207.353 64.8295 207.368 64.8785 207.267 64.9328C207.307 64.9118 207.343 64.8531 207.372 64.8234C207.454 64.7419 207.542 64.6666 207.634 64.5956C207.651 64.5825 207.67 64.5694 207.686 64.5562C207.752 64.5072 207.791 64.53 207.657 64.5755C207.705 64.5589 207.759 64.5116 207.803 64.4862C207.917 64.4214 208.037 64.3653 208.159 64.3128C208.176 64.3049 208.297 64.2602 208.183 64.3014C208.065 64.3443 208.227 64.2874 208.249 64.2804C208.326 64.2558 208.404 64.2339 208.483 64.2138C208.567 64.1928 208.651 64.1753 208.735 64.1595C208.764 64.1542 208.794 64.149 208.823 64.1446C208.853 64.1394 208.883 64.135 208.913 64.1306C208.988 64.121 208.973 64.1218 208.869 64.1341C208.939 64.1026 209.082 64.1148 209.159 64.1105C209.261 64.1052 209.365 64.1017 209.467 64.1017C209.694 64.1017 209.918 64.114 210.143 64.135C210.5 64.1674 210.844 63.8346 210.829 63.5324C210.81 63.1777 210.526 62.964 210.143 62.929C208.757 62.8029 207.242 63.07 206.318 64.0579C205.687 64.7331 205.388 65.5617 205.302 66.4234C205.285 66.5881 205.274 66.7562 205.287 66.9218C205.309 67.2353 205.586 67.5401 205.973 67.5243C206.324 67.5103 206.682 67.2589 206.658 66.9218Z" fill="#090909"/>
<path fill-rule="evenodd" clip-rule="evenodd" d="M92.1007 0.925049H134.456C139.867 0.925049 144.255 5.21049 144.255 10.4962V27.3876V33.2939V51.8L134.292 42.8651H92.1007C86.6896 42.8651 82.3025 38.5807 82.3025 33.2939V10.4962C82.3025 5.21049 86.6896 0.925049 92.1007 0.925049Z" fill="white"/>
<path fill-rule="evenodd" clip-rule="evenodd" d="M92.1007 0.925049H134.456C139.867 0.925049 144.255 5.21049 144.255 10.4962V27.3876V33.2939V51.8L134.292 42.8651H92.1007C86.6896 42.8651 82.3025 38.5807 82.3025 33.2939V10.4962C82.3025 5.21049 86.6896 0.925049 92.1007 0.925049Z" stroke="black" stroke-width="0.708"/>
<path d="M108.376 23.5927H108.022V23.9467H108.376V23.5927ZM114.537 23.5927V23.9467H114.891V23.5927H114.537ZM115.092 22.0127L115.366 22.2361L115.367 22.2356L115.092 22.0127ZM116.822 20.3665L117.046 20.6403L117.049 20.638L116.822 20.3665ZM118.57 18.7523L118.313 18.5094L118.313 18.5097L118.57 18.7523ZM119.729 16.9903L120.05 17.1393L120.05 17.1391L119.729 16.9903ZM117.704 9.97116L117.898 9.67521L117.898 9.67513L117.704 9.97116ZM104.811 9.62165L104.653 9.30498L104.653 9.30501L104.811 9.62165ZM100.796 13.2481L100.493 13.0639L100.296 13.3884L100.633 13.5627L100.796 13.2481ZM105.953 15.9087L105.791 16.2233L106.083 16.3741L106.255 16.0936L105.953 15.9087ZM107.77 14.1456L107.597 13.8369L107.597 13.8371L107.77 14.1456ZM112.478 14.096L112.678 13.8041L112.678 13.804L112.478 14.096ZM112.842 16.9572L113.119 17.1768L113.12 17.176L112.842 16.9572ZM111.354 18.47L111.589 18.7343L111.59 18.7337L111.354 18.47ZM109.138 20.8484L109.427 21.0523L109.428 21.052L109.138 20.8484ZM114.295 31.3605L114.534 31.6217L114.535 31.6214L114.295 31.3605ZM114.295 26.4198L114.528 26.1531L114.528 26.1526L114.295 26.4198ZM108.636 26.4198L108.401 26.1545L108.401 26.155L108.636 26.4198ZM108.653 31.3605L108.413 31.6214L108.414 31.6216L108.653 31.3605ZM108.376 23.9467H114.537V23.2387H108.376V23.9467ZM114.891 23.5927C114.891 23.0732 115.049 22.6263 115.366 22.2361L114.817 21.7893C114.394 22.3091 114.183 22.9149 114.183 23.5927H114.891ZM115.367 22.2356C115.712 21.8091 116.269 21.2777 117.046 20.6402L116.597 20.0928C115.806 20.7416 115.207 21.3084 114.817 21.7898L115.367 22.2356ZM117.049 20.638C117.771 20.0339 118.366 19.4863 118.828 18.995L118.313 18.5097C117.876 18.9738 117.304 19.5017 116.595 20.095L117.049 20.638ZM118.828 18.9953C119.308 18.4862 119.713 17.8655 120.05 17.1393L119.408 16.8413C119.097 17.5111 118.732 18.065 118.313 18.5094L118.828 18.9953ZM120.05 17.1391C120.4 16.3854 120.567 15.5296 120.567 14.5779H119.859C119.859 15.4461 119.707 16.1971 119.408 16.8415L120.05 17.1391ZM120.567 14.5779C120.567 12.4836 119.67 10.8377 117.898 9.67521L117.51 10.2671C119.085 11.3009 119.859 12.7262 119.859 14.5779H120.567ZM117.898 9.67513C116.15 8.52856 113.866 7.97095 111.076 7.97095V8.67895C113.778 8.67895 115.912 9.21951 117.51 10.2672L117.898 9.67513ZM111.076 7.97095C108.589 7.97095 106.444 8.41034 104.653 9.30498L104.97 9.93833C106.639 9.10403 108.671 8.67895 111.076 8.67895V7.97095ZM104.653 9.30501C102.866 10.1982 101.476 11.4512 100.493 13.0639L101.098 13.4323C102.007 11.9407 103.294 10.7761 104.97 9.93829L104.653 9.30501ZM100.633 13.5627L105.791 16.2233L106.115 15.5941L100.958 12.9335L100.633 13.5627ZM106.255 16.0936C106.686 15.3899 107.248 14.8457 107.944 14.4542L107.597 13.8371C106.793 14.2894 106.143 14.9199 105.651 15.7238L106.255 16.0936ZM107.944 14.4543C108.637 14.0653 109.413 13.8678 110.28 13.8678V13.1598C109.3 13.1598 108.404 13.3843 107.597 13.8369L107.944 14.4543ZM110.28 13.8678C111.13 13.8678 111.787 14.0514 112.278 14.388L112.678 13.804C112.037 13.3651 111.229 13.1598 110.28 13.1598V13.8678ZM112.278 14.3879C112.754 14.7148 112.972 15.1253 112.972 15.6429H113.68C113.68 14.8743 113.332 14.2528 112.678 13.8041L112.278 14.3879ZM112.972 15.6429C112.972 16.0193 112.843 16.3823 112.563 16.7384L113.12 17.176C113.486 16.7111 113.68 16.1972 113.68 15.6429H112.972ZM112.564 16.7376C112.258 17.124 111.779 17.6131 111.117 18.2064L111.59 18.7337C112.264 18.1295 112.777 17.6094 113.119 17.1768L112.564 16.7376ZM111.118 18.2058C110.137 19.0806 109.376 19.894 108.848 20.6447L109.428 21.052C109.913 20.3613 110.631 19.5884 111.589 18.7343L111.118 18.2058ZM108.849 20.6445C108.289 21.4387 108.022 22.4302 108.022 23.5927H108.73C108.73 22.5383 108.971 21.6995 109.427 21.0523L108.849 20.6445ZM111.457 32.729C112.685 32.729 113.72 32.3667 114.534 31.6217L114.056 31.0994C113.392 31.7069 112.536 32.021 111.457 32.021V32.729ZM114.535 31.6214C115.344 30.8792 115.757 29.9603 115.757 28.8819H115.049C115.049 29.7558 114.723 30.4873 114.056 31.0997L114.535 31.6214ZM115.757 28.8819C115.757 27.7839 115.345 26.8659 114.528 26.1531L114.063 26.6866C114.722 27.2622 115.049 27.9843 115.049 28.8819H115.757ZM114.528 26.1526C113.713 25.4449 112.68 25.1021 111.457 25.1021V25.8101C112.541 25.8101 113.399 26.1105 114.063 26.6871L114.528 26.1526ZM111.457 25.1021C110.234 25.1021 109.205 25.4449 108.401 26.1545L108.87 26.6852C109.521 26.1105 110.373 25.8101 111.457 25.8101V25.1021ZM108.401 26.155C107.596 26.8683 107.192 27.7858 107.192 28.8819H107.9C107.9 27.9824 108.222 27.2598 108.87 26.6847L108.401 26.155ZM107.192 28.8819C107.192 29.9603 107.604 30.8792 108.413 31.6214L108.892 31.0997C108.225 30.4873 107.9 29.7558 107.9 28.8819H107.192ZM108.414 31.6216C109.226 32.3655 110.25 32.729 111.457 32.729V32.021C110.402 32.021 109.556 31.7081 108.892 31.0995L108.414 31.6216Z" fill="black"/>
</g>
</svg>
