<svg xmlns="http://www.w3.org/2000/svg" width="240" height="206" viewBox="0 0 240 206">
    <g fill="none" fill-rule="evenodd">
        <g>
            <g>
                <path fill="#91CC7A" fill-rule="nonzero" d="M191 138.1s7.8 2.8 9.8 5c2 2.2 0 19.2 0 19.2s-9 5.1-15 5.1l-5.3-2.8-1.9-17.3.1-7.8 12.3-1.4z" transform="translate(-60 -237) translate(61 238)"/>
                <path fill="#91CC7A" fill-rule="nonzero" stroke="#000" stroke-width="2" d="M174.9 119.5s16.3-4.3 19.3 20.6l-.8 7.7s-7.1-4.8-14.7-1.5l-3.8-26.8z" transform="translate(-60 -237) translate(61 238)"/>
                <path fill="#424242" fill-rule="nonzero" d="M186.1 145.6c-.6 0-1.2-.8-1.2-1.7 0-12.1-4-22.2-4-22.3-.3-.8-.1-1.9.4-2.4s1.3-.2 1.6.6c.2.4 4.3 11 4.3 24.1.1.9-.4 1.7-1.1 1.7z" transform="translate(-60 -237) translate(61 238)"/>
                <path fill="#FFC67B" fill-rule="nonzero" d="M111.7 130.7s5.2 3.2 4 5.3l-1.2 2.2s-5.1 8.2-5.1 8c0-.2 1.6-16.3 1.6-16.3l.7.8zM117.2 168s-1.1 3.6-7.8 2.5l.6-18.7 7.8 14.8-.6 1.4z" transform="translate(-60 -237) translate(61 238)"/>
                <path fill="#FFC67B" fill-rule="nonzero" d="M111.3 123.1s5.4 2.4 5.9 10.1l-1.7 1.8-4.9-5.6.3-6.1" transform="translate(-60 -237) translate(61 238)"/>
                <path fill="#5B5A59" fill-rule="nonzero" d="M42.3 120.8s-16.1 7.3-1.4 27.5l1.4-27.5zM118.2 134.1s-17.4 9.1 4.5 38.2l-4.5-38.2z" transform="translate(-60 -237) translate(61 238)"/>
                <path fill="#FEEFDC" fill-rule="nonzero" d="M131.3 80.6L148.6 78 171.6 98.2 171.6 102.1 159.5 98.7 141.3 107.7 119.3 110.5 112.3 106.9 130.7 81.2" transform="translate(-60 -237) translate(61 238)"/>
                <path fill="#FFE9AE" fill-rule="nonzero" d="M114.1 108.2L119.3 110.5 141.3 107.7 159.5 98.7 171.3 102.5 184 193.5 180.4 196.1 129.6 203.4 125.6 197.2 112.9 108.4z" transform="translate(-60 -237) translate(61 238)"/>
                <g fill="#FFF" fill-rule="nonzero">
                    <path stroke="#000" stroke-width="2" d="M63 27.8C63 43 48.9 55.2 31.5 55.2S0 43 0 27.8C0 12.7 14.1.4 31.5.4 48.9.5 63 12.7 63 27.8z" transform="translate(-60 -237) translate(61 238) translate(0 13)"/>
                    <path stroke="#000" stroke-linecap="round" stroke-linejoin="round" stroke-width="2" d="M31.5 55.2L39.8 64.1 37.9 55.2" transform="translate(-60 -237) translate(61 238) translate(0 13)"/>
                    <path d="M33.4 55.6L30.6 52.2 36.2 52.2 36.5 52.2 36.7 55.2" transform="translate(-60 -237) translate(61 238) translate(0 13)"/>
                </g>
                <g fill="#FFF" fill-rule="nonzero">
                    <path stroke="#000" stroke-width="2" d="M.9 20.4c-2.7 14.2 8.9 28.3 26 31.6 17.1 3.3 33.2-5.5 35.9-19.7C65.5 18.1 53.9 4 36.8.7 19.7-2.6 3.6 6.2.9 20.4z" transform="translate(-60 -237) translate(61 238) translate(174 43)"/>
                    <path stroke="#000" stroke-linecap="round" stroke-linejoin="round" stroke-width="2" d="M26.8 52L17 59.1 20.6 50.8" transform="translate(-60 -237) translate(61 238) translate(174 43)"/>
                    <path d="M24.9 52L28.3 49.2 22.8 48.1 22.5 48 21.7 51" transform="translate(-60 -237) translate(61 238) translate(174 43)"/>
                </g>
                <g fill="#FFF" fill-rule="nonzero">
                    <path stroke="#000" stroke-width="2" d="M.2 30.9c.3 16.5 25 28.2 51.3 27.6 26.3-.5 52.3-12.5 52-29-.3-16.4-26.7-29-53-28.5S-.2 14.4.2 30.9z" transform="translate(-60 -237) translate(61 238) translate(70)"/>
                    <g>
                        <path stroke="#000" stroke-linecap="round" stroke-linejoin="round" stroke-width="2" d="M0.4 3.6L6.5 14.1 6.6 5.1" transform="translate(-60 -237) translate(61 238) translate(70) translate(24 52)"/>
                        <path d="M2.2 4.4L0.2 0.5 5.7 1.7 6 1.8 5.5 4.8" transform="translate(-60 -237) translate(61 238) translate(70) translate(24 52)"/>
                    </g>
                    <g>
                        <path stroke="#000" stroke-linecap="round" stroke-linejoin="round" stroke-width="2" d="M6.7 3.8L0.7 14.3 0.5 5.2" transform="translate(-60 -237) translate(61 238) translate(70) translate(62 53)"/>
                        <path d="M4.9 4.6L6.9 0.6 1.5 1.9 1.2 2 1.6 5" transform="translate(-60 -237) translate(61 238) translate(70) translate(62 53)"/>
                    </g>
                </g>
                <path fill="#FFF" fill-rule="nonzero" d="M48 79.4l50.4 1.7 14.2 5.4-4.6 103.2-10.1 2.9-53.7-1.9-4-4.8s4.6-98.9 4.9-99.2c.3-.3 1-5.7 1-5.7l1.9-1.6z" transform="translate(-60 -237) translate(61 238)"/>
                <path fill="#FEAEAF" fill-rule="nonzero" d="M98.6 133.2L42.6 130.6 43.1 119.9 101.7 122.6z" transform="translate(-60 -237) translate(61 238)"/>
                <path fill="#FEAEAF" fill-rule="nonzero" d="M64.379 148.004H75.07900000000001V206.605H64.379z" transform="translate(-60 -237) translate(61 238) rotate(-87.302 69.729 177.304)"/>
                <path fill="#FEAEAF" fill-rule="nonzero" d="M102.3 133.1c.5-.1 7.7-1.3 7.7-1.3l.5-9.9-5.2 1.1-3 10.1zM99.9 183.3c.5-.1 7.7-1.3 7.7-1.3l.5-9.9-7.7 1.3-.5 9.9z" transform="translate(-60 -237) translate(61 238)"/>
                <g fill-rule="nonzero">
                    <g>
                        <path fill="#FFF" d="M6.3 8c-2.5.5-4.9-.6-5.3-2.5C.5 3.6 2.2 1.6 4.7 1c2.5-.5 4.9.6 5.3 2.5.4 1.9-1.2 3.9-3.7 4.5z" transform="translate(-60 -237) translate(61 238) translate(19 122) translate(1 1)"/>
                        <path fill="#000" d="M.7 5.6C.2 3.5 2 1.4 4.6.8c2.6-.6 5.2.6 5.6 2.7.2 1 0 2.1-.8 3-.7.9-1.8 1.5-3.1 1.8-2.4.5-4.8-.4-5.5-2.2 0-.2-.1-.4-.1-.5zm4-4.3C2.3 1.8.8 3.7 1.2 5.5c0 .1.1.3.1.4.6 1.6 2.8 2.4 4.9 1.9C7.4 7.5 8.4 7 9 6.2c.6-.8.9-1.7.7-2.5 0-.1-.1-.3-.1-.4C9 1.6 6.9.8 4.7 1.3z" transform="translate(-60 -237) translate(61 238) translate(19 122) translate(1 1)"/>
                    </g>
                    <path fill="#000" d="M1.5 2.7C.5 3.9.1 5.4.5 6.8c.1.2.1.4.2.6 1 2.4 3.9 3.7 6.9 3 1.5-.3 2.8-1.1 3.7-2.2 1-1.2 1.4-2.7 1-4.1-.1-.2-.1-.4-.2-.6-1-2.4-3.9-3.7-6.9-3-1.4.4-2.8 1.2-3.7 2.2zm1.8 3.5c-.1-.6.2-1.1.4-1.4.5-.6 1.3-1 2.2-1.2 1.7-.4 3.2.3 3.5 1.1 0 .1 0 .1.1.2.1.6-.2 1.1-.4 1.4-.5.6-1.3 1-2.2 1.2-1.7.4-3.2-.3-3.5-1.1 0-.1 0-.1-.1-.2z" transform="translate(-60 -237) translate(61 238) translate(19 122)"/>
                </g>
                <path fill="#000" fill-rule="nonzero" d="M68.53 153.557H70.63V211.658H68.53z" transform="translate(-60 -237) translate(61 238) rotate(-87.301 69.58 182.608)"/>
                <path fill="#000" fill-rule="nonzero" d="M71.37 91.739H73.47V149.839H71.37z" transform="translate(-60 -237) translate(61 238) rotate(-87.303 72.42 120.789)"/>
                <path fill="#000" fill-rule="nonzero" d="M101.6 123.3L101.2 121.2 111.9 119.6 112.3 121.7zM98.7 185L98.3 182.9 109 181.3 109.4 183.4zM82.1 185.9c.4-.9 1.4-1.2 2.2-.8l3.5 1.7c.8.4 1.1 1.4.7 2.3-.4.9-1.4 1.2-2.2.8l-3.5-1.7c-.8-.4-1.1-1.5-.7-2.3z" transform="translate(-60 -237) translate(61 238)"/>
                <g fill-rule="nonzero">
                    <path fill="#FFF" d="M3.6 9.8c-1.4-.7-1.8-2.9-.8-4.9 1-2 2.9-3.2 4.3-2.5 1.4.7 1.8 2.9.8 4.9-1 2-2.9 3.1-4.3 2.5z" transform="translate(-60 -237) translate(61 238) translate(75 179)"/>
                    <path fill="#000" d="M1.3 4.1C2.7 1.2 5.6-.3 7.8.8 10.1 1.9 10.7 5 9.3 8c-1.4 2.9-4.3 4.4-6.5 3.3C.6 10.2-.1 7.1 1.3 4.1zm5.1 2.5c.6-1.3.4-2.5-.1-2.7-.4-.2-1.5.3-2.1 1.6-.6 1.3-.4 2.5 0 2.7.6.2 1.6-.3 2.2-1.6z" transform="translate(-60 -237) translate(61 238) translate(75 179)"/>
                </g>
                <path fill="#000" fill-rule="nonzero" d="M62.3 196.9c-.8.5-1.8.4-2.3-.3l-2.2-3.1c-.5-.7-.3-1.8.5-2.3.8-.5 1.8-.4 2.3.4l2.2 3.1c.5.6.2 1.7-.5 2.2z" transform="translate(-60 -237) translate(61 238)"/>
                <g fill-rule="nonzero">
                    <path fill="#FFF" d="M9.7 3.1c.9 1.3.1 3.4-1.7 4.7-1.9 1.3-4.1 1.3-5 0-.9-1.3-.1-3.4 1.7-4.7 1.9-1.2 4.1-1.3 5 0z" transform="translate(-60 -237) translate(61 238) translate(57 193)"/>
                    <path fill="#000" d="M8.9 9.1C6.2 11 3 10.8 1.6 8.8c-1.4-2-.5-5.1 2.2-7 2.7-1.9 5.9-1.7 7.3.3 1.5 2.1.5 5.1-2.2 7zM5.7 4.5c-1.2.8-1.5 2-1.3 2.3.3.4 1.5.4 2.6-.4 1.2-.8 1.5-2 1.3-2.3-.2-.4-1.4-.4-2.6.4z" transform="translate(-60 -237) translate(61 238) translate(57 193)"/>
                </g>
                <path fill="#000" fill-rule="nonzero" d="M90.3 98.3c0 .9-.8 1.5-1.7 1.5-.9 0-1.6-.8-1.6-1.7 0-.9.8-1.5 1.7-1.5.9.1 1.6.8 1.6 1.7zM57.5 96.8c0 .9-.8 1.5-1.7 1.5-.9 0-1.6-.8-1.6-1.7 0-.9.8-1.5 1.7-1.5.9.1 1.6.8 1.6 1.7zM72 102.6h-.3c-5.2-.4-7.1-3.8-7.2-4-.1-.2-.1-.5 0-.7.1-.2.4-.3.7-.3l13.1.6c.2 0 .5.1.6.3.1.2.1.4 0 .7-.1.1-1.9 3.6-6.9 3.4zM66.7 99c.9.9 2.5 1.9 5.1 2.1 2.7.2 4.2-.8 5.1-1.7L66.7 99zM93.6 194.7c-.6 0-1.2-.5-1.4-1.1-.2-.8.3-1.6 1.1-1.9l13-3.6L111 87.9c-1.3-.5-3.5-1.4-5.8-2.3-1.7-.7-3.4-1.4-4.7-1.9-2.8-1.1-2.8-1.1-3-1.9-.1-.4-.1-.9.2-1.3.4-.7 1.4-.9 2.1-.5.9.4 8.7 3.5 13.4 5.4.6.2 1 .8 1 1.5l-4.8 102.4c0 .7-.5 1.2-1.1 1.4L94 194.6c-.1.1-.3.1-.4.1z" transform="translate(-60 -237) translate(61 238)"/>
                <path fill="#000" fill-rule="nonzero" d="M34.534 122.136H37.534V133.736H34.534z" transform="translate(-60 -237) translate(61 238) rotate(-85.621 36.035 127.936)"/>
                <path fill="#000" fill-rule="nonzero" d="M41 148.9c-1 0-2.4-.3-3.7-1.2-2.6-2-4-6.1-4-12.2 0-15 8-16.2 8.3-16.2l.4 3-.2-1.5.2 1.5c-.2 0-5.7 1-5.7 13.2 0 5 1 8.5 2.8 9.8 1.1.8 2.3.6 2.3.6l.8 2.9c-.2.1-.7.1-1.2.1z" transform="translate(-60 -237) translate(61 238)"/>
                <path d="M97.8 82.8l-47.2-2.2c-2.4-.1-4.4 1.7-4.5 3.9L41.4 185c-.1 2.3 1.7 4.2 4.1 4.3l47.2 2.2c2.4.1 4.4-1.7 4.5-3.9l1.9-40.3c-1.9-2.6-2.7-6.7-2.4-12 .3-6.1 1.8-9.9 3.5-12.2l1.7-35.9c.1-2.3-1.8-4.3-4.1-4.4z" transform="translate(-60 -237) translate(61 238)"/>
                <path fill="#000" fill-rule="nonzero" d="M99 147.2l-1.9 40.3c-.1 2.3-2.1 4-4.5 3.9l-47.2-2.2c-2.4-.1-4.2-2.1-4.1-4.3L46 84.5c.1-2.3 2.1-4 4.5-3.9l47.2 2.2c2.4.1 4.2 2.1 4.1 4.3l-1.7 35.9c1.1-1.4 2.2-2.3 3.2-2.8l1.6-33c.2-3.9-2.9-7.3-7-7.5l-47.2-2.2c-4-.2-7.5 2.9-7.7 6.8l-4.7 100.4c-.2 3.9 3 7.3 7 7.5l47.2 2.2c4 .2 7.5-2.9 7.7-6.8l1.8-37.9c-.6-.3-1.3-.8-2-1.5-.4-.2-.7-.6-1-1z" transform="translate(-60 -237) translate(61 238)"/>
                <path fill="#000" fill-rule="nonzero" d="M104.5 150.5c.9 0 1.5-.7 1.5-1.5s-.7-1.5-1.5-1.5c0 0-1.2 0-2.4-1.2l-.2 3.6c1.3.5 2.3.6 2.6.6zM108.1 127.7h-.2c-.8 0-1.4.8-1.4 1.6s.7 1.5 1.4 1.5h.2c1 0 6.1.4 6.6 8.2.1.8.7 1.4 1.4 1.4h.1c.8-.1 1.4-.8 1.3-1.7-.5-10.7-8.5-11-9.4-11zM165.9 139.4c-.8 0-1.4-.5-1.7-1.3-.3-.9.3-1.9 1.2-2.2 1.9-.6 4.5-2 4.6-3.2 0-.3-.2-2.2-6.4-5.3-.9-.4-1.2-1.5-.8-2.3.4-.9 1.5-1.2 2.3-.8 5.9 2.8 8.6 5.7 8.4 8.7-.3 4.2-6.4 6.1-7.1 6.3-.2.1-.4.1-.5.1z" transform="translate(-60 -237) translate(61 238)"/>
                <path fill="#000" fill-rule="nonzero" d="M121.5 172.3c-.5 0-.9-.2-1.3-.6-19.6-21.4-4.6-39.5-4.4-39.6.6-.7 1.7-.8 2.5-.2.7.6.8 1.7.2 2.5-.1.1-.6.7-1.2 1.6-2.9 4.5-8.8 17.6 5.5 33.4.6.7.6 1.8-.1 2.5-.4.2-.8.4-1.2.4z" transform="translate(-60 -237) translate(61 238)"/>
                <path fill="#000" fill-rule="nonzero" d="M112.9 172.8c-2.2 0-4.1-.5-4.5-.6-.9-.3-1.5-1.2-1.2-2.1.3-.9 1.2-1.5 2.1-1.2 1.8.5 5 .8 6.1-.1.2-.2.5-.4.5-1.1 0-1 .8-1.7 1.8-1.7s1.7.8 1.7 1.8c0 1.6-.7 2.9-1.9 3.8-1.2.9-3 1.2-4.6 1.2zM193.7 147.9s-.1 0 0 0c-1 0-1.8-.8-1.7-1.8.3-11.8-2.1-19.9-6.9-23.4-4.6-3.4-9.8-1.7-10-1.6-.9.3-1.9-.2-2.2-1.1-.3-.9.2-1.9 1.1-2.2.3-.1 7.1-2.3 13.2 2.1 5.9 4.3 8.7 13.2 8.4 26.4-.2.9-1 1.6-1.9 1.6zM187.1 168.5h-.6c-7.4-.7-7.7-2.7-7.8-3.4-.1-1 .5-1.8 1.5-2 .8-.1 1.5.3 1.8 1 .7.4 2.8.8 4.7 1 2.8.1 4.8-.6 6-2.2 2.7-3.4 1-9.9 1-10-.2-.9.3-1.9 1.2-2.1.9-.3 1.9.3 2.1 1.2.1.3 2.2 8.2-1.6 13-1.8 2.3-4.6 3.5-8.3 3.5z" transform="translate(-60 -237) translate(61 238)"/>
                <path fill="#000" fill-rule="nonzero" d="M194.1 165.6c-.9 0-1.6-.6-1.7-1.5-.1-1 .5-1.8 1.5-2 7.1-1 6.8-4.3 6.2-10.8l-.3-3.3c-.4-6.3-5.1-6.3-5.3-6.3-.9 0-1.7-.8-1.7-1.7 0-1 .8-1.8 1.7-1.8 2.9 0 8.3 1.9 8.8 9.6.1 1.1.2 2.2.3 3.2.6 6.4 1.3 13.1-9.1 14.6h-.4zM119.4 111.3c-.2 0-.3 0-.5-.1l-6-2.7c-.6-.3-.8-1-.6-1.5.3-.6 1-.8 1.5-.6l5.7 2.6 21.5-2.7 17.8-9c.3-.1.6-.2.9-.1l12.2 3.6c.6.2 1 .8.8 1.4-.2.6-.8 1-1.4.8l-11.8-3.5-17.6 8.9c-.1.1-.2.1-.4.1l-22.1 2.7c.1.1.1.1 0 .1zM150.3 79.4L129.6 82.7 137.6 72.9 142.3 72.5zM139.9 119.5c-.1 0-.2 0-.4-.1-.6-.2-.9-.9-.7-1.5.1-.3 1-2.8 2.9-3.1 1.3-.2 2.5.6 3.7 2.2.4.5.2 1.2-.3 1.6-.5.4-1.3.2-1.6-.3-.7-1.1-1.3-1.3-1.4-1.3-.4.1-.9.9-1.1 1.5-.1.7-.6 1-1.1 1zM118.9 122.6c-.1 0-.2 0-.4-.1-.6-.2-.9-.9-.7-1.5.1-.3 1-2.8 2.9-3.1 1.3-.2 2.5.6 3.7 2.2.4.5.2 1.2-.3 1.6-.5.4-1.2.2-1.6-.3-.7-1.1-1.3-1.3-1.4-1.3-.4.1-.9.9-1.1 1.5-.1.7-.6 1-1.1 1zM116.6 132.3c-.7 0-1.2-.6-1.2-1.2.2-5-4.4-6.6-4.5-6.7-.6-.2-.9-.9-.7-1.5.2-.6.9-.9 1.5-.7 2.2.7 6.3 3.5 6.1 9 0 .6-.5 1.1-1.2 1.1z" transform="translate(-60 -237) translate(61 238)"/>
                <g fill="#000" fill-rule="nonzero">
                    <path d="M18.7 5.1c0 2.6-2.1 4.6-4.6 4.6-2.6 0-4.6-2.1-4.6-4.6 0-2.5 2.1-4.6 4.6-4.6 2.6 0 4.6 2.1 4.6 4.6zM18.8 26.5c0 2.6-2.1 4.6-4.6 4.6-2.6 0-4.6-2.1-4.6-4.6 0-2.6 2.1-4.6 4.6-4.6 2.5 0 4.6 2.1 4.6 4.6zM27.4 15.9c0 2.3-1.9 4.2-4.2 4.2H5.1c-2.3 0-4.2-1.9-4.2-4.2 0-2.3 1.9-4.2 4.2-4.2h18.1c2.4 0 4.2 1.9 4.2 4.2z" transform="translate(-60 -237) translate(61 238) translate(16 25)"/>
                </g>
                <path fill="#000" fill-rule="nonzero" d="M154.4 29.8c0 2.3-1.9 4.2-4.2 4.2h-18.1c-2.3 0-4.2-1.9-4.2-4.2 0-2.3 1.9-4.2 4.2-4.2h18.1c2.3 0 4.2 1.9 4.2 4.2zM109 25.6h-4.9v-4.8c0-2.3-1.9-4.2-4.2-4.2-2.3 0-4.2 1.9-4.2 4.2v4.8h-4.8c-2.3 0-4.2 1.9-4.2 4.2 0 2.3 1.9 4.2 4.2 4.2h4.8v4.8c0 2.3 1.9 4.2 4.2 4.2 2.3 0 4.2-1.9 4.2-4.2V34h4.9c2.3 0 4.2-1.9 4.2-4.2 0-2.3-1.8-4.2-4.2-4.2zM213.2 68.2l3.4-3.4c1.6-1.6 1.6-4.3 0-5.9-1.6-1.6-4.3-1.6-5.9 0l-3.4 3.4-3.4-3.4c-1.6-1.6-4.3-1.6-5.9 0-1.6 1.6-1.6 4.3 0 5.9l3.4 3.4-3.4 3.4c-1.6 1.6-1.6 4.3 0 5.9 1.6 1.6 4.3 1.6 5.9 0l3.4-3.4 3.4 3.4c1.6 1.6 4.3 1.6 5.9 0 1.6-1.6 1.6-4.3 0-5.9l-3.4-3.4z" transform="translate(-60 -237) translate(61 238)"/>
                <path fill="#FFF" fill-rule="nonzero" d="M128 121.3l7.8-1.1s3.1 11.2-1.7 11.2-6.1-9.8-6.1-9.8" transform="translate(-60 -237) translate(61 238)"/>
                <path fill="#000" fill-rule="nonzero" d="M133.4 132.7c-5.3 0-6.5-10-6.7-11.1-.1-.6.4-1.2 1-1.3l8.2-1.1c.6-.1 1.1.3 1.3.8.2.7 2.1 6.9.1 10.4-.6 1.1-1.6 1.9-2.9 2.2-.3 0-.7.1-1 .1zm-4.2-10.3c.5 3.1 2 7.9 4.2 7.9.2 0 .3 0 .5-.1.6-.2 1.1-.5 1.4-1.1 1.1-1.9.5-5.6 0-7.6l-6.1.9z" transform="translate(-60 -237) translate(61 238)"/>
                <path fill="#5B5A59" fill-rule="nonzero" d="M173.9 117.2l.5 5.8s-12.9-2.3-14.9 10.5l-6.4 2.5s.3-21.3 20.3-18.9M155.5 142.6l4.5.5s3.8 14.9 19.2 15.3l1.6 8.9c-.1.1-22.3-4.1-25.3-24.7z" transform="translate(-60 -237) translate(61 238)"/>
                <path fill="#000" fill-rule="nonzero" d="M131.6 204.6c-4.8 0-6.7-3.8-7.1-5.9L111.4 106c-.1-.4 0-.9.3-1.2l23.3-33c.1-.2.3-.3.4-.4 1.7-1.2 3.2-1.7 4.6-1.7 1.5 0 2.4.7 2.8 1l29.8 25.5c.3.3.5.7.6 1.1l12.6 95.1c.4 2.9-3.4 4.7-4.5 5.2-.1.1-.3.1-.4.1l-47.9 6.8c-.5.1-.9.1-1.4.1zM115 106.3l13 91.9c.1.4.7 2.9 3.6 2.9.3 0 .5 0 .8-.1l47.7-6.8c1-.5 2-1.2 2.2-1.6l-12.5-94.3-29.3-25.1-.1-.1c-.1-.1-.8-.4-2.8.9L115 106.3z" transform="translate(-60 -237) translate(61 238)"/>
                <path fill="#000" fill-rule="nonzero" d="M178.6 160.2c-1.6 0-18.2-.5-20.3-20.5-.7-6.9.6-11.9 4.1-15.1 4.9-4.5 12.2-3.1 12.5-3 .9.2 1.5 1.1 1.4 2.1-.2.9-1.1 1.5-2.1 1.4-.1 0-5.9-1.1-9.5 2.2-2.6 2.3-3.6 6.4-3 12.1 1.9 17.7 16.3 17.4 16.9 17.4.9 0 1.8.7 1.8 1.7s-.7 1.8-1.7 1.8c0-.1 0-.1-.1-.1z" transform="translate(-60 -237) translate(61 238)"/>
                <path fill="#000" fill-rule="nonzero" d="M180.5 168c-2.1 0-24.9-.7-27.8-28.2-1-9.6.8-16.6 5.5-20.9 6.3-5.7 15.4-4 15.8-3.9.9.2 1.5 1.1 1.4 2.1-.2.9-1.1 1.5-2.1 1.4-.1 0-7.8-1.5-12.8 3.1-3.8 3.4-5.2 9.4-4.3 17.9 2.7 25.5 23.5 25.1 24.3 25 1 0 1.8.7 1.8 1.7s-.7 1.8-1.7 1.8h-.1z" transform="translate(-60 -237) translate(61 238)"/>
                <g fill-rule="nonzero">
                    <g>
                        <path fill="#FFF" d="M4.3 1.1C1.7 2 .1 4.2.8 6.1 1.4 8 4 8.8 6.6 8c2.6-.9 4.2-3.1 3.5-5C9.4 1.1 6.8.2 4.3 1.1z" transform="translate(-60 -237) translate(61 238) translate(109 146) translate(2 1)"/>
                        <path fill="#000" d="M.3 5.7C0 3.8 1.6 1.7 4.1.8 5.4.4 6.8.3 7.9.7c1.2.4 2 1.1 2.3 2.1.7 2-1 4.4-3.7 5.3C3.8 9 1 8.1.4 6c0 0 0-.2-.1-.3zm9.6-2.3c0-.1-.1-.3-.1-.4-.3-.8-1-1.5-2-1.8-1-.3-2.3-.3-3.5.1C2.1 2 .6 3.9.8 5.6c0 .1.1.3.1.4.6 1.8 3 2.5 5.5 1.7 2.3-.7 3.8-2.6 3.5-4.3z" transform="translate(-60 -237) translate(61 238) translate(109 146) translate(2 1)"/>
                    </g>
                    <path fill="#000" d="M9 10.4c3.1-1 5.1-3.7 4.7-6.3 0-.2-.1-.5-.2-.7C13 2 11.9.9 10.3.4c-1.4-.5-3-.4-4.6.1C2.6 1.5.6 4.2 1 6.8c0 .2.1.5.2.7.5 1.4 1.6 2.5 3.2 3 1.4.5 3.1.5 4.6-.1zm-4.9-4C4 5.5 5 4.1 6.7 3.6c.9-.3 1.9-.3 2.7-.1.4.1 1 .4 1.2 1v.2c.1.9-.9 2.3-2.6 2.8-.9.3-1.9.3-2.7.1-.4-.1-1-.4-1.2-1 .1-.1.1-.1 0-.2z" transform="translate(-60 -237) translate(61 238) translate(109 146)"/>
                </g>
                <g fill-rule="nonzero">
                    <g>
                        <path fill="#FFF" d="M4.4 1.1C1.8 2 .2 4.2.9 6.1 1.5 8 4.1 8.8 6.7 8c2.6-.9 4.2-3.1 3.5-5C9.6 1.1 7 .2 4.4 1.1z" transform="translate(-60 -237) translate(61 238) translate(153 133) translate(1 1)"/>
                        <path fill="#000" d="M.5 5.7C.2 3.8 1.8 1.7 4.3.8 5.6.4 7 .3 8.1.7c1.2.4 2 1.1 2.3 2.1.7 2-1 4.4-3.7 5.3C4 9 1.2 8.1.5 6v-.3zM10 3.5c0-.1-.1-.3-.1-.4-.3-.8-1-1.5-2-1.8-1-.3-2.3-.3-3.5.1C2.2 2.1.7 4 .9 5.7c0 .1.1.3.1.4.6 1.8 3 2.5 5.5 1.7C8.8 7 10.3 5.1 10 3.5z" transform="translate(-60 -237) translate(61 238) translate(153 133) translate(1 1)"/>
                    </g>
                    <path fill="#000" d="M8.1 10.4c3.1-1 5.1-3.7 4.7-6.3 0-.2-.1-.5-.2-.7C12.1 2 11 .9 9.4.4 8-.1 6.4 0 4.8.5 1.7 1.5-.3 4.2.1 6.8c0 .2.1.5.2.7.5 1.4 1.6 2.5 3.2 3 1.4.5 3.1.5 4.6-.1zm-4.8-4c-.1-.9.9-2.3 2.6-2.8.9-.3 1.9-.3 2.7-.1.4.1 1 .4 1.2 1v.2c.1.9-.9 2.3-2.6 2.8-.9.3-1.9.3-2.7.1-.4-.1-1-.4-1.2-1v-.2z" transform="translate(-60 -237) translate(61 238) translate(153 133)"/>
                </g>
                <path fill="#5B5A59" fill-rule="nonzero" d="M108.1 121.9s-10.7-5.3-10.2 16.3c0 0 1.5 13.7 8.1 9.5 0 .1-6.7-14.7 2.1-25.8z" transform="translate(-60 -237) translate(61 238)"/>
                <path fill="#000" fill-rule="nonzero" d="M99 147.2l1.1-24.2c-1.7 2.3-3.2 6-3.5 12.2-.2 5.4.6 9.4 2.4 12zM105.8 119.5c-.1 0-1.1.1-2.4.8l-.2 3.9c1.4-1.5 2.7-1.7 2.8-1.7.8-.1 1.4-.8 1.4-1.6-.1-.9-.8-1.5-1.6-1.4z" transform="translate(-60 -237) translate(61 238)"/>
                <path fill="#000" fill-rule="nonzero" d="M109.2 150.5c-.4 0-2.6-.1-4.5-2.1-2.5-2.5-3.6-7-3.3-13.1.8-15 8.8-15.7 9.1-15.8.8-.1 1.6.6 1.6 1.4.1.8-.6 1.5-1.4 1.6-.3 0-5.7.8-6.3 12.9-.3 6.5 1.1 9.4 2.4 10.8 1.2 1.3 2.4 1.3 2.4 1.3.8 0 1.5.7 1.5 1.5.1.7-.6 1.4-1.5 1.5.1 0 .1 0 0 0z" transform="translate(-60 -237) translate(61 238)"/>
                <path fill="#000" fill-rule="nonzero" d="M100.2 123.1l-1.1 24.2c.3.4.6.8.9 1.1.7.7 1.4 1.1 2 1.5l.2-3.6-.1-.1c-1.3-1.3-2.7-4.3-2.4-10.8.3-6.3 1.9-9.5 3.5-11.2l.2-3.9c-1 .5-2.2 1.3-3.2 2.8z" transform="translate(-60 -237) translate(61 238)"/>
                <path fill="#A0A0A0" fill-rule="nonzero" d="M195.4 151.5s-5.8-9.6-15-4.3l4.1 7.1s10.8 0 10.9-2.8z" transform="translate(-60 -237) translate(61 238)"/>
                <path fill="#000" fill-rule="nonzero" d="M187.1 156.8c-.8 0-1.8-.2-2.8-.7-1.8-1-2.9-2.8-3.4-5.6-.6-.6-1.2-1-1.5-1-.9.4-1.9.1-2.3-.8-.2-.3-.2-.7-.2-1 0-.6.2-1.1.7-1.4.2-.2 5.9-4.2 11.3-3 2.6.6 4.7 2.1 6.2 4.7.3.5 1.6 2.6.6 4.9-.8 1.9-3 3.1-6.5 3.6-.3.1-1.1.3-2.1.3zm-4.3-9.3c.4.4.8.8 1.1 1.2.2.2.3.5.4.8.2 1.3.7 2.9 1.8 3.5 1 .5 2.2.1 2.2.1.1-.1.3-.1.5-.1 3.2-.4 3.8-1.3 3.9-1.6.3-.6-.3-1.5-.3-1.5l-.1-.1c-1-1.7-2.3-2.7-3.9-3.1-1.9-.4-4 .1-5.6.8z" transform="translate(-60 -237) translate(61 238)"/>
            </g>
        </g>
    </g>
</svg>
