<svg xmlns="http://www.w3.org/2000/svg" width="156" height="60" viewBox="0 0 156 60">
    <g fill="none" fill-rule="evenodd">
        <g fill-rule="nonzero">
            <g>
                <path fill="#3241FF" d="M36.465 0h-.697C29.845 0 24.31 1.277 19.51 3.561c-.039.039-.078.039-.116.039C7.858 8.632 0 18.503 0 29.845 0 45.987 15.871 59.11 35.768 59.652v-5.149c18.193 0 32.903-12.193 32.903-27.251C68.671 12.387 54.31.31 36.465 0zm6.116 7.277c.193-.89.851-1.316 1.819-1.122.968.193 1.432.89 1.239 1.742-.194.89-.852 1.316-1.82 1.122-.967-.193-1.432-.851-1.238-1.742zm-3.213 2.865c.116-.58.58-1.123 1.393-.968l5.73 1.161c.85.155 1.044.852.928 1.433-.116.58-.58 1.161-1.432 1.006l-5.729-1.161c-.813-.155-1.006-.89-.89-1.471zM27.213 21.639c0-1.2.852-1.742 1.82-1.742.967 0 1.78.542 1.78 1.742v4.335c0 .426.116.503.503.503h9.29c1.046 0 1.433.775 1.433 1.471 0 .736-.426 1.549-1.433 1.549H29.923c-2.09 0-2.71-.736-2.71-2.787v-5.071zM8.516 34.219c0-.696.426-1.432 1.51-1.432h4.993v-3.406h-2.825c-2.13 0-2.71-.736-2.71-2.787V21.56c0-1.2.851-1.742 1.82-1.742.967 0 1.78.542 1.78 1.742v4.258c0 .426.116.504.503.504h9.29c1.046 0 1.433.774 1.433 1.47 0 .736-.426 1.549-1.433 1.549H18.62v3.406h4.994c1.084 0 1.47.736 1.47 1.433 0 .735-.425 1.432-1.47 1.432H10.026c-1.084.039-1.51-.658-1.51-1.394zm18.697 12.93h-1.626v1.548c0 .968-.658 1.432-1.355 1.432-.735 0-1.355-.464-1.355-1.432v-1.549h-1.625c-.852 0-1.2-.696-1.2-1.277 0-.62.31-1.239 1.2-1.239h1.625v-1.587c0-.968.62-1.432 1.355-1.432.736 0 1.355.464 1.355 1.432v1.587h1.626c.89 0 1.2.658 1.2 1.239.039.62-.31 1.277-1.2 1.277zm14.129-11.497H27.794c-1.084 0-1.51-.736-1.51-1.471 0-.736.426-1.51 1.51-1.51h13.548c1.084 0 1.51.774 1.51 1.51 0 .735-.426 1.47-1.51 1.47zm2.903-20.904c-.193.89-.851 1.317-1.82 1.123-.967-.194-1.431-.852-1.238-1.742.194-.89.852-1.316 1.82-1.123.967.155 1.393.852 1.238 1.742zm9.832 20.4h-6.812c-2.09 0-2.71-.735-2.71-2.748V21.794c0-1.2.851-1.704 1.82-1.704.967 0 1.741.542 1.741 1.704v9.832c0 .426.116.503.503.503h5.458c1.046 0 1.317.813 1.317 1.471 0 .697-.31 1.548-1.317 1.548zm6.04.852h-3.562V21.135c0-1.16.813-1.741 1.78-1.741.93 0 1.781.619 1.781 1.741V36z" transform="translate(-102 -75) translate(102 75)"/>
                <g fill="#000">
                    <path d="M17.535 16.8H6.116c-.464 0-.58-.077-.58-.542v-1.432c0-1.394-.93-2.09-2.09-2.09-1.162 0-2.169.658-2.169 2.09v2.129c0 2.245.62 3.058 2.981 3.058h13.277c1.278 0 1.781-.774 1.781-1.626 0-.813-.464-1.587-1.78-1.587zM16.684.31c-1.084 0-2.052.696-2.052 2.051v.116h-3.987C9.716 1.161 8.013.581 5.768.581 2.284.58 0 2.013 0 5.458v1.703c0 3.445 2.284 4.878 5.768 4.878 2.09 0 3.755-.542 4.722-1.704h4.142v4.878h4.18V2.4C18.775 1.045 17.73.31 16.685.31zm-9.29 6.813c0 1.083-.581 1.664-1.626 1.664s-1.626-.58-1.626-1.664V5.419c0-1.084.58-1.664 1.626-1.664 1.045 0 1.626.62 1.626 1.664v1.704zm7.2.154h-3.175v-1.78h3.175v1.78zM39.871 5.574h-.658V2.4c0-1.355-.968-2.09-2.052-2.09-1.122 0-2.051.696-2.051 2.09v12.774h4.103V9.213h.658c1.239 0 1.664-.968 1.664-1.82 0-.812-.387-1.819-1.664-1.819zM38.168 16.8H27.174c-.464 0-.58-.077-.58-.542v-1.51c0-1.393-.93-2.09-2.09-2.09-1.162 0-2.169.658-2.169 2.09v2.207c0 2.245.62 3.058 2.981 3.058h12.852c1.277 0 1.78-.774 1.78-1.626 0-.813-.503-1.587-1.78-1.587zM29.032 4.839c.078-.58.116-1.2.116-1.858v-.387c0-1.278-.929-1.936-2.013-1.936-1.122-.039-2.167.62-2.167 1.936v.387c0 3.135-1.162 4.8-3.29 5.496-.852.271-1.278 1.162-1.007 2.13.155.735 1.045 1.393 2.129 1.238 1.974-.27 3.948-1.548 5.148-3.793 1.278.31 1.858 1.548 1.742 3.56h4.065c.155-4.373-1.78-6.425-4.723-6.773zM53.42 3.91c.077-.426.154-.813.154-1.278.039-1.316-.735-2.129-1.935-2.245-1.162-.077-2.168.58-2.362 1.897-.425 3.02-2.942 4.993-5.69 5.497-1.084.193-1.626 1.006-1.548 2.013.077 1.045.929 1.625 1.974 1.625 2.864 0 6.039-1.625 7.935-4.18 2.478-.078 4.375 1.51 4.8 4.103h4.258C60.581 6.27 57.02 3.948 53.42 3.91zm6.193 8.322H43.47c-1.277 0-1.78.89-1.78 1.742s.503 1.703 1.78 1.703h5.923v4.49h4.296v-4.49h5.923c1.277 0 1.78-.851 1.78-1.703 0-.851-.503-1.742-1.78-1.742zM81.91 4.297h-.658V1.974H77.11v10.142h4.142v-4.22h.658c1.277 0 1.664-.928 1.664-1.819 0-.812-.387-1.78-1.664-1.78zm-3.523 8.555h-12.58c-1.162 0-1.82.658-1.82 1.664 0 1.007.658 1.665 1.82 1.665H76.76c.349 0 .504.193.504.503v3.368h4.219v-3.987c0-2.517-.465-3.213-3.097-3.213zm-2.555-9.29c0-.775-.464-1.55-1.548-1.55h-3.02c-.038-1.16-.89-1.896-2.129-1.896-1.238 0-2.09.697-2.09 1.897h-3.058c-1.045 0-1.548.813-1.548 1.548 0 .774.542 1.471 1.548 1.471-.27.426-.387.89-.387 1.394v1.239c0 3.058 2.594 4.374 5.535 4.374 2.942 0 5.536-1.355 5.536-4.374v-1.24c0-.502-.155-.967-.387-1.393 1.084 0 1.548-.697 1.548-1.47zM70.84 7.51c0 1.006-.852 1.548-1.742 1.548-.852 0-1.742-.542-1.742-1.548V6.426c0-1.007.851-1.549 1.742-1.549.851 0 1.742.542 1.742 1.549V7.51z" transform="translate(-102 -75) translate(102 75) translate(69.677 38.323)"/>
                </g>
                <path fill="#FED700" d="M152.516 31.587c0-2.052-1.626-3.716-3.677-3.716-2.013 0-3.678 1.664-3.678 3.716 0 .58.155 1.161.387 1.665.155.27.31.542.504.774.154.232.31.503.425.774.117.31.233.658.233.968v.619h4.18v-.542-.077c0-.349.116-.658.233-.968.116-.271.27-.542.425-.774.194-.232.349-.503.504-.774.348-.504.464-1.084.464-1.665z" transform="translate(-102 -75) translate(102 75)"/>
                <path fill="#FED700" d="M150.929 36.348v-.542-.077c0-.348.116-.658.232-.968.116-.27.271-.542.426-.774.194-.232.348-.503.503-.774.271-.503.387-1.084.387-1.665 0-2.051-1.625-3.716-3.677-3.716-2.013 0-3.677 1.665-3.677 3.716 0 .581.154 1.162.387 1.665.155.27.31.542.503.774.155.232.31.503.426.774.116.31.232.658.232.968v.619h4.258zM148.839 26.748c-.349 0-.62-.27-.62-.619v-1.355c0-.348.271-.62.62-.62.348 0 .62.272.62.62v1.355c0 .348-.272.62-.62.62zM146.129 27.445c-.232 0-.426-.116-.542-.31l-.697-1.2c-.155-.31-.077-.658.233-.851.31-.155.696-.078.851.232l.697 1.2c.155.31.077.658-.232.852-.078.038-.194.077-.31.077zM144.155 29.38c-.116 0-.194-.038-.31-.077l-1.2-.697c-.31-.154-.387-.541-.232-.851.155-.31.542-.387.852-.232l1.2.696c.31.155.387.542.232.852-.155.194-.349.31-.542.31zM153.484 29.535c-.232 0-.426-.116-.542-.31-.155-.309-.077-.657.232-.85l1.2-.698c.31-.154.697-.077.852.233.155.31.077.696-.232.851l-1.2.697c-.117.039-.194.077-.31.077zM151.548 27.523c-.116 0-.193-.04-.31-.078-.309-.155-.386-.542-.232-.851l.697-1.2c.155-.31.542-.388.852-.233.31.155.387.542.232.852l-.697 1.2c-.116.193-.348.31-.542.31zM146.787 37.355H150.89000000000001V38.903H146.787z" transform="translate(-102 -75) translate(102 75)"/>
                <g fill="#000">
                    <path d="M3.677 2.013c-.193-.078-.387-.155-.542-.271-.116-.039-.193-.116-.232-.155-.077-.039-.116-.116-.155-.155-.038-.077-.077-.116-.077-.232 0-.077-.039-.155-.039-.271V.542h-.348v.387c0 .116 0 .194-.039.271-.039.077-.039.155-.077.232-.039.078-.078.116-.155.155-.078.039-.155.078-.232.155-.155.077-.349.155-.542.27l-.58.233.154.271.58-.232c.194-.078.349-.155.465-.232.31-.155.542-.31.58-.426.04.116.233.27.581.426l.465.232.58.232.155-.27c-.193-.078-.348-.156-.542-.233zM.31 3.019v.31h1.935v1.665h.349V3.329h1.935v-.31H.309zM8.516 1.665V.387h-.348v2.865h.348V1.974h.697v-.31h-.697zM5.613 3.523v.31h2.516v1.2h.348v-1.51H5.613zm1.626-1.588c-.039-.077-.116-.193-.194-.232-.077-.077-.193-.116-.348-.155-.116-.038-.271-.077-.426-.077-.155 0-.31.039-.426.077-.116.04-.232.078-.348.155-.078.078-.155.155-.194.232-.038.078-.077.194-.077.31v.194c0 .116.039.193.077.31.039.077.116.193.194.232.077.077.193.116.348.154.116.04.271.078.426.078.155 0 .31-.039.426-.078.116-.038.232-.116.348-.154.078-.078.155-.155.194-.233.038-.077.077-.193.077-.31v-.193c0-.116-.039-.232-.077-.31zm-.271.465c0 .077 0 .116-.039.194-.039.038-.077.116-.155.154-.077.04-.155.078-.232.117-.077.038-.194.038-.31.038-.116 0-.193 0-.31-.038-.077-.04-.154-.078-.232-.117-.077-.038-.116-.077-.155-.154-.038-.078-.038-.117-.038-.194v-.155c0-.077.038-.116.038-.193.04-.078.078-.117.155-.155.078-.039.116-.078.233-.116.077-.04.193-.04.31-.04.115 0 .193 0 .309.04l.232.116c.078.038.116.077.155.155.039.077.039.116.039.193V2.4zM6.426.929v-.58h-.349v.58H4.955v.31h2.632v-.31H6.426zM13.006.387v4.607h.349V.387h-.349zm-.89.89c-.077-.116-.155-.232-.27-.31-.117-.077-.233-.154-.388-.193-.155-.039-.31-.077-.464-.077-.155 0-.31.038-.465.077-.155.039-.27.116-.387.194-.116.077-.194.193-.271.31-.077.116-.077.232-.077.387v.232c0 .155.038.27.077.387.077.116.155.232.27.31.117.077.233.154.388.193.155.039.31.078.465.078.154 0 .31-.04.464-.078.155-.039.271-.116.387-.193.116-.078.194-.194.271-.31.078-.116.078-.232.078-.387v-.232c.038-.117 0-.271-.078-.388zm-.232.62c0 .077-.039.193-.078.27-.038.078-.116.156-.193.233-.078.077-.155.116-.271.155-.116.039-.194.039-.31.039-.116 0-.232 0-.31-.04-.116-.038-.193-.077-.27-.154-.078-.077-.155-.116-.194-.232-.039-.078-.077-.155-.077-.271v-.194c0-.077.038-.193.077-.27.039-.078.116-.156.194-.233.077-.077.193-.116.27-.155.117-.039.194-.039.31-.039.116 0 .233.04.31.04.116.038.193.077.27.154.078.077.156.116.194.232.04.078.078.155.078.271v.194zm.774 1.664c-.193 0-.387.039-.62.039-.193 0-.425.039-.657.039H9.6v.31H11.381c.232 0 .464-.04.658-.04.193 0 .426-.038.62-.038v-.31zM18.735.387v4.607h.349V.387h-.349zm-1.122 2.671l-.387-.387c-.078-.077-.116-.155-.155-.194-.039-.077-.077-.116-.077-.193-.04-.078-.04-.116-.04-.194V.735h-.348V2.09c0 .078-.038.155-.038.233l-.116.232c-.04.077-.117.155-.194.232-.116.116-.232.271-.387.387-.155.116-.31.271-.465.426l.233.232c.077-.077.155-.116.232-.193l.232-.233c.078-.077.116-.154.194-.193l.155-.155.116-.116c.038-.039.077-.077.116-.155.039-.039.077-.077.077-.116.039-.039.039-.077.039-.077 0 .038.039.077.116.154.078.078.116.155.194.233l.348.348.426.426.232-.232c-.193-.155-.348-.31-.503-.465zM23.497 1.548V.388h-.349v2.67h.349v-1.2h.697v-.31h-.697zM20.632 3.33v.31h2.516v1.393h.349V3.33h-2.865zm1.51-1.045c-.116-.078-.232-.194-.31-.232-.077-.078-.155-.117-.193-.194-.039-.039-.078-.116-.116-.155-.04-.038-.04-.116-.04-.155V.968h1.007v-.31h-2.4v.31h1.045V1.548c0 .078-.038.117-.038.155-.039.039-.039.116-.078.155-.038.039-.077.116-.154.155-.117.116-.271.232-.426.348l-.465.349.232.232c.04-.039.117-.077.194-.155.077-.039.155-.116.194-.155.077-.038.116-.116.193-.155.078-.038.116-.077.155-.116.116-.077.193-.193.27-.27.078-.078.117-.156.117-.156 0 .04.039.078.155.155.077.078.193.155.31.271.077.078.154.116.27.233.117.077.194.154.31.232l.194-.232c-.155-.078-.271-.194-.426-.31zM28.026 4.026L28.026 2.787 29.419 2.787 29.419 2.477 26.71 2.477 26.71.774 26.323.774 26.323 2.826 27.677 2.826 27.677 4.065 25.742 4.065 25.742 4.374 29.961 4.374 29.961 4.065 28.026 4.065zM31.277 2.555V.775h-.348v2.09h3.097v-.31h-2.749zm-.967 1.47v.31h4.219v-.31h-4.22zM38.323.387v4.607h.348V.387h-.348zm-.504 2.903c-.27.039-.542.078-.774.078-.27.038-.503.038-.735.038h-.658V.774h-.349v2.942h.968c.232 0 .503 0 .774-.039.271-.038.542-.038.813-.116l-.039-.27zM42.929.387v.658h-.813v.31h.813v.774h-.813v.31h.813v1.238h.348V.387h-.348zm-2.09 4.22v-1.2h-.349v1.51h2.942v-.31H40.84zm.967-3.368c-.038-.116-.116-.233-.232-.31l-.348-.232c-.155-.078-.31-.078-.465-.078-.155 0-.31.04-.464.078-.155.077-.271.116-.349.232-.116.077-.193.194-.232.31-.039.116-.077.232-.077.387v.31c0 .116.038.232.077.348.039.116.116.232.232.31.117.077.233.193.349.232.155.077.31.077.464.077.155 0 .31-.038.465-.077.155-.039.27-.116.348-.232.116-.078.155-.194.232-.31.04-.116.078-.232.078-.349v-.31c0-.154-.039-.27-.078-.386zm-.27.658c0 .077-.04.193-.04.27-.038.078-.077.156-.154.233-.077.077-.155.116-.232.155-.078.039-.194.077-.31.077-.116 0-.232-.038-.31-.077-.077-.039-.193-.078-.232-.155-.077-.077-.116-.155-.155-.232-.038-.078-.077-.194-.077-.271v-.232c0-.078.039-.194.077-.271.039-.078.078-.155.155-.233.077-.077.155-.116.232-.155.078-.038.194-.077.31-.077.116 0 .232.039.31.077.077.04.193.078.232.155.077.078.116.155.155.233.038.077.038.193.038.27v.233zM47.652 1.703V.387h-.349v3.29h.349V2.052h.696v-.31h-.696v-.039zm-2.4 2.903V3.368h-.349v1.548h2.903v-.31h-2.554zm1.045-2.167c-.116-.116-.271-.194-.387-.31l-.194-.194c-.039-.038-.077-.116-.116-.154-.039-.04-.039-.116-.039-.194V.62h-.348v.968c0 .078-.039.116-.039.194-.039.077-.077.116-.116.193-.039.078-.116.116-.193.194-.117.116-.233.232-.388.348-.154.116-.31.232-.425.349l.232.27c.155-.116.27-.232.426-.348.155-.116.232-.232.348-.31l.271-.27c.077-.078.116-.117.116-.194.039.077.155.193.387.426.078.077.194.155.31.232.116.077.232.194.348.27l.194-.231c-.155-.078-.271-.155-.387-.271zM51.948 2.013c-.193-.078-.387-.155-.542-.271-.077-.039-.193-.116-.232-.155-.077-.039-.116-.116-.155-.155-.038-.077-.077-.116-.077-.232 0-.077-.039-.155-.039-.271V.542h-.348v.387c0 .116 0 .194-.039.271 0 .077-.039.155-.077.232-.039.078-.078.116-.155.155-.078.039-.155.078-.232.155-.155.077-.349.155-.542.27l-.581.233.155.271.58-.232c.194-.078.349-.155.465-.232.348-.155.542-.31.58-.426.04.116.233.27.581.426l.465.232.58.232.155-.27c-.155-.078-.348-.156-.542-.233zM48.62 3.019v.31h1.936v1.665h.348V3.329h1.936v-.31h-4.22zM56.826 1.665V.387h-.349v2.865h.349V1.974h.697v-.31h-.697zm-2.903 1.858v.31h2.516v1.2h.348v-1.51h-2.864zm1.625-1.588c-.038-.077-.116-.193-.193-.232-.078-.077-.194-.116-.349-.155-.116-.038-.27-.077-.425-.077-.155 0-.31.039-.426.077-.116.04-.232.078-.349.155-.077.078-.154.155-.193.232-.039.078-.078.194-.078.31v.194c0 .116.04.193.078.31.039.077.116.193.193.232.078.077.194.116.349.154.116.04.27.078.426.078.154 0 .31-.039.425-.078.117-.038.233-.116.349-.154.077-.078.155-.155.193-.233.04-.077.078-.193.078-.31v-.193c0-.116-.039-.232-.078-.31zm-.27.465c0 .077 0 .116-.04.194-.038.038-.077.116-.154.154l-.232.117c-.078.038-.194.038-.271.038-.116 0-.194 0-.31-.038-.077-.04-.155-.078-.232-.117-.078-.038-.116-.077-.155-.154-.039-.078-.039-.117-.039-.194v-.155c0-.077 0-.116.039-.193.039-.078.077-.117.155-.155l.232-.116c.077-.04.194-.04.31-.04.116 0 .193 0 .27.04l.233.116c.077.038.116.077.155.155.038.077.038.116.038.193V2.4zM54.734.929v-.58h-.348v.58h-1.122v.31h2.632v-.31h-1.162z" transform="translate(-102 -75) translate(102 75) translate(72 31.355)"/>
                </g>
            </g>
        </g>
    </g>
</svg>
