<svg xmlns="http://www.w3.org/2000/svg" xmlns:xlink="http://www.w3.org/1999/xlink" width="178" height="187" viewBox="0 0 178 187">
    <defs>
        <path id="qsv86gsaoa" d="M0 0H154V187H0z"/>
        <path id="sk7hrzr4ac" d="M0.178 0.185L23.155 0.185 23.155 22.711 0.178 22.711z"/>
        <path id="a1y9rdubqe" d="M0.731 0.57L7.318 0.57 7.318 7.2 0.731 7.2z"/>
    </defs>
    <g fill="none" fill-rule="evenodd">
        <g transform="translate(1) translate(22.604)">
            <mask id="dlc6rc6r5b" fill="#fff">
                <use xlink:href="#qsv86gsaoa"/>
            </mask>
            <g mask="url(#dlc6rc6r5b)">
                <g>
                    <path fill="#000" d="M70.213 66.701s23.567 11.326 32.401-5.252c8.836-16.575-5.252-36.927-16.696-39.88-11.443-2.955-20.46 29.54-15.705 45.132M60.17 68.049s-10.38 7.674-26.248 1.795c-15.867-5.877-6.114-34.612 0-43.428 6.117-8.817 19.846-14.204 25.956-11.43 6.111 2.777 11.149 35.05.292 53.063" transform="matrix(-1 0 0 1 138.757 28.508)"/>
                    <g transform="matrix(-1 0 0 1 138.757 28.508) translate(17.378)">
                        <mask id="vp6fya1csd" fill="#fff">
                            <use xlink:href="#sk7hrzr4ac"/>
                        </mask>
                        <path fill="#000" d="M23.155 11.447c0 6.22-5.143 11.264-11.487 11.264-6.345 0-11.49-5.043-11.49-11.264C.178 5.228 5.323.185 11.668.185c6.344 0 11.487 5.043 11.487 11.262" mask="url(#vp6fya1csd)"/>
                    </g>
                    <path fill="#FFF" d="M95.522 44.468s-3.796-8.548-6.996-8.018c-3.2.532-2.3 6.078-1.86 9.096.441 3.016 1.925 6.84-1.44 10.37-3.365 3.53 13.246-1.75 10.296-11.448" transform="matrix(-1 0 0 1 138.757 28.508)"/>
                    <path stroke="#000" d="M95.522 44.468s-3.796-8.548-6.996-8.018c-3.2.532-2.3 6.078-1.86 9.096.441 3.016 1.925 6.84-1.44 10.37-3.365 3.53 13.246-1.75 10.296-11.448z" transform="matrix(-1 0 0 1 138.757 28.508)"/>
                    <path fill="#FFF" d="M77.791 19.797H68.08c-6.456 0-11.74 5.959-11.74 13.243v14.917c0 .42.023.835.058 1.246-.105.44-.167.896-.167 1.366v18.667c0 3.297 2.72 5.992 6.047 5.992h3.852c3.327 0 6.048-2.695 6.048-5.992V61.2h5.614c6.458 0 11.74-5.959 11.74-13.243V33.04c0-7.284-5.282-13.243-11.74-13.243" transform="matrix(-1 0 0 1 138.757 28.508)"/>
                    <path stroke="#000" d="M77.791 19.797H68.08c-6.456 0-11.74 5.959-11.74 13.243v14.917c0 .42.023.835.058 1.246-.105.44-.167.896-.167 1.366v18.667c0 3.297 2.72 5.992 6.047 5.992h3.852c3.327 0 6.048-2.695 6.048-5.992V61.2h5.614c6.458 0 11.74-5.959 11.74-13.243V33.04c0-7.284-5.282-13.243-11.74-13.243z" transform="matrix(-1 0 0 1 138.757 28.508)"/>
                    <path fill="#E4B0C8" d="M62.573 45.929c0 3.061 2.485 5.543 5.55 5.543 3.066 0 5.55-2.482 5.55-5.543 0-3.062-2.484-5.543-5.55-5.543-3.065 0-5.55 2.481-5.55 5.543M87.843 42.761c.31 0 .608.04.896.112v5.394c0 .807-.03 1.588-.188 2.347-.211.037-.486.066-.708.066-2.133 0-3.862-1.773-3.862-3.959 0-2.187 1.73-3.96 3.862-3.96" transform="matrix(-1 0 0 1 138.757 28.508)"/>
                    <path fill="#0C0C0C" d="M69.71 38.01c0 1.313 1.064 2.376 2.378 2.376s2.378-1.063 2.378-2.376c0-1.312-1.064-2.375-2.378-2.375s-2.379 1.063-2.379 2.375M84.774 37.615c0 1.093.887 1.979 1.982 1.979 1.096 0 1.983-.886 1.983-1.98 0-1.094-.887-1.98-1.983-1.98-1.095 0-1.982.886-1.982 1.98" transform="matrix(-1 0 0 1 138.757 28.508)"/>
                    <path fill="#FFF7F7" d="M83.188 47.743s-1.133 3.476-3.528 3.715c-2.394.237-4.27-2.556-4.4-4.737l7.928 1.022z" transform="matrix(-1 0 0 1 138.757 28.508)"/>
                    <path fill="#0C0C0C" d="M81.873 47.327c-.027.076-.059.152-.09.228.079-.197-.035.08-.065.143-.057.122-.116.242-.177.358-.3.568-.62 1.036-1.083 1.46-.488.444-1.122.716-1.81.611-.75-.112-1.383-.6-1.856-1.17-.542-.651-.938-1.517-1-2.36l-.663.663 6.465.794.917.113c.355.044.663-.337.663-.665 0-.395-.306-.619-.663-.663l-6.464-.794-.918-.113c-.338-.04-.686.339-.661.665.148 2 1.486 4.1 3.454 4.718 1.929.606 3.588-.628 4.55-2.213.269-.446.507-.928.677-1.423.28-.809-1-1.157-1.276-.352" transform="matrix(-1 0 0 1 138.757 28.508)"/>
                    <path fill="#DB7294" d="M80.416 35.635L80.017 42.761 83.188 40.688z" transform="matrix(-1 0 0 1 138.757 28.508)"/>
                    <path fill="#000" d="M53.51 17.482l.009-.011c.383-5.571 3.603-10.73 7.736-10.803 9.118-.164 8.944 6.551 8.944 6.551 15.575-19.001 35.654-7.698 29.189 6.248C92.923 33.412 67.932 31.24 67.932 31.24c-1.28.03-2.473-.407-3.552-.194-2.963.591-5.029 4.196-5.92 8.785-2.22 11.394-10.872-13.501-4.95-22.349" transform="matrix(-1 0 0 1 138.757 28.508)"/>
                    <path fill="#000" d="M52.233 34.843c1.441 0 2.799.358 3.997.984v2.386c-1.116-.838-2.497-1.34-3.997-1.34-3.683 0-6.681 2.997-6.681 6.68 0 3.684 2.998 6.681 6.681 6.681 1.5 0 2.881-.502 3.997-1.34v2.385c-1.198.626-2.556.985-3.997.985-4.791 0-8.69-3.907-8.69-8.71 0-4.804 3.899-8.711 8.69-8.711" transform="matrix(-1 0 0 1 138.757 28.508)"/>
                    <path fill="#FFF" d="M44.336 43.157c0 4.155 3.374 7.523 7.533 7.523 4.16 0 7.532-3.368 7.532-7.523 0-4.155-3.372-7.522-7.532-7.522s-7.533 3.367-7.533 7.522" transform="matrix(-1 0 0 1 138.757 28.508)"/>
                    <path fill="#020202" d="M57.014 44.292c.04-.66-.064-1.36-.233-1.992-.345-1.278-1.121-2.441-2.29-3.007-.943-.457-1.982-.562-3.008-.45-.416.046-.823.357-.803.846.019.42.356.895.803.846.436-.048.875-.061 1.312-.016.018.003.123.027.134.016-.032.036-.183-.03-.007.003.083.016.166.033.247.053.17.041.333.097.498.158.205.076-.141-.079.052.025.063.033.128.064.19.102.061.034.12.071.18.11.03.019.173.15.199.144-.047.009-.159-.137-.055-.043.026.022.05.045.076.065.048.045.095.091.14.138.092.095.173.244.274.32-.133-.101-.095-.138-.036-.05.014.023.028.042.042.063.034.052.068.105.1.158.068.115.13.233.188.355.028.06.05.122.079.18.045.093-.083-.22-.035-.088.01.029.022.056.031.084.046.122.086.247.122.374.06.212.107.429.142.648l.022.141c.028.186-.026-.242-.008-.061.01.09.018.182.025.271.015.2.024.405.013.607-.027.441.387.865.803.844.458-.02.775-.37.803-.844" transform="matrix(-1 0 0 1 138.757 28.508)"/>
                    <path fill="#E4B0C8" d="M.727 146.497c5.966-46.262 46.605-80.195 74.03-70.353 21.82 7.833 31.391 51.196 34.597 70.353H.727z" transform="matrix(-1 0 0 1 138.757 28.508)"/>
                    <path stroke="#020106" d="M.727 146.497c5.966-46.262 46.605-80.195 74.03-70.353 21.82 7.833 31.391 51.196 34.597 70.353H.727z" transform="matrix(-1 0 0 1 138.757 28.508)"/>
                    <path fill="#DB7294" d="M56.58 79.98h15.157c3.258 0 5.901-2.662 5.901-5.947v-1.569c0-3.285-2.643-5.946-5.901-5.946H56.581c-3.259 0-5.902 2.661-5.902 5.946v1.57c0 3.284 2.643 5.946 5.902 5.946" transform="matrix(-1 0 0 1 138.757 28.508)"/>
                    <path stroke="#020106" d="M56.58 79.98h15.157c3.258 0 5.901-2.662 5.901-5.947v-1.569c0-3.285-2.643-5.946-5.901-5.946H56.581c-3.259 0-5.902 2.661-5.902 5.946v1.57c0 3.284 2.643 5.946 5.902 5.946zM74.466 67.31L74.466 79.188M71.295 66.518L71.295 79.98M68.123 66.518L68.123 79.98M64.952 66.518L64.952 79.98M61.78 66.518L61.78 79.98M58.608 66.518L58.608 79.98M55.437 66.518L55.437 79.98M52.265 67.31L52.265 78.396" transform="matrix(-1 0 0 1 138.757 28.508)"/>
                    <path fill="#FFF" d="M20.135 38.903c1.426-.949 2.883 4.976 3.609 8.903-.263-3.242-.545-8.494.682-8.87 1.305-.4 2.625 5.3 3.256 8.795-.263-3.24-.578-8.697.58-8.793 1.488-.123 2.592 4.896 3.226 8.795-.37-3.407-.57-7.556.61-7.79 2.02-.401 2.626 2.01 3.634 7.636 1.011 5.628 2.626 9.447 10.3 12.663 6.711 2.812 14.662 6.858 22.091 31.385L46.44 92.65c-.028-.622-.058-1.243-.097-1.86-1.507-22.912-14.447-22.109-20.58-26.73-6.135-4.623-8.404-23.314-5.628-25.157" transform="matrix(-1 0 0 1 138.757 28.508)"/>
                    <path stroke="#020106" d="M20.135 38.903c1.426-.949 2.883 4.976 3.609 8.903-.263-3.242-.545-8.494.682-8.87 1.305-.4 2.625 5.3 3.256 8.795-.263-3.24-.578-8.697.58-8.793 1.488-.123 2.592 4.896 3.226 8.795-.37-3.407-.57-7.556.61-7.79 2.02-.401 2.626 2.01 3.634 7.636 1.011 5.628 2.626 9.447 10.3 12.663 6.711 2.812 14.662 6.858 22.091 31.385L46.44 92.65c-.028-.622-.058-1.243-.097-1.86-1.507-22.912-14.447-22.109-20.58-26.73-6.135-4.623-8.404-23.314-5.628-25.157z" transform="matrix(-1 0 0 1 138.757 28.508)"/>
                    <path fill="#E4B0C8" d="M31.65 146.497c9.597-12.372 16.033-34.815 15.04-54.91l21.182-1.313c1.141 3.693 2.27 7.852 3.38 12.58 4.731 20.154 1.652 34.836-1.785 43.643H31.65z" transform="matrix(-1 0 0 1 138.757 28.508)"/>
                    <path stroke="#020106" d="M31.65 146.497c9.597-12.372 16.033-34.815 15.04-54.91l21.182-1.313c1.141 3.693 2.27 7.852 3.38 12.58 4.731 20.154 1.652 34.836-1.785 43.643H31.65z" transform="matrix(-1 0 0 1 138.757 28.508)"/>
                    <path fill="#DB7294" d="M69.71 96.61H46.542c.018-2.027-.034-4.04-.17-6.023-.1-1.477-.255-2.843-.45-4.125l20.25-.94c1.19 3.221 2.37 6.882 3.536 11.087" transform="matrix(-1 0 0 1 138.757 28.508)"/>
                    <path stroke="#020106" d="M69.71 96.61H46.542c.018-2.027-.034-4.04-.17-6.023-.1-1.477-.255-2.843-.45-4.125l20.25-.94c1.19 3.221 2.37 6.882 3.536 11.087zM62.573 85.523L64.952 96.609M58.608 85.523L60.194 96.609M54.209 85.523L55.078 96.609M50.438 86.315L50.921 96.609" transform="matrix(-1 0 0 1 138.757 28.508)"/>
                    <path fill="#FFF" d="M92.736 47.634c.886-5.096-4.125-10.572-2.455-11.866 1.67-1.292 10.923 6.997 8.3 15.356-2.62 8.36-12.16 9.841-8.809 22.344 1.188 4.441 3.777 10.496 7.006 17.046l-21.748.552c-1.42-15.013.086-26.022 1.835-29.631 2.059-4.253 14.986-8.707 15.87-13.801" transform="matrix(-1 0 0 1 138.757 28.508)"/>
                    <path stroke="#000" d="M92.736 47.634c.886-5.096-4.125-10.572-2.455-11.866 1.67-1.292 10.923 6.997 8.3 15.356-2.62 8.36-12.16 9.841-8.809 22.344 1.188 4.441 3.777 10.496 7.006 17.046l-21.748.552c-1.42-15.013.086-26.022 1.835-29.631 2.059-4.253 14.986-8.707 15.87-13.801z" transform="matrix(-1 0 0 1 138.757 28.508)"/>
                    <path fill="#E4B0C8" d="M89.94 147.29c-4.087-11.65-11.47-33.8-13.571-47.476-.494-3.223-.856-6.311-1.11-9.244l20.378-1.88c5.821 12.375 14.3 27.064 20.138 36.097 4.468 6.916 6.824 15.34 7.058 22.502H89.94z" transform="matrix(-1 0 0 1 138.757 28.508)"/>
                    <path stroke="#020106" d="M89.94 147.29c-4.087-11.65-11.47-33.8-13.571-47.476-.494-3.223-.856-6.311-1.11-9.244l20.378-1.88c5.821 12.375 14.3 27.064 20.138 36.097 4.468 6.916 6.824 15.34 7.058 22.502H89.94z" transform="matrix(-1 0 0 1 138.757 28.508)"/>
                    <path fill="#DB7294" d="M75.47 96.61c-.513-3.934-.835-7.644-1.004-11.087h19.526c1.487 3.335 3.207 6.893 5.054 10.514l-23.576.572z" transform="matrix(-1 0 0 1 138.757 28.508)"/>
                    <path stroke="#000" d="M75.47 96.61c-.513-3.934-.835-7.644-1.004-11.087h19.526c1.487 3.335 3.207 6.893 5.054 10.514l-23.576.572zM91.117 85.523L94.289 96.609M87.153 85.523L88.739 95.817M83.64 85.523L84.323 96.609M78.697 85.523L79.751 96.609" transform="matrix(-1 0 0 1 138.757 28.508)"/>
                </g>
            </g>
        </g>
        <g>
            <g transform="translate(1) translate(145 94) translate(23.051 12.134)">
                <mask id="l0zick0o7f" fill="#fff">
                    <use xlink:href="#a1y9rdubqe"/>
                </mask>
                <path fill="#D96980" d="M7.319 3.885c0 1.83-1.475 3.315-3.294 3.315C2.205 7.2.73 5.715.73 3.885.731 2.055 2.205.57 4.025.57s3.294 1.484 3.294 3.315" mask="url(#l0zick0o7f)"/>
            </g>
            <path stroke="#672ED6" d="M8.353 4.403c0 2.211-1.782 4.003-3.978 4.003-2.197 0-3.977-1.792-3.977-4.003C.398 2.193 2.178.4 4.375.4c2.196 0 3.978 1.792 3.978 4.003z" transform="translate(1) translate(145 94)"/>
        </g>
        <g>
            <g>
                <path stroke="#D96980" d="M12.13 27.041c0 3.182-2.626 5.76-5.865 5.76-3.24 0-5.865-2.578-5.865-5.76 0-3.181 2.626-5.76 5.865-5.76 3.239 0 5.865 2.579 5.865 5.76z" transform="translate(1) translate(.604 88) translate(4 15)"/>
                <path stroke="#EEDA36" d="M14.67.43s6.638-.64 8.375 3.477c1.738 4.118 2.433 8.104 12.858 3.04" transform="translate(1) translate(.604 88) translate(4 15)"/>
            </g>
            <g stroke="#DB7294" stroke-linecap="round" stroke-linejoin="round" stroke-width=".75">
                <path d="M3.898.3L3.898 7.496M.3 3.898L7.495 3.898" transform="translate(1) translate(.604 88)"/>
            </g>
        </g>
    </g>
</svg>
