<svg xmlns="http://www.w3.org/2000/svg" width="16" height="16" viewBox="0 0 16 16">
    <path fill="#919191" fill-rule="evenodd" d="M8.84 11.185L9.097 13H6.9l.284-1.82c-.547-.299-.893-.822-.893-1.454 0-.952.774-1.698 1.724-1.698S9.74 8.76 9.74 9.712c0 .636-.349 1.173-.9 1.473M13.143 7H5.426c0-1.082.178-2.724.986-3.619.403-.449.934-.667 1.622-.667.83 0 1.989.248 2.45 2.4.1.461.555.761 1.017.658.463-.1.758-.555.659-1.019C11.64 2.333 10.175 1 8.034 1c-1.185 0-2.16.416-2.896 1.233C3.911 3.595 3.714 5.76 3.713 7h-.856C2.387 7 2 7.385 2 7.857v6c0 .47.387.857.857.857h10.286c.471 0 .857-.386.857-.857v-6c0-.472-.386-.857-.857-.857"/>
</svg>
