<svg enable-background="new 0 0 64 64" height="512" viewBox="0 0 64 64" width="512" xmlns="http://www.w3.org/2000/svg"><g id="Icons"><g><path d="m42.017 20.592c-2.149 3.254-5.834 5.408-10.017 5.408-4.537 0-8.492-2.531-10.532-6.255-1.644-1.121-3.591-1.745-5.61-1.745h-1.858l.69 2.07c.581 1.743.654 3.595.257 5.358-1.453 1.872-2.436 4.117-2.788 6.572h-2.159c-1.105 0-2 .895-2 2v6c0 1.105.895 2 2 2h2.587c1.138 3.821 3.865 6.946 7.413 8.635v3.365c0 1.105.895 2 2 2h2c1.105 0 2-.895 2-2v-2h12v2c0 1.105.895 2 2 2h2c1.105 0 2-.895 2-2v-3.365c4.726-2.249 8-7.053 8-12.635v-4c0-6.335-4.21-11.681-9.983-13.408z" fill="#fa6450"/></g><g><path d="m24 54v-3.365c-3.548-1.688-6.275-4.814-7.413-8.635h-2.587c-1.105 0-2-.895-2-2v-6c0-1.105.895-2 2-2h2.159c.352-2.455 1.335-4.7 2.788-6.571.397-1.763.324-3.615-.257-5.358l-.605-1.814c-.724-.169-1.47-.257-2.227-.257h-1.858l.69 2.07c.581 1.743.654 3.595.257 5.358-1.453 1.872-2.436 4.117-2.788 6.572h-2.159c-1.105 0-2 .895-2 2v6c0 1.105.895 2 2 2h2.587c1.138 3.821 3.865 6.946 7.413 8.635v3.365c0 1.105.895 2 2 2h2c.366 0 .705-.106 1-.277-.595-.347-1-.985-1-1.723z" fill="#dc4632"/></g><g><path d="m32 24c-5.523 0-10-4.477-10-10 0-5.523 4.477-10 10-10 5.523 0 10 4.477 10 10 0 5.523-4.477 10-10 10z" fill="#fab400"/></g><g><circle cx="32" cy="14" fill="#be7800" r="6"/></g><g><path d="m24 14c0-5.185 3.947-9.448 9-9.95-.329-.032-.662-.05-1-.05-5.523 0-10 4.477-10 10s4.477 10 10 10c.338 0 .671-.018 1-.05-5.053-.502-9-4.765-9-9.95z" fill="#dc9600"/></g><g><path d="m34 11.857v-1.428h-1.333v-1.429h-1.334v1.429h-1.333v4.285h2.667v1.429h-2.667v1.428h1.333v1.429h1.334v-1.429h1.333v-4.285h-2.667v-1.429z" fill="#fab400"/></g><g><path d="m50 36h1.528c1.515 0 2.9.856 3.578 2.211l.894 1.789-.828-.828c-.751-.751-1.768-1.172-2.829-1.172h-2.343z" fill="#fa6450"/></g></g></svg>