<svg xmlns="http://www.w3.org/2000/svg" width="20" height="20" viewBox="0 0 20 20">
    <g fill="none" fill-rule="evenodd" stroke="#fff" stroke-width=".5">
        <path d="M4.571 9.351h-1.03l1.03 15.975V9.351z" transform="rotate(30 5.134 20.696)"/>
        <path d="M7.203 7.902H6.08v-6.77h.41c.312 0 .565-.254.565-.566C7.054.253 6.801 0 6.488 0H1.441C1.128 0 .875.253.875.566c0 .312.253.565.566.565h.361v6.77H.726c-.401 0-.726.326-.726.727 0 .4.325.726.726.726h6.477c.401 0 .726-.325.726-.726 0-.401-.325-.726-.726-.726" transform="rotate(30 5.134 20.696)"/>
    </g>
</svg>
