<svg width="80" height="80" viewBox="0 0 80 80" fill="none" xmlns="http://www.w3.org/2000/svg">
<circle cx="40" cy="40" r="39.5" fill="#FBFBFB" stroke="#F2F2F2"/>
<circle cx="40" cy="40" r="40" fill="#FBFBFB"/>
<mask id="mask0" mask-type="alpha" maskUnits="userSpaceOnUse" x="0" y="0" width="80" height="80">
<circle cx="40" cy="40" r="40" fill="white"/>
</mask>
<g mask="url(#mask0)">
<path fill-rule="evenodd" clip-rule="evenodd" d="M2.27565 59.8103C2.27565 59.8103 13.1774 49.3746 24.7798 47.2197C36.3823 45.0647 59.618 45.2786 72.1946 61.9465C84.7713 78.6144 53.8624 93.358 53.0096 93.4656C52.1568 93.5726 1.95626 85.1474 0.037962 83.697C-1.88101 82.2465 -9.12881 73.5941 2.27565 59.8103Z" fill="#3240FF"/>
<path fill-rule="evenodd" clip-rule="evenodd" d="M2.27565 59.8103C2.27565 59.8103 13.1774 49.3746 24.7798 47.2197C36.3823 45.0647 59.618 45.2786 72.1946 61.9465C84.7713 78.6144 53.8624 93.358 53.0096 93.4656C52.1568 93.5726 1.95626 85.1474 0.0379621 83.697C-1.88101 82.2465 -9.12881 73.5941 2.27565 59.8103Z" stroke="black" stroke-width="0.909"/>
<path fill-rule="evenodd" clip-rule="evenodd" d="M50.3475 51.3982C50.3475 51.3982 69.2051 89.2822 64.984 96.5187C60.7629 103.755 29.5201 110.658 13.9272 102.75C-4.30572 93.5034 19.6827 55.1138 25.3478 46.2667L50.3475 51.3982Z" fill="#3240FF"/>
<path fill-rule="evenodd" clip-rule="evenodd" d="M50.3475 51.3982C50.3475 51.3982 69.2051 89.2822 64.984 96.5187C60.7629 103.755 29.5201 110.658 13.9272 102.75C-4.30572 93.5034 19.6827 55.1138 25.3478 46.2667L50.3475 51.3982Z" stroke="black" stroke-width="0.909"/>
<path fill-rule="evenodd" clip-rule="evenodd" d="M22.4339 45.9013C21.8786 51.3549 28.2185 56.4774 36.5947 57.342C44.9708 58.206 52.211 54.4857 52.7662 49.0321C53.3209 43.5779 46.981 38.4561 38.6055 37.5914C30.2293 36.7268 22.9892 40.4471 22.4339 45.9013Z" fill="#3240FF"/>
<path fill-rule="evenodd" clip-rule="evenodd" d="M22.4339 45.9013C21.8786 51.3549 28.2185 56.4774 36.5947 57.342C44.9708 58.206 52.211 54.4857 52.7662 49.0321C53.3209 43.5779 46.981 38.4561 38.6055 37.5914C30.2293 36.7268 22.9892 40.4471 22.4339 45.9013Z" stroke="black" stroke-width="0.972"/>
<path fill-rule="evenodd" clip-rule="evenodd" d="M29.6 32.667C29.6 34.8762 31.3906 36.6667 33.6 36.6667C35.8087 36.6667 37.6 34.8762 37.6 32.667C37.6 30.4577 35.8087 28.6667 33.6 28.6667C31.3906 28.6667 29.6 30.4577 29.6 32.667Z" stroke="black" stroke-width="1.88"/>
<path fill-rule="evenodd" clip-rule="evenodd" d="M46.8773 20.6667H41.9777C38.7201 20.6667 36.055 23.763 36.055 27.5479V35.2974C36.055 35.5158 36.0661 35.7322 36.0838 35.9453C36.0308 36.1737 36 36.4101 36 36.6546V41.3732V41.6357V46.3543C36 48.0661 37.3725 49.4667 39.0507 49.4667H40.9939C42.6714 49.4667 44.0439 48.0661 44.0439 46.3543V42.1787H46.8773C50.1348 42.1787 52.8 39.0823 52.8 35.2974V27.5479C52.8 23.763 50.1348 20.6667 46.8773 20.6667Z" fill="white"/>
<path fill-rule="evenodd" clip-rule="evenodd" d="M46.8773 20.6667H41.9777C38.7202 20.6667 36.055 23.763 36.055 27.5479V35.2974C36.055 35.5158 36.0661 35.7322 36.0838 35.9453C36.0308 36.1737 36 36.4101 36 36.6546V41.3732V41.6357V46.3543C36 48.0661 37.3725 49.4667 39.0507 49.4667H40.9939C42.6714 49.4667 44.0439 48.0661 44.0439 46.3543V42.1787H46.8773C50.1348 42.1787 52.8 39.0823 52.8 35.2974V27.5479C52.8 23.763 50.1348 20.6667 46.8773 20.6667Z" stroke="black" stroke-width="0.94"/>
<path fill-rule="evenodd" clip-rule="evenodd" d="M42.4 29.8667C42.4 30.5296 42.9369 31.0667 43.5997 31.0667C44.2624 31.0667 44.8 30.5296 44.8 29.8667C44.8 29.203 44.2624 28.6667 43.5997 28.6667C42.9369 28.6667 42.4 29.203 42.4 29.8667Z" fill="#0C0C0C"/>
<path fill-rule="evenodd" clip-rule="evenodd" d="M50.4 29.4667C50.4 29.9083 50.7582 30.2667 51.1997 30.2667C51.6418 30.2667 52 29.9083 52 29.4667C52 29.0244 51.6418 28.6667 51.1997 28.6667C50.7582 28.6667 50.4 29.0244 50.4 29.4667Z" fill="#0C0C0C"/>
<path fill-rule="evenodd" clip-rule="evenodd" d="M48.8001 33.9837C48.8001 33.9837 48.2286 35.7387 47.0204 35.8595C45.8122 35.9795 44.8654 34.5682 44.8 33.4666L48.8001 33.9837Z" fill="#FFF7F7"/>
<path fill-rule="evenodd" clip-rule="evenodd" d="M48.8845 34.272C48.8701 34.3168 48.8523 34.3602 48.8359 34.405C48.8784 34.2923 48.8153 34.4527 48.7988 34.4888C48.768 34.5581 48.7357 34.6275 48.7008 34.6962C48.5369 35.022 48.3579 35.298 48.1027 35.543C47.8325 35.8016 47.4807 35.9584 47.1015 35.8992C46.6873 35.8334 46.3362 35.5502 46.0742 35.2193C45.7745 34.8414 45.5557 34.3414 45.5208 33.8472C45.4007 33.9736 45.2807 34.1001 45.1607 34.2272C46.3492 34.3797 47.5377 34.5329 48.7254 34.686L49.2316 34.7518C49.4249 34.7764 49.5916 34.5596 49.5916 34.3732C49.5916 34.147 49.4256 34.0184 49.2316 33.9931C48.0431 33.8399 46.8553 33.6868 45.6668 33.5336C45.4988 33.5119 45.3294 33.4902 45.1607 33.4686C44.9769 33.444 44.7877 33.6615 44.8007 33.8472C44.883 35.0047 45.6188 36.2178 46.7024 36.5755C47.7633 36.9267 48.6768 36.2128 49.2055 35.2959C49.3543 35.0386 49.4846 34.759 49.5786 34.4729C49.7301 34.0112 49.0354 33.8125 48.8845 34.272Z" fill="#0C0C0C"/>
<path fill-rule="evenodd" clip-rule="evenodd" d="M39.2 33.8666C39.2 35.4129 40.4536 36.6666 41.9996 36.6666C43.5463 36.6666 44.7999 35.4129 44.7999 33.8666C44.7999 32.3204 43.5463 31.0667 41.9996 31.0667C40.4536 31.0667 39.2 32.3204 39.2 33.8666Z" fill="#E4B0C8"/>
<path fill-rule="evenodd" clip-rule="evenodd" d="M52.3479 31.8666C52.5035 31.8666 52.6542 31.8873 52.8 31.923V34.6482C52.8 35.056 52.7848 35.4494 52.7042 35.8328C52.5974 35.8516 52.4601 35.8666 52.3479 35.8666C51.272 35.8666 50.4 34.9714 50.4 33.8663C50.4 32.7625 51.272 31.8666 52.3479 31.8666Z" fill="#E4B0C8"/>
<path fill-rule="evenodd" clip-rule="evenodd" d="M48.2012 28.6667L48 32.6667L49.6 31.5027L48.2012 28.6667Z" fill="#DB7294"/>
<mask id="mask1" mask-type="alpha" maskUnits="userSpaceOnUse" x="27" y="9" width="36" height="30">
<path fill-rule="evenodd" clip-rule="evenodd" d="M27.6968 9.22128H62.161V38.9012H27.6968V9.22128Z" fill="white"/>
</mask>
<g mask="url(#mask1)">
<path fill-rule="evenodd" clip-rule="evenodd" d="M36.8731 32.5807L37.791 26.4399C37.791 26.4399 54.4924 28.5699 59.9072 20.318C65.3214 12.0654 59.6316 8.79844 56.8787 9.26457C54.1258 9.73206 50.9066 13.7455 50.9066 13.7455C50.9066 13.7455 53.4689 10.1982 50.9066 9.63816C48.3437 9.07812 45.5137 11.7851 44.038 14.5853C44.038 14.5853 33.029 13.5408 29.3071 20.318C25.5852 27.0938 28.6018 31.9004 35.4087 38.9012L35.8636 34.9864L36.8731 32.5807Z" fill="black"/>
</g>
<path fill-rule="evenodd" clip-rule="evenodd" d="M29.6 32.667C29.6 34.8762 31.3906 36.6667 33.6 36.6667C35.8087 36.6667 37.6 34.8762 37.6 32.667C37.6 30.4577 35.8087 28.6667 33.6 28.6667C31.3906 28.6667 29.6 30.4577 29.6 32.667Z" fill="white"/>
<path fill-rule="evenodd" clip-rule="evenodd" d="M35.9958 33.0434C36.0157 32.7101 35.9636 32.3551 35.8781 32.0355C35.7039 31.3897 35.3115 30.8008 34.7208 30.5151C34.2447 30.2838 33.7197 30.2308 33.2015 30.2877C32.9938 30.3106 32.7905 30.4661 32.8004 30.7106C32.8091 30.9204 32.9777 31.1577 33.2015 31.1335C33.4221 31.1093 33.644 31.1015 33.8647 31.125C33.8753 31.1263 33.9286 31.1256 33.9329 31.1335C33.9205 31.1132 33.8449 31.1191 33.9317 31.1348C33.9732 31.1426 34.0153 31.1511 34.0569 31.1616C34.1424 31.1825 34.2255 31.2113 34.3079 31.242C34.4114 31.2806 34.2391 31.2034 34.3364 31.2551C34.3687 31.2721 34.4009 31.2878 34.4331 31.3067C34.4555 31.3191 34.6123 31.442 34.6241 31.4355C34.6117 31.4427 34.5429 31.3655 34.598 31.4152C34.6104 31.4257 34.6234 31.4368 34.6358 31.4485C34.66 31.4708 34.6836 31.4936 34.7071 31.5178C34.7524 31.5636 34.7951 31.6446 34.8466 31.6799C34.7834 31.6368 34.797 31.6093 34.8286 31.6564C34.8354 31.6675 34.8429 31.6773 34.8497 31.6884C34.8671 31.7146 34.8838 31.7407 34.8999 31.7682C34.9346 31.8264 34.9662 31.8858 34.9954 31.9479C35.009 31.978 35.0208 32.01 35.0357 32.0394C35.0586 32.0852 34.9941 31.9296 35.0183 31.9963C35.0239 32.0107 35.0288 32.0237 35.0344 32.0381C35.0567 32.1009 35.0772 32.1636 35.0952 32.2283C35.1255 32.3355 35.1497 32.4453 35.1677 32.5565C35.1714 32.58 35.1751 32.6042 35.1788 32.6284C35.1931 32.7218 35.1658 32.5074 35.1751 32.5983C35.1795 32.6447 35.1844 32.6905 35.1875 32.7362C35.195 32.8388 35.1999 32.9421 35.1937 33.0434C35.1807 33.265 35.3877 33.4761 35.5948 33.4663C35.8235 33.4559 35.9816 33.28 35.9958 33.0434Z" fill="#020202"/>
<path fill-rule="evenodd" clip-rule="evenodd" d="M44 14.5607C44 14.5607 32.9757 25.9878 28.4065 29.4667C28.4065 29.4667 22.4623 16.2681 25.8366 12.5843C28.5429 9.63072 41.7414 11.3655 44 14.5607Z" fill="#EEDA36"/>
<path fill-rule="evenodd" clip-rule="evenodd" d="M44 14.5607C44 14.5607 32.9757 25.9878 28.4065 29.4667C28.4065 29.4667 22.4623 16.2681 25.8366 12.5843C28.5429 9.63072 41.7414 11.3655 44 14.5607Z" stroke="black" stroke-width="0.94"/>
<path d="M40.7999 12.6667L27.2 26.2667" stroke="black" stroke-width="0.94"/>
<path fill-rule="evenodd" clip-rule="evenodd" d="M47.0158 43.4816L48.8 50.0332L35.2888 54.2666L34.5905 51.5304L29.6 48.5961L31.6662 43.0667L37.5756 47.6119L37.966 47.9308C37.966 47.9308 38.1814 48.2928 39.2759 47.6968C40.3705 47.1008 47.0158 43.4816 47.0158 43.4816Z" fill="#3240FF"/>
<path fill-rule="evenodd" clip-rule="evenodd" d="M47.8305 42.8833L34.5684 50.3269L34.4868 52.0942" fill="#3240FF"/>
<path d="M47.8305 42.8833L34.5684 50.3269L34.4868 52.0942" stroke="black" stroke-width="0.94"/>
<path fill-rule="evenodd" clip-rule="evenodd" d="M31.358 42.7394L38.3185 48.3301L31.358 42.7394Z" fill="#3240FF"/>
<path d="M31.358 42.7394L38.3185 48.3301" stroke="black" stroke-width="0.94"/>
<path d="M31.2 50.2667C31.2 50.2667 22.1652 56.0334 16 53.7186" stroke="black" stroke-width="0.94"/>
<path fill-rule="evenodd" clip-rule="evenodd" d="M30.4 50.6663C30.4 51.3292 30.9369 51.8666 31.6 51.8666C32.2631 51.8666 32.8 51.3292 32.8 50.6663C32.8 50.0034 32.2631 49.4666 31.6 49.4666C30.9369 49.4666 30.4 50.0034 30.4 50.6663Z" stroke="black" stroke-width="0.94"/>
<path fill-rule="evenodd" clip-rule="evenodd" d="M43.2 53.067C43.2 53.7296 43.737 54.2666 44.3996 54.2666C45.0622 54.2666 45.6 53.7296 45.6 53.067C45.6 52.4037 45.0622 51.8666 44.3996 51.8666C43.737 51.8666 43.2 52.4037 43.2 53.067Z" stroke="black" stroke-width="0.94"/>
<path d="M44 52.6667C44 52.6667 47.7866 63.2035 54.4 66.2667" stroke="black" stroke-width="0.94"/>
</g>
</svg>
