<svg xmlns="http://www.w3.org/2000/svg" xmlns:xlink="http://www.w3.org/1999/xlink" width="100" height="100" viewBox="0 0 100 100">
    <defs>
        <circle id="5i4m78ee2a" cx="50" cy="50" r="50"/>
    </defs>
    <g fill="none" fill-rule="evenodd">
        <g>
            <mask id="7x2zm2a8eb" fill="#fff">
                <use xlink:href="#5i4m78ee2a"/>
            </mask>
            <use fill="#F3F3F3" xlink:href="#5i4m78ee2a"/>
            <g mask="url(#7x2zm2a8eb)">
                <g>
                    <path fill="#FFF278" fill-rule="nonzero" d="M56.703 3.664s1.86 5.469 6.399 6.672c0 0-5.196 1.367-6.399 6.125 0 0-1.86-5.469-5.96-6.125 0 0 4.757-1.531 5.96-6.672z" transform="translate(21 12)"/>
                    <path fill="#FFF" fill-rule="nonzero" d="M4.922 72.781c0-.71.875-1.258 2.023-1.258 1.094 0 2.024.547 2.024 1.258s-.875 1.258-2.024 1.258c-1.093 0-2.023-.547-2.023-1.258zM42.11 72.781c0-.71.874-1.258 2.023-1.258 1.094 0 2.023.547 2.023 1.258s-.93 1.258-2.023 1.258c-1.149 0-2.024-.547-2.024-1.258zM13.398 48.61c1.696.71 3.336.546 3.72-.329.382-.875-.657-2.187-2.352-2.898-1.696-.711-3.336-.547-3.72.328-.327.875.712 2.187 2.352 2.898z" transform="translate(21 12)"/>
                    <path fill="#FFF" fill-rule="nonzero" d="M1.805 18.367H49.274V65.94500000000001H1.805z" transform="translate(21 12)"/>
                    <path fill="#FDCDBF" fill-rule="nonzero" d="M.93 28.102H49.274V29.196H.93zM.93 41.719H49.274V42.813H.93zM.93 48.555H49.274V49.649H.93zM.93 55.336H49.274V56.43H.93zM.93 62.172H49.274V63.266H.93zM28.383 34.883L27.891 34.883.93 34.883.93 36.031 27.508 36.031 27.781 36.031 49.273 36.031 49.273 34.883z" transform="translate(21 12)"/>
                    <path fill="#000" fill-rule="nonzero" d="M47.523 67.258H3.117C1.422 67.258 0 65.836 0 64.14V19.953c0-1.695 1.422-3.117 3.117-3.117h44.406c1.696 0 3.118 1.422 3.118 3.117v44.188c-.055 1.695-1.422 3.117-3.118 3.117zM3.117 18.64c-.71 0-1.258.601-1.258 1.257v44.188c0 .71.547 1.258 1.258 1.258h44.406c.711 0 1.258-.602 1.258-1.258V19.953c0-.71-.547-1.258-1.258-1.258H3.117v-.054z" transform="translate(21 12)"/>
                    <path d="M26.359 36.031L24.992 36.031 25.758 37.891z" transform="translate(21 12)"/>
                    <path fill="#000" fill-rule="nonzero" d="M45.063 20.719c-.493 0-.93-.383-.93-.93v-5.523c0-.493.437-.93.93-.93.492 0 .93.437.93.93v5.578c0 .492-.384.875-.93.875zM42.328 20.719c-.492 0-.93-.383-.93-.93v-5.523c0-.493.383-.93.93-.93.492 0 .93.437.93.93v5.578c0 .492-.383.875-.93.875zM36.094 20.719c-.492 0-.93-.383-.93-.93v-5.523c0-.493.438-.93.93-.93.492 0 .93.437.93.93v5.578c0 .492-.438.875-.93.875zM33.36 20.719c-.493 0-.93-.383-.93-.93v-5.523c0-.493.437-.93.93-.93.492 0 .93.437.93.93v5.578c-.056.492-.438.875-.93.875zM27.07 20.719c-.492 0-.93-.383-.93-.93v-5.523c0-.493.383-.93.93-.93.492 0 .93.437.93.93v5.578c0 .492-.383.875-.93.875zM24.336 20.719c-.492 0-.93-.383-.93-.93v-5.523c0-.493.438-.93.93-.93.492 0 .93.437.93.93v5.578c0 .492-.438.875-.93.875zM18.102 20.719c-.493 0-.93-.383-.93-.93v-5.523c0-.493.383-.93.93-.93.492 0 .93.437.93.93v5.578c0 .492-.438.875-.93.875zM15.367 20.719c-.492 0-.93-.383-.93-.93v-5.523c0-.493.383-.93.93-.93.492 0 .93.437.93.93v5.578c-.055.492-.438.875-.93.875zM9.078 20.719c-.492 0-.93-.383-.93-.93v-5.523c0-.493.383-.93.93-.93.492 0 .93.437.93.93v5.578c0 .492-.438.875-.93.875zM6.344 20.719c-.492 0-.93-.383-.93-.93v-5.523c0-.493.383-.93.93-.93.492 0 .93.437.93.93v5.578c0 .492-.438.875-.93.875zM12.14 45.547c-.218.492-.765.71-1.203.492-3.554-1.531-4.867-3.61-5.25-5.031-.492-1.64-.054-2.844 0-3.008.165-.492.711-.71 1.149-.547.492.164.71.711.547 1.149-.055.164-1.094 3.39 4.265 5.742.493.218.711.765.493 1.203zM41.727 74.04c-.493 0-.93-.384-.93-.93v-6.235c0-.492.383-.93.93-.93.492 0 .93.383.93.93v6.234c-.055.547-.438.93-.93.93z" transform="translate(21 12)"/>
                    <path fill="#000" fill-rule="nonzero" d="M44.133 75.68c-1.805 0-3.281-1.203-3.281-2.735 0-1.476 1.476-2.734 3.28-2.734 1.806 0 3.282 1.203 3.282 2.734-.055 1.532-1.531 2.735-3.281 2.735zm0-3.61c-.82 0-1.422.493-1.422.875 0 .438.602.875 1.422.875s1.422-.492 1.422-.875c0-.382-.602-.875-1.422-.875zM9.188 74.04c-.493 0-.93-.384-.93-.93v-6.235c0-.492.437-.93.93-.93.492 0 .93.383.93.93v6.234c-.056.547-.438.93-.93.93z" transform="translate(21 12)"/>
                    <path fill="#000" fill-rule="nonzero" d="M6.781 75.68c-1.804 0-3.281-1.203-3.281-2.735 0-1.476 1.477-2.734 3.281-2.734 1.805 0 3.282 1.203 3.282 2.734-.055 1.532-1.477 2.735-3.282 2.735zm0-3.61c-.82 0-1.422.493-1.422.875 0 .438.602.875 1.422.875s1.422-.492 1.422-.875c0-.382-.601-.875-1.422-.875zM30.242 34.61c-.492 0-.93-.165-1.258-.547-.656-.711-.492-1.86-.492-2.024.055-.328.328-.602.711-.547.328.055.602.328.547.711 0 .219 0 .82.219 1.04.054.054.11.109.328.109.219 0 .273-.055.328-.11.219-.273.273-.82.219-1.039-.055-.328.218-.656.547-.656.328-.055.656.219.656.547 0 .11.11 1.312-.547 2.023-.328.328-.766.492-1.258.492zM19.195 34.61c-.492 0-.93-.165-1.258-.547-.656-.711-.492-1.86-.492-2.024.055-.328.328-.602.711-.547.328.055.602.328.547.711 0 .219 0 .82.219 1.04.055.054.11.109.328.109.219 0 .273-.055.328-.11.219-.273.274-.82.219-1.039-.055-.328.219-.656.547-.656.328-.055.656.219.656.547 0 .11.11 1.312-.547 2.023-.328.328-.765.492-1.258.492zM24.938 36.688c-1.532 0-2.625-1.422-2.68-1.532-.219-.273-.164-.656.11-.875.273-.218.655-.164.874.11 0 0 .766.984 1.695.984.547 0 1.04-.328 1.532-.984.218-.274.601-.328.875-.11.273.219.328.602.11.875-.712.985-1.587 1.532-2.517 1.532z" transform="translate(21 12)"/>
                    <g fill="#000" fill-rule="nonzero">
                        <path d="M8.86 19.906c-.329 0-.602-.273-.602-.601 0-3.5.984-6.125 2.844-7.766.71-.601 1.421-.984 2.187-1.258-.875-.383-1.64-.93-2.297-1.64C8.094 5.633 8.312.875 8.312.656c0-.328.329-.601.657-.601s.601.328.601.656c0 .055-.164 4.43 2.352 7.055 1.094 1.148 2.515 1.804 4.32 1.968.602 0 .985.055.985.055.328.055.546.328.546.656s-.273.602-.601.602c-.328 0-.602 0-.93-.055-1.039 0-2.789.274-4.21 1.531-1.587 1.422-2.407 3.72-2.407 6.836-.11.274-.438.547-.766.547z" transform="translate(21 12) translate(47.953)"/>
                        <path d="M8.86 19.906c-.329 0-.602-.273-.602-.601 0-3.117-.82-5.47-2.406-6.836C4.43 11.21 2.68 10.992 1.64 10.938c-.329 0-.602.054-.93.054-.328 0-.602-.273-.602-.601 0-.329.22-.602.547-.657.055 0 .438-.054.985-.054 1.75-.164 3.226-.82 4.32-1.97C8.477 5.087 8.312.71 8.312.657c0-.328.274-.656.602-.656.328 0 .656.273.656.602 0 .218.164 4.921-2.68 7.984-.656.71-1.421 1.258-2.296 1.64.71.274 1.476.657 2.187 1.258 1.914 1.641 2.844 4.266 2.844 7.766-.11.383-.438.656-.766.656z" transform="translate(21 12) translate(47.953)"/>
                    </g>
                    <path fill="#FEEFDC" fill-rule="nonzero" d="M38.39 34.172l14.055 1.258 1.04 4.047-8.422 9.57-3.5-2.953s-3.336-7.711-3.391-7.82c-.055-.11 0-4.266 0-4.266" transform="translate(21 12)"/>
                    <path fill="#B0D0FF" fill-rule="nonzero" d="M37.406 34.609L18.102 42.922 16.242 46.203 11.648 46.969 10.938 46.039 6.727 48.172 13.289 63.375 45.117 49.813 44.789 48.992 42.109 46.586 38.336 38.273 37.625 34.609z" transform="translate(21 12)"/>
                    <g fill="#000" fill-rule="nonzero">
                        <path d="M8.313 31.61c-.329 0-.657-.22-.82-.547L.382 15.585c-.11-.219-.11-.492 0-.711.11-.219.273-.438.492-.492L32.594.493c.11-.055.273-.055.437-.055l14.711.875c.164 0 2.024.054 2.79 1.53.71 1.423-.165 2.9-.274 3.118 0 .055-.055.055-.055.11l-9.46 11.32c-.11.109-.22.218-.329.273L8.695 31.5c-.164.055-.273.11-.383.11zM2.405 15.694L8.75 29.477l30.734-13.399 9.188-11.156c.11-.219.383-.875.164-1.258-.164-.383-.93-.492-1.203-.547l-14.547-.875-30.68 13.453z" transform="translate(21 12) translate(4.922 32.531)"/>
                        <path d="M40.195 17.281c-.164 0-.273-.054-.383-.164l-3.226-2.68c-.055-.054-.11-.109-.164-.218l-3.883-8.203c-.055-.11-.055-.164-.055-.274v-4.21c0-.329.274-.602.602-.602.328 0 .602.273.602.601v4.047l3.773 7.93 3.117 2.57c.274.219.274.602.055.875-.11.274-.274.328-.438.328zM45.391 2.789L47.414 6.781 50.039 4.375 48.617 2.789z" transform="translate(21 12) translate(4.922 32.531)"/>
                    </g>
                    <g fill-rule="nonzero">
                        <path fill="#FFF" d="M2.516 2.406C1.203 3.664.656 5.25 1.312 5.961c.657.71 2.297.273 3.61-.93 1.312-1.258 1.86-2.843 1.203-3.554-.656-.711-2.242-.274-3.61.93z" transform="translate(21 12) translate(47.031 39.094)"/>
                        <path fill="#000" d="M.82 6.727C-.328 5.523 0 3.336 1.586 1.75 2.296.984 3.172.492 4.102.328c.984-.219 1.914 0 2.57.602 1.203 1.203.93 3.445-.711 5.086-.711.765-1.586 1.257-2.516 1.421-.984.22-1.914 0-2.57-.601 0-.055-.055-.11-.055-.11zm4.54-4.54c-.274-.273-.712-.218-.93-.164-.547.11-1.094.438-1.586.93-.875.93-1.149 2.078-.711 2.461.273.274.71.164.93.164.546-.11 1.093-.437 1.585-.93.875-.875 1.094-2.023.711-2.46z" transform="translate(21 12) translate(47.031 39.094)"/>
                    </g>
                    <path fill="#000" fill-rule="nonzero" d="M18.102 43.195c0 .055 0 .055.054.11.274.82.055 1.75-.601 2.57-.547.71-1.422 1.258-2.407 1.531-2.187.657-4.32-.11-4.812-1.695-.274-.82-.055-1.75.601-2.57.547-.711 1.422-1.258 2.407-1.532 2.078-.656 4.21.055 4.758 1.586zm-6.07 2.024c.163.547 1.312.82 2.515.492.656-.219 1.203-.547 1.531-.984.11-.164.383-.547.274-.875-.165-.547-1.313-.82-2.516-.493-.656.22-1.203.547-1.531.985-.11.11-.383.492-.274.875z" transform="translate(21 12)"/>
                    <path fill="#FFF" fill-rule="nonzero" d="M11.648 44.563c0-1.149 1.149-2.079 2.57-2.079 1.423 0 2.571.93 2.571 2.078 0 1.149-1.148 2.079-2.57 2.079s-2.57-.93-2.57-2.078z" transform="translate(21 12)"/>
                </g>
            </g>
        </g>
    </g>
</svg>
