<?xml version="1.0" encoding="UTF-8"?>
<svg width="317px" height="24px" viewBox="0 0 317 24" version="1.1" xmlns="http://www.w3.org/2000/svg" xmlns:xlink="http://www.w3.org/1999/xlink">
    <title>아스팔트혼합물품질관리시스템</title>
    <g id="Symbols" stroke="none" stroke-width="1" fill="none" fill-rule="evenodd">
        <g id="Components-/-Header-/-로그인전" transform="translate(-802.000000, -25.000000)" fill="#002257" fill-rule="nonzero">
            <path d="M819.328,48.064 L819.328,36.904 L822.544,36.904 L822.544,34.288 L819.328,34.288 L819.328,25.96 L816.16,25.96 L816.16,48.064 L819.328,48.064 Z M807.952,43.288 C811.288,43.288 813.76,40.24 813.76,35.368 C813.76,30.52 811.288,27.496 807.952,27.496 C804.592,27.496 802.144,30.52 802.144,35.368 C802.144,40.24 804.592,43.288 807.952,43.288 Z M807.952,40.408 C806.296,40.408 805.192,38.656 805.192,35.368 C805.192,32.104 806.296,30.352 807.952,30.352 C809.584,30.352 810.712,32.104 810.712,35.368 C810.712,38.656 809.584,40.408 807.952,40.408 Z M842.08,39.016 L843.424,36.376 C838.432,35.512 835.696,32.08 835.696,28.84 L835.696,27.256 L832.312,27.256 L832.312,28.84 C832.312,32.008 829.552,35.512 824.584,36.376 L825.928,39.016 C829.768,38.272 832.576,36.112 833.992,33.304 C835.408,36.112 838.24,38.248 842.08,39.016 Z M844.12,45.376 L844.12,42.808 L824.104,42.808 L824.104,45.376 L844.12,45.376 Z M863.584,37.288 L863.584,32.872 L866.488,32.872 L866.488,30.304 L863.584,30.304 L863.584,25.984 L860.416,25.984 L860.416,37.288 L863.584,37.288 Z M859.36,36.112 L859.192,33.88 C858.376,33.976 857.536,34.048 856.672,34.096 L856.672,29.752 L858.424,29.752 L858.424,27.304 L846.64,27.304 L846.64,29.752 L848.368,29.752 L848.368,34.384 L846.064,34.384 L846.064,34.384 L846.376,36.88 C850.168,36.88 855.016,36.808 859.36,36.112 Z M851.416,34.336 L851.416,29.752 L853.648,29.752 L853.648,34.264 C852.904,34.288 852.16,34.312 851.416,34.336 Z M864.208,47.896 L864.208,45.448 L852.16,45.448 L852.16,44.104 L863.584,44.104 L863.584,38.176 L848.992,38.176 L848.992,40.6 L860.464,40.6 L860.464,41.848 L849.016,41.848 L849.016,47.896 L864.208,47.896 Z M886.144,39.856 L886.144,37.36 L873.832,37.36 L873.832,34.888 L885.472,34.888 L885.472,32.44 L873.832,32.44 L873.832,30.112 L885.976,30.112 L885.976,27.568 L870.616,27.568 L870.616,39.856 L886.144,39.856 Z M888.28,45.52 L888.28,42.952 L868.264,42.952 L868.264,45.52 L888.28,45.52 Z M914.752,30.136 L914.752,27.76 L907.36,27.76 L907.36,25.864 L904.192,25.864 L904.192,27.76 L896.752,27.76 L896.752,30.136 L914.752,30.136 Z M915.784,41.152 L915.784,38.704 L907.36,38.704 L907.36,37.432 C911.104,37.168 913.192,36.04 913.192,34.12 C913.192,31.936 910.48,30.76 905.776,30.76 C901.096,30.76 898.384,31.936 898.384,34.12 C898.384,36.04 900.472,37.168 904.192,37.432 L904.192,38.704 L895.768,38.704 L895.768,41.152 L915.784,41.152 Z M905.776,35.272 C902.92,35.272 901.624,34.912 901.624,34.12 C901.624,33.304 902.92,32.968 905.776,32.968 C908.656,32.968 909.952,33.304 909.952,34.12 C909.952,34.912 908.656,35.272 905.776,35.272 Z M913.552,47.68 L913.552,45.232 L901.384,45.232 L901.384,42.208 L898.216,42.208 L898.216,47.68 L913.552,47.68 Z M930.88,30.376 L930.904,27.904 L925.96,27.904 L925.96,25.792 L922.768,25.792 L922.768,27.904 L917.848,27.904 L917.848,30.376 L930.88,30.376 Z M935.272,38.896 L935.272,33.856 L938.2,33.856 L938.2,31.264 L935.272,31.264 L935.272,25.96 L932.104,25.96 L932.104,38.896 L935.272,38.896 Z M924.376,38.8 C927.568,38.8 929.8,37.216 929.8,34.888 C929.8,32.536 927.568,30.976 924.376,30.976 C921.184,30.976 918.952,32.536 918.952,34.888 C918.952,37.216 921.184,38.8 924.376,38.8 Z M924.376,36.496 C922.96,36.496 921.976,35.944 921.976,34.888 C921.976,33.832 922.96,33.28 924.376,33.28 C925.792,33.28 926.776,33.832 926.776,34.888 C926.776,35.944 925.792,36.496 924.376,36.496 Z M935.272,47.824 L935.272,39.736 L932.128,39.736 L932.128,41.416 L924.04,41.416 L924.04,39.736 L920.896,39.736 L920.896,47.824 L935.272,47.824 Z M932.128,45.352 L924.04,45.352 L924.04,43.816 L932.128,43.816 L932.128,45.352 Z M957.376,33.544 L957.376,26.608 L942.424,26.608 L942.424,33.544 L957.376,33.544 Z M954.28,31.12 L945.52,31.12 L945.52,29.032 L954.28,29.032 L954.28,31.12 Z M958.072,47.896 L958.072,45.52 L945.4,45.52 L945.4,44.272 L957.496,44.272 L957.496,38.608 L951.496,38.608 L951.496,37.216 L959.92,37.216 L959.92,34.72 L939.952,34.72 L939.952,37.216 L948.328,37.216 L948.328,38.608 L942.232,38.608 L942.232,40.936 L954.376,40.936 L954.376,42.088 L942.256,42.088 L942.256,47.896 L958.072,47.896 Z M985.504,34.936 L985.504,32.416 L982.864,32.416 L982.864,29.08 L985.672,29.08 L985.672,26.56 L969.232,26.56 L969.232,29.08 L972.04,29.08 L972.04,32.416 L969.376,32.416 L969.376,34.936 L985.504,34.936 Z M979.72,32.416 L975.184,32.416 L975.184,29.08 L979.72,29.08 L979.72,32.416 Z M985.072,47.824 L985.072,40.624 L979.048,40.624 L979.048,38.824 L987.448,38.824 L987.448,36.304 L967.48,36.304 L967.48,38.824 L975.88,38.824 L975.88,40.624 L969.808,40.624 L969.808,47.824 L985.072,47.824 Z M981.952,45.328 L972.904,45.328 L972.904,43.096 L981.952,43.096 L981.952,45.328 Z M1007.896,37.288 L1007.896,25.96 L1004.728,25.96 L1004.728,37.288 L1007.896,37.288 Z M991.12,37.552 C993.784,36.808 995.608,35.152 996.616,33.064 C997.624,34.936 999.352,36.4 1001.896,37.072 L1003.336,34.648 C1000.024,33.76 998.416,31.624 998.176,29.488 L1002.52,29.488 L1002.52,26.968 L990.496,26.968 L990.496,29.488 L994.912,29.488 C994.696,31.816 993.064,34.12 989.656,35.08 L991.12,37.552 Z M1008.472,47.896 L1008.472,45.496 L996.352,45.496 L996.352,44.104 L1007.92,44.104 L1007.92,38.176 L993.184,38.176 L993.184,40.552 L1004.776,40.552 L1004.776,41.872 L993.208,41.872 L993.208,47.896 L1008.472,47.896 Z M1029.28,42.496 L1029.28,35.296 L1031.92,35.296 L1031.92,32.68 L1029.28,32.68 L1029.28,25.936 L1026.112,25.936 L1026.112,42.496 L1029.28,42.496 Z M1023.448,35.44 C1023.952,32.656 1023.952,30.472 1023.952,28.936 L1023.952,27.568 L1012.6,27.568 L1012.6,30.088 L1020.832,30.088 C1020.808,31.408 1020.712,33.016 1020.352,35.08 L1023.448,35.44 Z M1011.616,39.544 C1015.408,39.52 1020.544,39.424 1025.104,38.584 L1024.912,36.328 C1022.848,36.616 1020.64,36.784 1018.456,36.88 L1018.456,32.704 L1015.36,32.704 L1015.36,37 C1013.92,37.024 1012.552,37.024 1011.328,37.024 L1011.616,39.544 Z M1029.976,47.68 L1029.976,45.16 L1017.712,45.16 L1017.712,41.032 L1014.544,41.032 L1014.544,47.68 L1029.976,47.68 Z M1052.104,48.112 L1052.104,25.936 L1048.936,25.936 L1048.936,48.112 L1052.104,48.112 Z M1036.888,42.976 C1040.896,42.976 1044.136,42.832 1047.736,42.208 L1047.4,39.64 C1044.28,40.168 1041.496,40.336 1038.136,40.36 L1038.136,36.376 L1045.312,36.376 L1045.312,27.832 L1034.872,27.832 L1034.872,30.352 L1042.072,30.352 L1042.072,33.88 L1034.896,33.88 L1034.896,42.976 L1036.888,42.976 Z M1074.112,48.112 L1074.112,25.936 L1070.944,25.936 L1070.944,48.112 L1074.112,48.112 Z M1057.408,43.72 C1060.048,42.472 1061.848,40.096 1062.832,37.144 C1063.816,39.856 1065.52,42.04 1068.064,43.192 L1069.864,40.624 C1066.12,39.016 1064.368,34.984 1064.368,30.88 L1064.368,27.664 L1061.2,27.664 L1061.2,30.88 C1061.2,35.176 1059.376,39.448 1055.512,41.104 L1057.408,43.72 Z M1095.856,39.016 L1097.2,36.376 C1092.208,35.512 1089.472,32.08 1089.472,28.84 L1089.472,27.256 L1086.088,27.256 L1086.088,28.84 C1086.088,32.008 1083.328,35.512 1078.36,36.376 L1079.704,39.016 C1083.544,38.272 1086.352,36.112 1087.768,33.304 C1089.184,36.112 1092.016,38.248 1095.856,39.016 Z M1097.896,45.376 L1097.896,42.808 L1077.88,42.808 L1077.88,45.376 L1097.896,45.376 Z M1118.8,39.16 L1118.8,25.984 L1115.8,25.984 L1115.8,39.16 L1118.8,39.16 Z M1114.408,38.992 L1114.408,26.296 L1111.456,26.296 L1111.456,31.264 L1109.296,31.264 L1109.296,33.808 L1111.456,33.808 L1111.456,38.992 L1114.408,38.992 Z M1110.184,37.816 L1109.92,35.32 C1107.928,35.68 1106.2,35.8 1103.872,35.824 L1103.872,33.928 L1108.36,33.928 L1108.36,31.528 L1103.872,31.528 L1103.872,29.776 L1109.128,29.776 L1109.128,27.28 L1100.824,27.28 L1100.824,38.32 L1102.336,38.32 C1105.6,38.32 1107.688,38.272 1110.184,37.816 Z M1118.8,47.8 L1118.8,40.024 L1103.824,40.024 L1103.824,47.8 L1118.8,47.8 Z M1115.704,45.328 L1106.944,45.328 L1106.944,42.496 L1115.704,42.496 L1115.704,45.328 Z" id="아스팔트혼합물품질관리시스템"></path>
        </g>
    </g>
</svg>