<svg xmlns="http://www.w3.org/2000/svg" width="14" height="18" viewBox="0 0 14 18">
    <g fill="none" fill-rule="evenodd">
        <g fill="#002257" fill-rule="nonzero">
            <g>
                <path d="M906 43c-3.86 0-7 3.129-7 6.974 0 1.468.454 2.873 1.325 4.079L905.2 60.6c.189.251.486.399.8.399h.001c.314 0 .611-.149.8-.4l5.072-6.835c.737-1.129 1.127-2.44 1.127-3.79 0-3.846-3.14-6.975-7-6.975zm0 9.963c-1.654 0-3-1.34-3-2.989 0-1.648 1.346-2.989 3-2.989s3 1.341 3 2.99c0 1.647-1.346 2.988-3 2.988z" transform="translate(-950 -504) translate(51 461)"/>
            </g>
        </g>
    </g>
</svg>
