<svg xmlns="http://www.w3.org/2000/svg" width="60" height="60" viewBox="0 0 60 60">
    <g fill="none" fill-rule="evenodd">
        <g fill-rule="nonzero">
            <g>
                <path fill="#7B8BA4" d="M45.484 9.677C53.488 9.677 60 16.19 60 24.194c0 8.004-6.512 14.516-14.516 14.516-8.004 0-14.516-6.512-14.516-14.516 0-8.005 6.512-14.517 14.516-14.517zm0 4.84c-5.336 0-9.678 4.34-9.678 9.677 0 5.336 4.342 9.677 9.678 9.677 5.336 0 9.677-4.341 9.677-9.677 0-5.337-4.341-9.678-9.677-9.678zm-16.452.967v4.839H7.742v-4.84h21.29z" transform="translate(-931 -347) translate(931 347)"/>
                <path fill="#002257" d="M21.29 0C24 0 26.44 1.479 27.694 3.871H30c1.26 0 2.325.812 2.725 1.935h5.017c2.442 0 4.447 1.826 4.772 4.18-.646.135-1.269.325-1.88.543-.063-1.546-1.331-2.787-2.892-2.787h-4.839v1.935h3.871c.986 0 1.793.745 1.911 1.699-.672.358-1.306.776-1.91 1.232v-.995h-4.05c-.4 1.123-1.465 1.935-2.725 1.935H12.58c-1.26 0-2.324-.812-2.725-1.935H5.806v42.58h30.968V35.779c.612.462 1.254.883 1.936 1.244v17.172c0 1.067-.868 1.935-1.936 1.935H5.806c-1.067 0-1.935-.868-1.935-1.935V11.613c0-1.068.868-1.936 1.935-1.936h3.871V7.742H4.84c-1.6 0-2.904 1.303-2.904 2.903v44.516c0 1.6 1.303 2.904 2.904 2.904h36.8c-.615-.811-.994-1.81-.994-2.904v-9.677c0-1.267.82-2.334 1.953-2.73-.005-.058-.017-.114-.017-.173v-4.165c.63.13 1.279.2 1.935.244v3.92h1.936v-3.919c.656-.043 1.305-.115 1.935-.244v4.164c0 .059-.012.115-.017.173 1.133.396 1.953 1.463 1.953 2.73v9.677c0 2.668-2.171 4.839-4.84 4.839H4.84C2.17 60 0 57.83 0 55.161V10.645c0-2.668 2.17-4.839 4.839-4.839h5.016c.401-1.123 1.466-1.935 2.726-1.935h2.306C16.14 1.479 18.582 0 21.29 0zm26.13 44.516h-3.872c-.533 0-.967.434-.967.968v9.677c0 1.6 1.302 2.904 2.903 2.904 1.6 0 2.903-1.303 2.903-2.904v-9.677c0-.534-.434-.968-.968-.968zm-29.033-21.29c1.53 0 2.868.906 3.49 2.222 1.37-.493 2.956-.185 4.038.896 1.08 1.08 1.386 2.668.895 4.038 1.316.622 2.222 1.96 2.222 3.489s-.906 2.867-2.223 3.489c.491 1.37.185 2.957-.895 4.038-.491.492-1.09.814-1.721.983V52.72l-5.807-2.322-5.806 2.322V42.38c-.632-.168-1.23-.491-1.721-.982-1.08-1.08-1.386-2.668-.895-4.038-1.316-.622-2.222-1.96-2.222-3.489 0-1.53.906-2.867 2.223-3.489-.49-1.37-.185-2.957.895-4.038 1.082-1.081 2.668-1.388 4.038-.896.622-1.316 1.96-2.222 3.49-2.222zm3.489 19.068c-.621 1.316-1.96 2.222-3.489 2.222s-2.867-.906-3.489-2.22c-.125.044-.253.075-.382.107v7.459l3.871-1.55 3.871 1.549v-7.46c-.129-.031-.257-.062-.382-.107zm-1.544-1.936c-.616.185-1.268.287-1.945.287-.676 0-1.329-.102-1.945-.287l.027.413c.066 1.015.909 1.81 1.918 1.81 1.01 0 1.852-.795 1.918-1.81zm4.017-3.276c-.629 1.163-1.588 2.122-2.75 2.751l.31.273c.766.673 1.924.636 2.637-.076.713-.714.747-1.872.076-2.636zm-11.924 0l-.273.312c-.67.764-.637 1.922.077 2.636.714.714 1.871.747 2.636.076l.311-.273c-1.163-.629-2.122-1.588-2.751-2.751zm5.962-8.05c-2.668 0-4.839 2.17-4.839 4.839 0 2.668 2.171 4.839 4.84 4.839 2.667 0 4.838-2.171 4.838-4.839 0-2.668-2.17-4.839-4.839-4.839zm0 1.936c1.6 0 2.903 1.302 2.903 2.903 0 1.6-1.302 2.903-2.903 2.903-1.6 0-2.903-1.302-2.903-2.903 0-1.6 1.302-2.903 2.903-2.903zm6.486.958c.186.616.288 1.269.288 1.945 0 .676-.102 1.329-.287 1.945l.413-.027c1.015-.066 1.81-.909 1.81-1.918 0-1.01-.795-1.852-1.81-1.918zm-12.973 0l-.413.027c-1.015.066-1.81.909-1.81 1.918 0 1.01.795 1.852 1.811 1.918l.413.027c-.186-.616-.288-1.269-.288-1.945 0-.676.102-1.329.287-1.945zm33.584-18.378c5.87 0 10.645 4.776 10.645 10.646 0 5.869-4.776 10.645-10.645 10.645-5.87 0-10.645-4.776-10.645-10.645 0-5.87 4.776-10.646 10.645-10.646zM18.387 32.903c-.533 0-.968.434-.968.968s.435.968.968.968c.533 0 .968-.434.968-.968s-.435-.968-.968-.968zm27.097-17.42c-4.802 0-8.71 3.908-8.71 8.71 0 4.803 3.908 8.71 8.71 8.71 4.802 0 8.71-3.907 8.71-8.71 0-4.802-3.908-8.71-8.71-8.71zm-20.938 12.23c-.713-.715-1.87-.749-2.636-.077l-.311.274c1.163.629 2.122 1.588 2.751 2.751l.273-.312c.67-.764.636-1.924-.077-2.637zm-9.68-.077c-.766-.672-1.925-.636-2.638.076-.713.713-.747 1.872-.076 2.636l.273.312c.629-1.163 1.588-2.122 2.751-2.751zm35.74-7.998l1.369 1.369-8.427 8.426-4.555-4.555 1.369-1.369 3.186 3.187 7.058-7.058zm-32.219 5.523c-1.01 0-1.852.795-1.918 1.81l-.027.413c.616-.185 1.269-.287 1.945-.287.677 0 1.329.102 1.945.287l-.027-.413c-.066-1.015-.909-1.81-1.918-1.81zm10.645-5.806v1.935H7.742v-1.935h21.29zm0-3.871v1.935h-17.42v-1.935h17.42zm-19.355 0v1.935H7.742v-1.935h1.935zM21.29 1.935c-2.018 0-3.833 1.122-4.737 2.928l-.471.943H12.58c-.534 0-.968.434-.968.968v3.871c0 .534.434.968.968.968H30c.533 0 .968-.434.968-.968v-3.87c0-.535-.435-.969-.968-.969h-3.501l-.472-.943c-.903-1.806-2.718-2.928-4.737-2.928zm0 1.936c1.601 0 2.904 1.303 2.904 2.903S22.89 9.677 21.29 9.677c-1.6 0-2.903-1.302-2.903-2.903 0-1.6 1.303-2.903 2.903-2.903zm0 1.935c-.533 0-.967.434-.967.968s.434.968.967.968c.534 0 .968-.434.968-.968s-.434-.968-.968-.968z" transform="translate(-931 -347) translate(931 347)"/>
            </g>
        </g>
    </g>
</svg>
