<svg xmlns="http://www.w3.org/2000/svg" width="60" height="60" viewBox="0 0 60 60">
    <g fill="none" fill-rule="evenodd">
        <g fill-rule="nonzero">
            <g>
                <path fill="#7B8BA4" d="M58.065 47.42v8.709h-9.678v-8.71h9.678zm-17.42-12.581c2.135 0 3.871 1.736 3.871 3.87 0 2.136-1.736 3.872-3.87 3.872-2.136 0-3.872-1.736-3.872-3.871s1.736-3.871 3.871-3.871zm-22.258 0c2.135 0 3.871 1.736 3.871 3.87 0 2.136-1.736 3.872-3.87 3.872-2.136 0-3.872-1.736-3.872-3.871s1.736-3.871 3.871-3.871zm.968-17.42c2.135 0 3.87 1.736 3.87 3.871s-1.735 3.871-3.87 3.871-3.871-1.736-3.871-3.87c0-2.136 1.736-3.872 3.87-3.872zm36.774-.967v4.838h-17.42v-4.838h17.42zM9.677 8.71v7.742H1.935V8.71h7.742z" transform="translate(-1101 -347) translate(1101 347)"/>
                <path fill="#002257" d="M29.032 30.968v21.29l-1.055-.096c-1.507-.135-2.964-.435-4.368-.854L14.917 60H0v-1.935h1.935V51.29h1.936v6.775h1.935v-8.71h1.936v8.71h1.935v-3.871h1.936v3.87h2.502l7.472-7.47C14.055 47.524 8.6 40.48 7.837 32.023l-.095-1.055h21.29zm23.226 0l-.096 1.054c-.655 7.268-4.776 13.498-10.7 17.056l5.53 8.987H60V60H45.91l-6.15-9.996c-2.372 1.156-4.978 1.91-7.737 2.16l-1.055.094v-21.29h21.29zm5.807 23.226v1.935h-1.936v-1.935h1.936zm-3.871 0v1.935h-1.936v-1.935h1.936zm-3.871 0v1.935h-1.936v-1.935h1.936zm7.742-3.871v1.935h-9.678v-1.935h9.678zm-30.968-17.42H9.887c1.273 8.92 8.29 15.937 17.21 17.21v-17.21zm23.016 0h-17.21v17.21c8.92-1.273 15.937-8.29 17.21-17.21zm7.952 13.549v1.935h-9.678v-1.935h9.678zM11.045 3.87l7.224 7.223c2.866-1.778 6.16-2.937 9.708-3.257l1.055-.095v21.29H7.742l.096-1.055c.582-6.462 3.912-12.096 8.806-15.77l-6.4-6.4H0V3.87h11.046zM60 0v25.161h-8.298c.207.931.375 1.87.46 2.817l.095 1.054h-21.29V7.742l1.055.095c.947.085 1.887.254 2.817.46V0H60zM27.097 9.887c-8.92 1.273-15.937 8.29-17.21 17.21h17.21zm5.806.001v17.209h17.209c-.093-.652-.23-1.297-.386-1.936H34.84V10.274c-.639-.156-1.284-.293-1.936-.386zm25.162-7.953h-21.29v21.29h21.29V1.936zm-1.936 17.42v1.935h-1.935v-1.935h1.935zm-3.87 0v1.935h-13.55v-1.935h13.55zM9.676 15.484v1.935H1.935v-1.935h7.742zm46.452 0v1.935h-17.42v-1.935h17.42zM9.677 11.613v1.935H1.935v-1.935h7.742zM56.13 3.87v9.677h-17.42V3.871h17.42zm-1.935 1.935H40.645v5.807h13.549V5.806zM9.677 7.742v1.935H1.935V7.742h7.742z" transform="translate(-1101 -347) translate(1101 347)"/>
            </g>
        </g>
    </g>
</svg>
