<svg xmlns="http://www.w3.org/2000/svg" width="70" height="70" viewBox="0 0 70 70">
    <g fill="none" fill-rule="evenodd">
        <g fill-rule="nonzero">
            <g>
                <path fill="#7B8BA4" d="M67.074 11.032L58.786 16.968 61.95 26.6 53.662 20.65 45.374 26.6 48.538 16.968 40.25 11.032 50.498 11.032 53.662 1.4 56.826 11.032z" transform="translate(-824 -346) translate(824 346)"/>
                <path fill="#002257" d="M63 30.8c.774 0 1.4.627 1.4 1.4v22.4c0 .773-.626 1.4-1.4 1.4-.774 0-1.4-.627-1.4-1.4v-21H45.733v25.2H68.6c.774 0 1.4.627 1.4 1.4v8.4c0 .727-.554 1.326-1.265 1.394L68.6 70H1.4C.627 70 0 69.373 0 68.6v-8.4c0-.727.556-1.326 1.265-1.394L1.4 58.8h4.2V49c0-.773.627-1.4 1.4-1.4h13.066c.773 0 1.4.627 1.4 1.4 0 .773-.626 1.4-1.4 1.4H8.4v8.4h15.866V43.4c0-.773.627-1.4 1.4-1.4h13.068c.774 0 1.4.627 1.4 1.4 0 .773-.626 1.4-1.4 1.4H27.066v15.4c0 .727-.554 1.326-1.265 1.394l-.135.006H2.8v5.6h64.4v-5.6H31.266c-.773 0-1.4-.627-1.4-1.4 0-.773.627-1.4 1.4-1.4h11.667V32.2c0-.773.627-1.4 1.4-1.4H63zM53.666 0c.605 0 1.141.388 1.33.963l2.85 8.663h9.232c.61 0 1.147.392 1.333.972.186.58-.024 1.211-.517 1.567l-7.453 5.349 2.845 8.65c.189.575-.014 1.207-.502 1.566-.246.18-.537.27-.828.27-.286 0-.573-.088-.817-.263l-7.473-5.364-7.473 5.364c-.493.353-1.158.35-1.645-.009-.489-.358-.69-.99-.501-1.566l2.845-8.65-7.454-5.349c-.494-.354-.703-.987-.517-1.566.187-.58.726-.972 1.333-.972h9.233l2.85-8.663C52.524.388 53.06 0 53.666 0zm0 5.88l-1.837 5.583c-.189.574-.726.963-1.33.963h-5.894l4.755 3.412c.495.357.704.994.514 1.575l-1.826 5.547 4.802-3.445c.244-.177.53-.264.816-.264.286 0 .573.089.816.264l4.802 3.445-1.825-5.548c-.19-.581.018-1.218.514-1.575l4.754-3.412h-5.894c-.605 0-1.141-.388-1.33-.963L53.666 5.88z" transform="translate(-824 -346) translate(824 346)"/>
                <g>
                    <path fill="#7B8BA4" d="M7.462 17.435v8.598c0 1.76-1.429 3.2-3.2 3.2h-3.2V14.235h3.2c1.771 0 3.2 1.43 3.2 3.2z" transform="translate(-824 -346) translate(824 346)"/>
                    <path fill="#002257" d="M18.625.78l.033.021.01.007c1.674 1.165 2.646 3.07 2.606 5.106l-.001-.016c.055 1.225-.014 2.463-.201 3.677-.081.528-.535.905-1.053.905-.054 0-.11-.005-.165-.013-.583-.09-.98-.636-.89-1.218.166-1.076.226-2.17.177-3.255v-.058-.02c.038-1.328-.584-2.575-1.669-3.342l.021.013c-.513-.321-1.103-.475-1.694-.451l.098 2.165c.072 1.61-.155 3.199-.677 4.724l-.01.033c-.837 2.421-2.564 4.372-4.866 5.495l-.01.006c-1.033.502-1.72 1.538-1.794 2.675l-.007.201v8.594c0 1.765 1.436 3.2 3.2 3.2h4.61c.588 0 1.066.477 1.066 1.067 0 .591-.478 1.067-1.067 1.067h-4.609c-1.836 0-3.46-.933-4.419-2.35-.775.791-1.854 1.283-3.047 1.283h-3.2C.477 30.296 0 29.82 0 29.23V14.235c0-.59.478-1.066 1.067-1.066h3.2c1.195 0 2.276.493 3.051 1.287.515-.766 1.228-1.4 2.083-1.816 1.794-.873 3.14-2.392 3.792-4.278.441-1.28.634-2.613.572-3.965l-.14-3.093v-.026-.07.096c-.002-.049 0-.097.004-.145l.006-.051c.003-.025.007-.05.012-.073l.006-.023c.049-.212.162-.4.318-.543.004-.002.008-.006.012-.01.024-.022.049-.042.075-.062L14.07.39c.025-.02.052-.037.079-.053.006-.002.012-.006.018-.01.025-.015.052-.028.079-.04l.025-.01c.029-.014.059-.025.089-.035l.008-.001.01-.005.054-.015-.064.02c1.43-.456 2.981-.258 4.257.538zm7.582 11.382c2.051 0 3.126 1.61 3.126 3.2 0 .37-.057.739-.171 1.09 1.796.192 2.732 1.693 2.732 3.177 0 .814-.275 1.582-.773 2.163-.145.168-.306.317-.482.446.278.503.42 1.082.42 1.658 0 1.408-.842 2.83-2.46 3.139.122.361.184.745.184 1.128 0 1.59-1.076 3.2-3.13 3.2h-3.278c-2.056 0-3.131-1.61-3.131-3.2 0-.547.124-1.072.356-1.533-.939-.59-1.423-1.667-1.423-2.734 0-.546.124-1.071.356-1.532-.939-.592-1.423-1.668-1.423-2.735 0-.814.276-1.581.776-2.162.406-.472.942-.795 1.555-.944-.131-.37-.197-.766-.197-1.16 0-.815.275-1.582.775-2.162.575-.67 1.412-1.038 2.356-1.038l3.832-.001zm-.555 14.934h-3.277c-.897 0-.99.793-.997 1.03v.037c0 .178.047 1.066.997 1.066h3.278c.328 0 .568-.097.738-.294.164-.192.259-.471.259-.772 0-.178-.05-1.067-.998-1.067zM4.267 15.302l-2.134-.001v12.861h2.134c1.176 0 2.133-.956 2.133-2.133v-8.594c0-1.176-.957-2.133-2.133-2.133zm23.66 7.527h-6.618c-.898 0-.99.793-.998 1.031v.036c0 .168.042.97.848 1.059l.15.008h6.62c.327 0 .567-.097.738-.295.164-.192.258-.471.258-.772 0-.178-.048-1.067-.999-1.067zm.836-4.266h-8.52c-.951 0-1 .888-1 1.066 0 .179.049 1.067 1 1.067h8.52c.328 0 .57-.097.74-.294.164-.192.258-.472.258-.773 0-.178-.048-1.066-.998-1.066zm-2.561-4.267h-3.827c-.897 0-.99.793-.997 1.03v.037c0 .178.047 1.066.997 1.066h3.83c.326 0 .566-.097.737-.295.164-.19.258-.471.258-.771 0-.178-.048-1.067-.998-1.067z" transform="translate(-824 -346) translate(824 346)"/>
                </g>
            </g>
        </g>
    </g>
</svg>
