<svg xmlns="http://www.w3.org/2000/svg" width="69" height="70" viewBox="0 0 69 70">
    <g fill="none" fill-rule="evenodd">
        <g fill-rule="nonzero">
            <g>
                <path fill="#7B8BA4" d="M43.75 49.219v8.75H24.062v-8.75H43.75zm25.156-18.594v8.75H49.22v-8.75h19.687zM43.75 12.031v8.75H24.062v-8.75H43.75z" transform="translate(-622 -346) translate(622 346)"/>
                <path fill="#002257" d="M35 57.969v6.562c0 .604-.49 1.094-1.094 1.094H21.875v3.281c0 .604-.49 1.094-1.094 1.094H1.094C.49 70 0 69.51 0 68.906v-8.75c0-.604.49-1.093 1.094-1.093H20.78c.604 0 1.094.49 1.094 1.093v3.282h10.938v-5.47H35zM19.687 61.25h-17.5v6.563h17.5V61.25zm40.47-12.031v4.375c0 .604-.49 1.093-1.094 1.093H43.75V52.5h14.219v-3.281h2.187zM20.78 37.187c.604 0 1.094.49 1.094 1.094v3.282h12.031c.604 0 1.094.49 1.094 1.093v6.563h-2.188V43.75H21.876v3.281c0 .604-.49 1.094-1.094 1.094H1.094C.49 48.125 0 47.635 0 47.031v-8.75c0-.604.49-1.093 1.094-1.093zm39.375 7.657v2.187H57.97v-2.187h2.187zm-40.468-5.469h-17.5v6.563h17.5v-6.563zm40.468 0v3.281H57.97v-3.281h2.187zM35 20.781v6.563c0 .604-.49 1.093-1.094 1.093H21.875v3.282c0 .604-.49 1.093-1.094 1.093H1.094C.49 32.813 0 32.322 0 31.72v-8.75c0-.604.49-1.094 1.094-1.094H20.78c.604 0 1.094.49 1.094 1.094v3.281h10.938v-5.469H35zm-15.313 3.282h-17.5v6.562h17.5v-6.563zm40.47 3.28v3.282h-2.188v-3.281h2.187zm0-4.374v2.187h-2.188V22.97h2.187zm-1.094-7.657c.604 0 1.093.49 1.093 1.094v4.375H57.97V17.5H43.75v-2.188zM20.78 0c.604 0 1.094.49 1.094 1.094v3.281h12.031c.604 0 1.094.49 1.094 1.094v6.562h-2.188V6.562H21.876v3.282c0 .604-.49 1.094-1.094 1.094H1.094C.49 10.938 0 10.447 0 9.844v-8.75C0 .49.49 0 1.094 0zm-1.093 2.188h-17.5V8.75h17.5V2.187z" transform="translate(-622 -346) translate(622 346)"/>
            </g>
        </g>
    </g>
</svg>
