<svg xmlns="http://www.w3.org/2000/svg" width="70" height="70" viewBox="0 0 70 70">
    <g fill="none" fill-rule="evenodd">
        <g fill-rule="nonzero">
            <g>
                <path fill="#7B8BA4" d="M63.226 61.29c-1.07 0-1.936.866-1.936 1.936 0 1.07.866 1.935 1.936 1.935h-42.58v-3.87zm-9.678-31.935c1.601 0 2.904 1.302 2.904 2.903v7.973c0 .714-.26 1.399-.734 1.929l-6.693 7.517h-5.154v-1.935l3.293-18.112c.018-.095.051-.182.076-.275zm-28.742-7.621v1.653c0 1.334-1.085 2.42-2.419 2.42h-6.452c-1.333 0-2.419-1.086-2.419-2.42v-1.613H24c.273 0 .541-.014.806-.04zM19.355 10.56c4.086 0 7.043 2.125 8.87 6.375H10.485c1.828-4.25 4.785-6.375 8.87-6.375z" transform="translate(-1243 -346) translate(1243 346)"/>
                <path fill="#002257" d="M68.065 43.441V30.323c0-2.668-2.171-4.84-4.84-4.84H50.973c-2.34 0-4.342 1.672-4.76 3.973L43.024 46.99c-.039-.015-.081-.023-.12-.038v-4.049h-5.807v-4.838c0-2.669-2.17-4.84-4.839-4.84h-8.71v5.807h7.742v3.905c-.911.01-1.82.421-2.363 1.182l-1.896 2.655h-7.354v7.742h-5.806v5.807c0 2.726-1.303 5.33-3.484 6.967l-.387.29V70h8.71c1.6 0 2.903-1.303 2.903-2.903v-.968h10.35C33.076 68.465 35.437 70 38.065 70h25.16C66.962 70 70 66.96 70 63.226c0-3.735-3.039-6.774-6.774-6.774h-.478c.742-1.18 2.046-1.936 3.5-1.936H70v-7.742c0-1.426-.784-2.661-1.935-3.333zm-1.936-4.409h-1.935V31.29h1.935v7.742zm-.178-9.677h-3.693v11.613h3.871v1.935h-5.806V27.42h2.903c1.26 0 2.324.812 2.725 1.936zM44.839 47.829l3.277-18.026c.251-1.381 1.453-2.384 2.856-2.384h7.415v15.484c-2.135 0-3.87 1.736-3.87 3.871v1.936h-6.775c-1.094 0-2.092.378-2.903.993v-1.874zm-.673 12.494c-.347-.73-.804-1.386-1.366-1.936h15.692c-.563.55-1.02 1.207-1.368 1.936H44.166zm-2.232 0h-7.739c.899-1.195 2.322-1.936 3.87-1.936 1.547 0 2.97.741 3.869 1.936zm-3.87-3.871c-2.628 0-4.988 1.534-6.101 3.87H24.49l5.53-7.741h12.883v3.871h-4.838zm-5.28-7.742h9.151c.534 0 .968.433.968.967v.968H31.402l1.383-1.935zm8.184-3.871v1.935h-3.871V44.84h3.87zm-15.484-7.742V35.16h6.774c1.6 0 2.903 1.303 2.903 2.904v8.709h-1.146c.163-.46.221-.952.139-1.447-.11-.656-.443-1.232-.928-1.667v-4.628c0-1.067-.868-1.935-1.936-1.935h-5.806zm5.019 8.147c.3-.419.926-.53 1.352-.222.209.148.347.37.39.625.042.255-.017.51-.167.722l-9.967 13.954h-.498V57.69l8.89-12.446zm-8.89 9.115v-1.778h1.27l-1.27 1.778zm4.035-5.65l-1.383 1.936h-2.652V48.71h4.035zm-5.97 18.388c0 .534-.435.968-.968.968h-6.244c2.11-1.997 3.34-4.812 3.34-7.742v-3.871h3.871v10.645zm1.935-4.839H60.5c-.109.304-.178.627-.178.968 0 .34.07.664.178.968H21.613v-1.936zm40.645.968c0-.534.435-.968.968-.968.533 0 .968.434.968.968s-.435.968-.968.968c-.533 0-.968-.434-.968-.968zm-5.134 2.903c.348.729.804 1.386 1.368 1.936H42.8c.562-.55 1.019-1.207 1.366-1.936h12.958zm-22.929 0h7.739c-.899 1.194-2.322 1.936-3.87 1.936-1.547 0-2.97-.742-3.869-1.936zm33.87-2.903c0 2.668-2.171 4.839-4.84 4.839-1.547 0-2.97-.742-3.868-1.936h3.869c1.6 0 2.903-1.303 2.903-2.903s-1.303-2.903-2.903-2.903h-3.87c.899-1.195 2.322-1.936 3.87-1.936 2.668 0 4.839 2.17 4.839 4.839zm0-10.645h-1.817c-2.532 0-4.746 1.562-5.646 3.87H44.84v-2.903c0-1.6 1.302-2.903 2.903-2.903h20.323v1.936zM56.452 48.71v-1.936c0-1.067.868-1.935 1.935-1.935h7.742c1.067 0 1.936.868 1.936 1.935v1.936H56.452z" transform="translate(-1243 -346) translate(1243 346)"/>
                <path fill="#002257" d="M31.452 45.161h-2.42V8.871c0-4.891-3.98-8.871-8.87-8.871H8.87C3.98 0 0 3.98 0 8.871v4.839c0 4.89 3.98 8.87 8.871 8.87h12.097v25c0 1.335 1.085 2.42 2.42 2.42h8.064c1.333 0 2.419-1.085 2.419-2.42 0-1.333-1.086-2.419-2.42-2.419zM8.87 20.968c-4.002 0-7.258-3.256-7.258-7.258V8.87c0-4.002 3.256-7.258 7.258-7.258h11.29c4.003 0 7.258 3.256 7.258 7.258v12.097H8.871zm14.516 27.42c-.445 0-.806-.362-.806-.807v-2.42h3.225v-1.613h-3.225v-1.613h1.613v-1.612H22.58V38.71h3.225v-1.613h-3.225v-1.613h1.613V33.87H22.58v-1.613h3.225v-1.613h-3.225v-1.613h1.613V27.42H22.58v-1.613h3.225v-1.612h-3.225V22.58h4.838v25.806h-4.032zm8.065-1.614c.445 0 .806.361.806.807 0 .445-.361.806-.806.806h-2.42v-1.613h2.42zM24.194 4.84v12.903H4.839V4.839h19.355zm-9.678 6.451c-3.175 0-6.029 1.765-7.448 4.604l-.118.235h6.76v-3.226h1.613v3.226h6.76l-.118-.235c-1.42-2.84-4.274-4.604-7.449-4.604zm8.065-4.838H6.45v7.356c.53-.74 1.151-1.394 1.846-1.952l-.624-.624 1.14-1.14.847.847c.404-.225.822-.423 1.255-.59l-.54-1.301 1.491-.618.603 1.457c.407-.084.82-.141 1.24-.175V8.065h1.614v1.648c.42.033.834.091 1.24.175l.603-1.457 1.49.617-.54 1.302c.434.167.853.365 1.256.59l.847-.847 1.14 1.14-.624.623c.695.559 1.316 1.213 1.846 1.953V6.452z" transform="translate(-1243 -346) translate(1243 346) matrix(-1 0 0 1 33.871 0)"/>
            </g>
        </g>
    </g>
</svg>
