<svg xmlns="http://www.w3.org/2000/svg" width="70" height="70" viewBox="0 0 70 70">
    <g fill="none" fill-rule="evenodd">
        <g fill-rule="nonzero">
            <g>
                <path fill="#7B8BA4" d="M16.935 0C7.597 0 0 7.597 0 16.935c0 7.872 5.406 14.486 12.694 16.377l.2-.133c.426-.285.929-.437 1.441-.437.879 0 1.651.438 2.122 1.105.16.004.317.024.478.024 9.339 0 16.936-7.597 16.936-16.936C33.871 7.597 26.274 0 16.935 0zm0 5.645c6.226 0 11.29 5.065 11.29 11.29 0 6.226-5.064 11.29-11.29 11.29-6.225 0-11.29-5.064-11.29-11.29 0-6.225 5.065-11.29 11.29-11.29zm48.549 4.516v4.516h-11.29v-4.516h11.29z" transform="translate(-1192 -328) translate(1192 328)"/>
                <path fill="#002257" d="M28.226 31.613c1.867 0 3.387 1.52 3.387 3.387s-1.52 3.387-3.387 3.387h-1.337c.126.355.208.732.208 1.13 0 .87-.339 1.657-.88 2.257.54.6.88 1.388.88 2.258 0 .87-.339 1.658-.88 2.258.54.601.88 1.388.88 2.258 0 1.868-1.52 3.387-3.387 3.387h-1.13V59.7L25.157 70H4.199l2.575-10.3v-.807l-4.043-12.13c-.314-.941-.473-1.922-.473-2.916 0-3.09 1.536-5.959 4.107-7.673l5.902-3.934c.615-.41 1.331-.627 2.068-.627 2.057 0 3.73 1.672 3.73 3.73v.616c0 .133-.033.261-.047.392.367-.136.761-.222 1.176-.222h1.129V33.53c1.796-.367 3.483-1.03 5.025-1.917zm38.387 0C68.48 31.613 70 33.133 70 35v31.613C70 68.48 68.48 70 66.613 70H41.774c-1.867 0-3.387-1.52-3.387-3.387V35c0-1.867 1.52-3.387 3.387-3.387zm1.129 29.355H40.645v5.645c0 .622.507 1.129 1.13 1.129h24.838c.622 0 1.129-.507 1.129-1.13v-5.644zm-47.172 0H8.785l-1.694 6.774h15.172l-1.693-6.774zm40.398 2.258v2.258H58.71v-2.258h2.258zm4.516 0v2.258h-2.258v-2.258h2.258zm-9.032 0v2.258h-2.258v-2.258h2.258zm11.29-11.29H40.645v6.774h27.097v-6.775zM14.335 33.87c-.291 0-.573.086-.816.247l-5.901 3.934c-1.942 1.295-3.102 3.461-3.102 5.795 0 .75.12 1.493.357 2.203l4.16 12.477v.183h11.29v-2.466c-.355.126-.732.208-1.13.208h-4.516c-1.867 0-3.387-1.52-3.387-3.387V42.903c0-1.767.845-3.456 2.258-4.516l1.67-1.252c.368-.277.588-.716.588-1.176v-.617c0-.812-.659-1.471-1.47-1.471zm39.859 20.323v2.258h-2.259v-2.258h2.259zm-4.517 0v2.258H47.42v-2.258h2.258zm-4.516 0v2.258h-2.258v-2.258h2.258zM15.806 39.516l-.903.678c-.848.635-1.355 1.65-1.355 2.71v10.16c0 .623.507 1.13 1.13 1.13h4.516c.622 0 1.129-.507 1.129-1.13v-1.129h-1.13c-1.867 0-3.387-1.52-3.387-3.387 0-.87.34-1.657.881-2.258-.54-.6-.88-1.387-.88-2.258 0-.87.338-1.657.88-2.258-.54-.6-.88-1.387-.88-2.258zm7.904 7.903h-4.516c-.623 0-1.13.507-1.13 1.13 0 .621.507 1.128 1.13 1.128h4.516c.622 0 1.129-.507 1.129-1.129s-.507-1.129-1.13-1.129zm44.032-4.516H40.645v6.774h27.097v-6.774zm-6.774 2.258v2.258H58.71v-2.258h2.258zm-4.516 0v2.258h-2.258v-2.258h2.258zm9.032 0v2.258h-2.258v-2.258h2.258zM23.71 42.903h-4.516c-.623 0-1.13.507-1.13 1.13 0 .621.507 1.128 1.13 1.128h4.516c.622 0 1.129-.507 1.129-1.129s-.507-1.129-1.13-1.129zm0-4.516h-4.516c-.623 0-1.13.507-1.13 1.13 0 .621.507 1.128 1.13 1.128h4.516c.622 0 1.129-.507 1.129-1.129s-.507-1.129-1.13-1.129zm42.903-4.516H41.774c-.622 0-1.129.507-1.129 1.129v5.645h27.097V35c0-.622-.507-1.129-1.13-1.129zm-12.42 2.258v2.258h-2.258V36.13h2.259zm-4.516 0v2.258H47.42V36.13h2.258zm-4.516 0v2.258h-2.258V36.13h2.258zm-16.935-2.258H22.58v2.258h5.645c.622 0 1.129-.507 1.129-1.129s-.507-1.129-1.13-1.129zM16.936 4.516c6.847 0 12.419 5.572 12.419 12.42 0 6.847-5.572 12.419-12.42 12.419-6.847 0-12.419-5.572-12.419-12.42 0-6.847 5.572-12.419 12.42-12.419zm53.064 0v24.839H49.677v-11.29h-9.693l2.588 2.588-1.596 1.597-5.314-5.315 5.314-5.314 1.596 1.597-2.588 2.588h9.693V4.516H70zM16.935 6.774c-5.602 0-10.16 4.56-10.16 10.161 0 5.603 4.558 10.162 10.16 10.162 5.603 0 10.162-4.56 10.162-10.162 0-5.602-4.56-10.16-10.162-10.16zm50.807 0H51.935v20.323h15.807V6.774zm-2.258 11.29v6.775h-11.29v-6.774h11.29zM22.91 11.622l1.597 1.597-10.96 10.96-4.185-4.186 1.597-1.597 2.588 2.59 9.363-9.364zm40.315 8.702h-6.774v2.258h6.774v-2.258zm2.258-6.775v2.258h-11.29v-2.258h11.29zm0-4.516v2.258h-11.29V9.032h11.29z" transform="translate(-1192 -328) translate(1192 328)"/>
            </g>
        </g>
    </g>
</svg>
