<svg xmlns="http://www.w3.org/2000/svg" width="60" height="60" viewBox="0 0 60 60">
    <g fill="none" fill-rule="evenodd">
        <g fill-rule="nonzero">
            <g>
                <path fill="#7B8BA4" d="M13.548 34.839v15.484H3.871V34.839h9.677zm10.646 0v15.484h-7.742V34.839h7.742zm15.483 11.613v3.87H28.065v-3.87h11.612z" transform="translate(-760 -347) translate(760 347)"/>
                <path fill="#002257" d="M33.871 0c3.735 0 6.774 3.04 6.774 6.774v24.194h1.936V25.16h5.806c2.135 0 3.871 1.736 3.871 3.871v1.936H60V60H3.871C1.736 60 0 58.264 0 56.129v-21.29c0-2.135 1.736-3.871 3.871-3.871h23.226V6.774C27.097 3.04 30.135 0 33.87 0zm24.194 32.903h-5.807v17.42c0 2.134-1.736 3.87-3.87 3.87H3.87c-1.067 0-1.936.869-1.936 1.936s.869 1.936 1.936 1.936h54.194V32.903zm-1.936 5.807v17.419h-1.935v-17.42h1.935zm-29.032-5.807H3.87c-1.067 0-1.936.868-1.936 1.936v17.957c.572-.333 1.228-.538 1.936-.538h44.516c1.068 0 1.936-.868 1.936-1.935 0-1.068-.868-1.936-1.936-1.936h-5.806V32.903h-1.936v3.181l-4.473 7.158c-.5.798-1.36 1.274-2.301 1.274-.942 0-1.802-.476-2.301-1.274l-4.473-7.158v-3.18zm-9.678 1.936v15.484h-1.935V34.839h1.935zm3.871 13.548v1.936h-1.935v-1.936h1.935zm3.871-13.548v15.484h-1.935V34.839h1.935zm3.871 11.613v3.87h-1.935v-3.87h1.935zm3.871 0v3.87h-1.935v-3.87h1.935zm3.871 0v3.87H34.84v-3.87h1.935zm3.871 0v3.87H38.71v-3.87h1.935zm7.742-19.355h-3.87v19.355h3.87c.705 0 1.366.188 1.936.52v-17.94c0-1.067-.868-1.935-1.936-1.935zM21.29 34.839v11.613h-1.935V34.839h1.935zm16.642 1.935H29.81l3.402 5.44c.285.459 1.033.459 1.319 0l3.4-5.44zm10.455 0v1.936h-1.935v-1.936h1.935zm7.742-1.935v1.935h-1.935V34.84h1.935zM32.903 15.484h-3.87v19.355h3.87V15.484zm5.807 0h-3.871v19.355h3.87V15.484zm9.677 17.42v1.935h-1.935v-1.936h1.935zm0-3.872v1.936h-1.935v-1.936h1.935zm8.71-23.226C58.697 5.806 60 7.11 60 8.71v7.742c0 1.6-1.303 2.903-2.903 2.903H48.5l-1.833 2.852c-.41.638-1.108 1.019-1.867 1.019-1.224 0-2.22-.996-2.22-2.22V8.71c0-1.601 1.303-2.904 2.904-2.904zm-.001 1.936H45.483c-.533 0-.968.433-.968.968v12.296c0 .254.386.368.524.154l2.405-3.74h9.653c.533 0 .968-.434.968-.968h-.001V8.71c0-.535-.435-.968-.968-.968zm-2.619 1.251l1.368 1.369-6.49 6.49-2.62-2.62 1.369-1.368 1.25 1.251 5.123-5.122zm-15.767 2.62h-9.678v1.935h9.678v-1.935zM33.87 1.935c-2.668 0-4.839 2.171-4.839 4.84v2.902h9.678V6.774c0-2.668-2.171-4.839-4.839-4.839z" transform="translate(-760 -347) translate(760 347)"/>
            </g>
        </g>
    </g>
</svg>
