<svg xmlns="http://www.w3.org/2000/svg" width="60" height="60" viewBox="0 0 60 60">
    <g fill="none" fill-rule="evenodd">
        <g fill-rule="nonzero">
            <g>
                <path fill="#7B8BA4" d="M53.226 51.29c-1.07 0-1.936.866-1.936 1.936 0 1.07.866 1.935 1.936 1.935h-42.58v-3.87zm-9.678-31.935c1.601 0 2.904 1.302 2.904 2.903v7.973c0 .714-.26 1.399-.734 1.929l-6.693 7.517h-5.154v-1.935l3.293-18.112c.018-.095.051-.182.076-.275zM31.935.968v3.87H14.516c-1.07 0-1.935.867-1.935 1.936 0 1.07.866 1.936 1.935 1.936h7.742c3.207 0 5.807 2.599 5.807 5.806s-2.6 5.807-5.807 5.807H6.774c-1.07 0-1.935.866-1.935 1.935 0 1.07.866 1.936 1.935 1.936h4.839v3.87H6.774c-3.207 0-5.806-2.599-5.806-5.806s2.6-5.806 5.806-5.806h15.484c1.07 0 1.936-.867 1.936-1.936 0-1.07-.867-1.935-1.936-1.935h-7.742c-3.207 0-5.806-2.6-5.806-5.807 0-3.207 2.599-5.806 5.806-5.806h17.42z" transform="translate(-590 -347) translate(590 347)"/>
                <path fill="#002257" d="M53.226 15.484c2.668 0 4.839 2.17 4.839 4.839V33.44c1.151.672 1.935 1.907 1.935 3.333v7.742h-3.752c-1.454 0-2.758.756-3.5 1.936h.478c3.735 0 6.774 3.04 6.774 6.774S56.961 60 53.226 60H28.065c-2.628 0-4.99-1.535-6.102-3.871h-10.35v.968c0 1.6-1.303 2.903-2.903 2.903H0v-2.42l.387-.29c2.181-1.636 3.484-4.241 3.484-6.967v-5.807h5.806v-7.742h7.354l1.896-2.655c.543-.76 1.452-1.171 2.363-1.182v-3.905h-7.742v-5.806h8.71c2.668 0 4.839 2.17 4.839 4.839v4.838h5.806v4.05c.04.014.082.022.121.037l3.188-17.534c.418-2.3 2.42-3.972 4.76-3.972zM9.677 46.452h-3.87v3.87c0 2.93-1.232 5.746-3.341 7.743H8.71c.533 0 .967-.434.967-.968V46.452zm37.447 9.677H34.166c-.347.729-.804 1.386-1.366 1.936h15.692c-.564-.55-1.02-1.207-1.368-1.936zm-15.19 0h-7.739c.9 1.194 2.322 1.936 3.87 1.936 1.547 0 2.97-.742 3.869-1.936zm21.292-7.742c-1.548 0-2.971.741-3.87 1.936h3.87c1.6 0 2.903 1.302 2.903 2.903 0 1.6-1.303 2.903-2.903 2.903h-3.87c.9 1.194 2.322 1.936 3.87 1.936 2.668 0 4.839-2.171 4.839-4.84 0-2.667-2.171-4.838-4.84-4.838zM50.5 52.258H11.613v1.936H50.5c-.109-.304-.178-.628-.178-.968 0-.34.07-.664.178-.968zm2.725 0c-.533 0-.968.434-.968.968s.435.968.968.968c.533 0 .968-.434.968-.968s-.435-.968-.968-.968zm-4.734-3.87H32.8c.562.549 1.019 1.206 1.366 1.935h12.958c.348-.73.805-1.386 1.368-1.936zm-20.427 0c-1.548 0-2.971.74-3.87 1.935h7.739c-.9-1.195-2.322-1.936-3.87-1.936zm4.838-5.807H20.02l-5.53 7.742h7.473c1.113-2.337 3.473-3.871 6.102-3.871h4.838V42.58zm-11.048-7.56c-.426-.306-1.052-.196-1.352.223l-8.89 12.446v2.633h.498l9.967-13.954c.15-.211.21-.467.167-.722-.043-.255-.181-.477-.39-.625zm36.21 5.624H37.742c-1.6 0-2.903 1.303-2.903 2.903v2.904h15.763c.9-2.31 3.114-3.871 5.646-3.871h1.817v-1.936zm-45.181 1.936h-1.271v1.778l1.27-1.778zm19.051-3.871h-9.15l-1.383 1.935h11.501v-.968c0-.534-.434-.967-.968-.967zm-16.287 0h-4.035v1.935h2.652l1.383-1.935zm32.74-21.29h-7.416c-1.403 0-2.605 1.002-2.856 2.383L34.84 37.829v1.874c.81-.615 1.81-.993 2.903-.993h6.774v-1.936c0-2.135 1.736-3.87 3.871-3.87V17.418zm7.741 17.419h-7.742c-1.067 0-1.935.868-1.935 1.935v1.936h11.613v-1.936c0-1.067-.869-1.935-1.936-1.935zm-25.161 0h-3.871v1.935h3.87V34.84zm-8.71-9.678h-6.774v1.936h5.806c1.068 0 1.936.868 1.936 1.935v4.628c.485.435.818 1.011.928 1.667.082.495.024.988-.14 1.447h1.147v-8.71c0-1.6-1.302-2.903-2.903-2.903zm30.968-7.742h-2.903v15.484h5.806v-1.935h-3.87V19.355h3.692c-.4-1.124-1.465-1.936-2.725-1.936zm2.903 3.871h-1.935v7.742h1.935V21.29zM31.935 0v1.935H14.516c-2.668 0-4.839 2.171-4.839 4.84 0 2.667 2.171 4.838 4.84 4.838h7.741c1.6 0 2.903 1.302 2.903 2.903 0 1.6-1.302 2.903-2.903 2.903H6.774c-2.668 0-4.839 2.171-4.839 4.84 0 2.667 2.171 4.838 4.84 4.838h4.838v1.935H6.774C3.04 29.032 0 25.992 0 22.258s3.039-6.774 6.774-6.774h15.484c.533 0 .968-.434.968-.968s-.435-.968-.968-.968h-7.742c-3.735 0-6.774-3.04-6.774-6.774S10.78 0 14.516 0h17.42zM30 3.871v1.935H14.516c-.533 0-.968.434-.968.968s.435.968.968.968h7.742c3.736 0 6.774 3.04 6.774 6.774 0 3.735-3.038 6.774-6.774 6.774H6.774c-.533 0-.968.434-.968.968s.435.968.968.968h4.839v1.935H6.774c-1.6 0-2.903-1.302-2.903-2.903 0-1.6 1.303-2.903 2.903-2.903h15.484c2.668 0 4.839-2.17 4.839-4.839 0-2.668-2.17-4.839-4.839-4.839h-7.742c-1.6 0-2.903-1.302-2.903-2.903 0-1.6 1.302-2.903 2.903-2.903H30zm7.742 0v1.935h-1.936V3.871h1.936zm3.87 0v1.935h-1.935V3.871h1.936zm-7.741 0v1.935h-1.936V3.871h1.936z" transform="translate(-590 -347) translate(590 347)"/>
            </g>
        </g>
    </g>
</svg>
