<svg xmlns="http://www.w3.org/2000/svg" width="70" height="70" viewBox="0 0 70 70">
    <g fill="none" fill-rule="evenodd">
        <g fill-rule="nonzero">
            <g>
                <path fill="#7B8BA4" d="M63.226 54.194c1.245 0 2.258 1.012 2.258 2.258v6.774c0 1.245-1.013 2.258-2.258 2.258H47.419c-1.245 0-2.258-1.013-2.258-2.258v-6.774c0-1.246 1.013-2.258 2.258-2.258h15.807zm-22.58-21.452v4.516H24.838v-4.516h15.806zM60.967 5.645v10.161H36.129V5.646h24.839z" transform="translate(-639 -328) translate(639 328)"/>
                <path fill="#002257" d="M65.484 0v18.179c2.573.525 4.516 2.805 4.516 5.53v40.646C70 67.468 67.468 70 64.355 70H5.645C2.532 70 0 67.468 0 64.355V46.29c0-3.112 2.532-5.645 5.645-5.645h1.13V0h58.709zm-36.13 56.452H2.259v7.903c0 1.867 1.52 3.387 3.387 3.387h23.71v-11.29zm20.985-36.13h-1.79c-1.868 0-3.388 1.52-3.388 3.388v13.548c0 3.113-2.532 5.645-5.645 5.645H35c-1.867 0-3.387 1.52-3.387 3.387v21.452h32.742c1.867 0 3.387-1.52 3.387-3.387v-26.63L50.339 20.323zm6.113 38.388v2.258h-2.258V58.71h2.258zm4.516 0v2.258H58.71V58.71h2.258zm-9.033 0v2.258h-2.258V58.71h2.258zM30.016 2.258h-14.21v51.936h4.517V11.952l9.693-9.694zm-16.468 0H9.032v51.936h4.516V2.258zM6.774 42.903H5.645c-1.867 0-3.387 1.52-3.387 3.387v7.904h4.516v-11.29zM63.226 2.258H33.87v11.29h-11.29v40.646h6.774V46.29c0-3.112 2.532-5.645 5.645-5.645h4.516c1.868 0 3.387-1.52 3.387-3.387V23.71c0-3.113 2.533-5.645 5.645-5.645h14.678V2.258zM40.646 36.13v2.258H24.838V36.13h15.806zm16.467-15.806h-3.581l14.21 14.21V30.95L57.113 20.323zm-16.468 11.29v2.258H24.84v-2.258h15.806zm0-13.548v11.29H24.84v-11.29h15.806zm23.71 2.258h-4.049l7.436 7.435V23.71c0-1.868-1.52-3.387-3.387-3.387zm-25.968 0h-11.29v6.774h11.29v-6.774zm22.58-6.775v2.258H58.71v-2.258h2.258zm-4.515 0v2.258H36.129v-2.258h20.323zm4.516-4.516v2.258H36.129V9.032h24.839zM31.613 3.855l-7.436 7.435h7.436V3.855zm29.355.661v2.258H36.129V4.516h24.839z" transform="translate(-639 -328) translate(639 328)"/>
            </g>
        </g>
    </g>
</svg>
