<svg xmlns="http://www.w3.org/2000/svg" width="72" height="70" viewBox="0 0 72 70">
    <g fill="none" fill-rule="evenodd">
        <g fill-rule="nonzero">
            <g>
                <path fill="#7B8BA4" d="M70.871 58.71v3.387c0 1.247-1.01 2.258-2.258 2.258H48.29c-1.247 0-2.258-1.01-2.258-2.258V58.71h24.839zm-46.43-6.775c2.596 0 4.848 1.76 5.478 4.277l.623 2.498H14.419v-1.13c0-3.112 2.533-5.645 5.646-5.645h4.377z" transform="translate(-1039 -346) translate(1039 346)"/>
                <path fill="#002257" d="M68.613 0c1.805 0 3.285 1.42 3.382 3.202l.005.185V35c0 1.805-1.42 3.285-3.202 3.382l-.185.005h-11.29v6.774h11.29c1.805 0 3.285 1.42 3.382 3.202l.005.185v13.549c0 1.805-1.42 3.285-3.202 3.382l-.185.005h-3.387v2.258h2.258V70H49.419v-2.258h2.258v-2.258H48.29c-1.805 0-3.285-1.42-3.382-3.202l-.005-.185V48.548c0-1.805 1.42-3.285 3.202-3.382l.185-.005h6.775v-6.774h-11.29c-1.806 0-3.286-1.42-3.383-3.201L40.387 35H23.452v12.448c4.35.144 8.19 2.8 9.837 6.803 2.657.381 4.723 2.619 4.835 5.352l.005.236v2.258c0 1.805-1.42 3.285-3.202 3.382l-.185.005h-1.13c0 2.49-2.025 4.516-4.515 4.516-2.42 0-4.4-1.911-4.511-4.304l-.005-.212h-9.033c0 2.49-2.025 4.516-4.516 4.516-2.42 0-4.4-1.911-4.51-4.304l-.006-.212H5.387c-1.805 0-3.285-1.42-3.382-3.202L2 62.097v-2.258c0-3.039 2.413-5.525 5.424-5.641l.221-.004h2.605c1.668-3.991 5.519-6.652 9.876-6.77l.304-.005h.764V32.742h19.193v-2.258H15.548v-9.162H6.774c-3.656 0-6.644-2.91-6.77-6.536L0 14.548c0-3.736 3.038-6.774 6.774-6.774.189 0 .38.01.576.03C8.759 3.749 12.56 1 16.935 1c4.375 0 8.177 2.75 9.586 6.804.196-.02.387-.03.576-.03 3.736 0 6.774 3.038 6.774 6.774 0 3.657-2.91 6.645-6.537 6.77l-.237.005-9.291-.001v6.904h22.581V3.387c0-1.805 1.42-3.285 3.202-3.382L43.774 0h24.839zm-57.58 63.226c-1.246 0-2.259 1.013-2.259 2.258s1.013 2.258 2.258 2.258c1.246 0 2.258-1.013 2.258-2.258s-1.012-2.258-2.258-2.258zm18.064 0c-1.246 0-2.258 1.013-2.258 2.258s1.012 2.258 2.258 2.258c1.245 0 2.258-1.013 2.258-2.258s-1.013-2.258-2.258-2.258zm33.87 2.258h-9.032v2.258h9.033v-2.258zM23.087 49.677H20.43c-3.783 0-7.13 2.413-8.326 6.002l-.258.773h-4.2c-1.868 0-3.388 1.52-3.388 3.387v2.258c0 .623.506 1.129 1.13 1.129h1.756c.783-1.344 2.224-2.258 3.888-2.258 1.664 0 3.105.914 3.889 2.258h10.287c.784-1.344 2.225-2.258 3.889-2.258 1.664 0 3.105.914 3.888 2.258h1.757c.623 0 1.129-.506 1.129-1.13V59.84c0-1.868-1.52-3.387-3.387-3.387h-.814l-.256-.773c-1.198-3.589-4.545-6.002-8.328-6.002zm45.527-2.258H48.29c-.623 0-1.129.506-1.129 1.13v13.548c0 .623.506 1.129 1.13 1.129h20.322c.623 0 1.129-.506 1.129-1.13V48.549c0-.623-.506-1.129-1.13-1.129zm1.129-18.064H42.645V35c0 .623.506 1.129 1.13 1.129h24.838c.623 0 1.129-.506 1.129-1.129v-5.645zm-11.29 2.258v2.258h-2.258v-2.258h2.258zm9.032 0v2.258h-2.258v-2.258h2.258zm-4.516 0v2.258H60.71v-2.258h2.258zm6.774-11.29H42.645v6.774h27.097v-6.774zM56.194 22.58v2.258h-2.259V22.58h2.259zm-4.517 0v2.258H49.42V22.58h2.258zm-4.516 0v2.258h-2.258V22.58h2.258zM16.935 3.258c-3.597 0-6.696 2.39-7.623 5.844l-.063.248-.262 1.117-1.112-.28c-.419-.106-.768-.155-1.1-.155-2.491 0-4.517 2.026-4.517 4.516 0 2.42 1.911 4.4 4.304 4.512l.212.005h20.323c2.49 0 4.516-2.026 4.516-4.517 0-2.49-2.026-4.516-4.516-4.516-.267 0-.543.031-.858.098l-.243.057-1.112.28-.262-1.117c-.842-3.587-4.004-6.092-7.687-6.092zm52.807 8.032H42.645v6.775h27.097V11.29zm-11.29 2.258v2.258h-2.258v-2.258h2.258zm9.032 0v2.258h-2.258v-2.258h2.258zm-4.516 0v2.258H60.71v-2.258h2.258zm5.645-11.29H43.774c-.623 0-1.129.506-1.129 1.13v5.644h27.097V3.387c0-.623-.506-1.129-1.13-1.129zM47.16 4.516v2.258h-2.258V4.516h2.258zm9.033 0v2.258h-2.259V4.516h2.259zm-4.517 0v2.258H49.42V4.516h2.258z" transform="translate(-1039 -346) translate(1039 346)"/>
            </g>
        </g>
    </g>
</svg>
