<svg xmlns="http://www.w3.org/2000/svg" width="60" height="60" viewBox="0 0 60 60">
    <g fill="none" fill-rule="evenodd">
        <g fill-rule="nonzero">
            <g>
                <g fill="#7B8BA4">
                    <path d="M0 15.484L11.613 15.484 11.613 27.097 0 27.097zM0 31.935L11.613 31.935 11.613 43.548 0 43.548zM25.161 9.677L0 9.677 0 0 25.161 0z" transform="translate(-1271 -347) translate(1271 347) translate(3.871 9.677)"/>
                </g>
                <path fill="#002257" d="M42.642 30.968c.575 0 1.13.168 1.61.487l6.759 4.506c.798.532 1.726.813 2.684.813H60V34.84h-6.304c-.575 0-1.132-.169-1.611-.488l-2.73-1.82V0H12.58v5.806H0V60h36.774v-5.806h12.58v-8.142c.062-.015.125-.02.186-.034l4.501-1.125c1-.25 2.027-.377 3.056-.377H60v-1.935h-2.903c-1.187 0-2.373.146-3.525.433L49.07 44.14c-2.314.577-4.776.483-7.037-.27l-1.63-.544c-1.485-.495-3.032-.745-4.597-.745h-8.444c0-1.6 1.303-2.904 2.903-2.904H40.91c1.601 0 2.903-1.302 2.903-2.903 0-1.484-1.124-2.698-2.563-2.869l.794-2.937h.598zm-1.223 14.737c1.485.496 3.031.747 4.596.747.47 0 .938-.041 1.404-.086v5.892H36.774v-3.165c.34-.392.603-.856.744-1.38l.793-2.936c.498.102.993.223 1.478.386l1.63.542zm-5.047-1.167l-.721 2.67c-.188.694-.822 1.18-1.54 1.18h-.315c-.88 0-1.594-.716-1.594-1.596 0-.141.018-.28.055-.416l.502-1.86h3.047c.189 0 .377.015.566.022zm-5.618-.022l-.366 1.354c-.081.3-.122.61-.122.922 0 1.309.724 2.44 1.784 3.05l-.304 1.213 1.877.47.301-1.202h.186c.25 0 .491-.035.729-.085v7.827H1.935V7.742h12.581V1.935H47.42v29.306l-2.093-1.396c-.798-.531-1.726-.813-2.684-.813h-.075l4.028-14.902c.081-.3.122-.61.122-.922 0-1.947-1.584-3.53-3.53-3.53h-.314c-1.592 0-2.993 1.073-3.409 2.61l-2.69 9.954V5.806H16.452v1.936h18.387v21.29h-2.002c-1.054 0-2.046.35-2.875.968h-9.64v1.935h7.607l-1.936 1.936h-5.67v1.935h3.736l-1.617 1.617c-.57.57-.886 1.33-.886 2.137 0 1.666 1.355 3.02 3.022 3.02.298 0 .585-.057.864-.14-.001.048-.015.092-.015.14 0 1.068.868 1.936 1.936 1.936h3.39zm7.454-6.774H34.59l4.087-15.12 3.32 1.106-3.789 14.014zm-7.424-5.925c.541-.54 1.289-.85 2.053-.85h1.579l-.79 2.921c-1.224.045-2.372.529-3.243 1.4l-5.039 5.039c-.202.202-.482.318-.767.318-.6 0-1.086-.487-1.086-1.085 0-.29.113-.562.318-.767l6.975-6.976zm.968 4.84c.365-.367.83-.616 1.327-.746l-.494 1.83h-1.918l1.085-1.085zm12.974-23.032L43.54 18.01l-3.32-1.107 1.111-4.11c.189-.695.822-1.18 1.54-1.18h.314c.88 0 1.595.715 1.595 1.595 0 .141-.018.28-.055.417zm-5.01 5.15l3.32 1.106-.535 1.975-3.32-1.106.535-1.975zm1.194 17.031c.534 0 .968.435.968.968 0 .533-.434.968-.968.968h-.697l.523-1.936h.174z" transform="translate(-1271 -347) translate(1271 347)"/>
                <path fill="#002257" d="M7.742 13.548L9.677 13.548 9.677 15.484 7.742 15.484zM11.613 13.548L13.548 13.548 13.548 15.484 11.613 15.484zM15.484 13.548L17.419 13.548 17.419 15.484 15.484 15.484zM19.355 13.548L21.29 13.548 21.29 15.484 19.355 15.484zM23.226 13.548L25.161 13.548 25.161 15.484 23.226 15.484zM20.039 22.942L18.671 21.574 9.677 30.567 8.426 29.316 7.058 30.684 9.677 33.304zM18.671 38.025L9.677 47.019 8.426 45.767 7.058 47.136 9.677 49.756 20.039 39.394zM30.968 53.226L32.903 53.226 32.903 55.161 30.968 55.161zM18.387 53.226L29.032 53.226 29.032 55.161 18.387 55.161zM20.323 26.129L32.903 26.129 32.903 28.065 20.323 28.065z" transform="translate(-1271 -347) translate(1271 347)"/>
            </g>
        </g>
    </g>
</svg>
