<svg xmlns="http://www.w3.org/2000/svg" width="70" height="70" viewBox="0 0 70 70">
    <g fill="none" fill-rule="evenodd">
        <g fill-rule="nonzero">
            <g>
                <path fill="#7B8BA4" d="M46.29 59.839c0 3.112-2.532 5.645-5.645 5.645h-11.29c-3.113 0-5.645-2.533-5.645-5.645zM22.58 42.903c2.491 0 4.517 2.026 4.517 4.516 0 2.491-2.026 4.516-4.516 4.516-2.491 0-4.516-2.025-4.516-4.516 0-2.49 2.025-4.516 4.516-4.516zm9.033-18.064v11.29H15.806v-11.29h15.807zm22.58 5.645v5.645H33.872v-5.645h20.323z" transform="translate(-842 -328) translate(842 328)"/>
                <path fill="#002257" d="M55.323 0c1.867 0 3.387 1.52 3.387 3.387v10.161h3.387c3.113 0 5.645 2.533 5.645 5.646V58.71H70v1.129C70 65.442 65.442 70 59.839 70H10.16C4.558 70 0 65.442 0 59.839v-1.13h2.258V19.195c0-3.113 2.532-5.646 5.645-5.646h3.387V3.388C11.29 1.52 12.81 0 14.677 0zM67.66 60.968H2.338c.55 3.825 3.848 6.774 7.823 6.774H59.84c3.975 0 7.273-2.95 7.822-6.774zM11.29 15.806H7.902c-1.867 0-3.387 1.52-3.387 3.388V58.71h60.968V19.194c0-1.868-1.52-3.388-3.387-3.388H58.71v2.259h2.258c1.245 0 2.258 1.012 2.258 2.258v33.87c0 1.246-1.013 2.259-2.258 2.259H9.032c-1.245 0-2.258-1.013-2.258-2.258V20.323c0-1.246 1.013-2.258 2.258-2.258h2.258v-2.259zm0 4.517H9.031v33.87h51.936v-33.87H58.71v16.935c0 1.867-1.52 3.387-3.387 3.387H14.677c-1.867 0-3.387-1.52-3.387-3.387V20.323zm6.934 25.967c-.095.364-.16.738-.16 1.13 0 .391.065.765.16 1.128H11.29V46.29zm40.485 0v2.258h-2.258V46.29h2.258zm-9.033 0v2.258H47.42V46.29h2.258zm4.517 0v2.258h-2.259V46.29h2.259zm-11.29 0v2.258H26.935c.095-.363.16-.737.16-1.129 0-.391-.065-.765-.16-1.129h15.967zM55.322 2.258H14.677c-.623 0-1.129.507-1.129 1.13v33.87c0 .623.506 1.13 1.13 1.13h40.645c.623 0 1.129-.507 1.129-1.13V3.388c0-.623-.506-1.13-1.13-1.13zM36.129 33.871v2.258h-2.258v-2.258h2.258zm18.065 0v2.258H38.387v-2.258h15.807zm0-4.516v2.258H33.87v-2.258h20.323zM44.032 4.516c5.604 0 10.162 4.56 10.162 10.161 0 5.603-4.558 10.162-10.162 10.162-5.603 0-10.161-4.56-10.161-10.162 0-5.602 4.558-10.16 10.161-10.16zm-1.129 2.349c-3.823.55-6.774 3.84-6.774 7.812 0 4.358 3.546 7.904 7.903 7.904 3.973 0 7.262-2.95 7.813-6.775h-8.942zM22.581 4.516v18.065h-6.775V4.516h6.775zm9.032 6.774v11.29h-6.774V11.29h6.774zm-11.29-4.516h-2.258v13.549h2.258V6.774zm9.032 6.774h-2.258v6.775h2.258v-6.775zM45.16 6.865v6.683h6.684c-.498-3.453-3.23-6.186-6.684-6.683z" transform="translate(-842 -328) translate(842 328)"/>
            </g>
        </g>
    </g>
</svg>
